<svg width="205" height="204" viewBox="0 0 205 204" fill="none" xmlns="http://www.w3.org/2000/svg">
<path d="M67.7355 102.265V102.265C67.7343 97.7017 68.6322 93.1826 70.3779 88.9662C72.1237 84.7498 74.6832 80.9187 77.91 77.6919C81.1369 74.465 84.968 71.9055 89.1844 70.1597C93.4007 68.414 97.9197 67.5161 102.483 67.5174C111.174 67.544 119.54 70.8275 125.928 76.7199C132.318 82.6129 136.266 90.687 136.993 99.3485C137.72 108.01 135.174 116.63 129.857 123.505C124.54 130.381 116.838 135.014 108.272 136.489L107.442 136.632V137.475V173.477V174.564L108.525 174.473C127.164 172.915 144.479 164.213 156.851 150.186C169.224 136.159 175.697 117.894 174.917 99.2062C174.137 80.5187 166.164 62.8558 152.666 49.9089C139.167 36.9621 121.187 29.7333 102.484 29.7333C83.7799 29.7333 65.7999 36.9621 52.3014 49.9089C38.8029 62.8558 30.8305 80.5187 30.0505 99.2062C29.2705 117.894 35.7432 136.159 48.1159 150.186C60.4885 164.213 77.8036 172.915 96.4423 174.473L97.5256 174.564V173.477V137.444V136.598L96.6908 136.458C80.2846 133.71 67.7355 119.458 67.7355 102.265ZM203.156 102.245C203.156 157.847 158.085 202.918 102.484 202.918C46.8822 202.918 1.81104 157.847 1.81104 102.245C1.81104 46.6436 46.8822 1.57251 102.484 1.57251C158.085 1.57251 203.156 46.6436 203.156 102.245Z" fill="#0CC770" stroke="#0CC770" stroke-width="2"/>
</svg>
