<svg width="33" height="33" viewBox="0 0 33 33" fill="none" xmlns="http://www.w3.org/2000/svg">
<path d="M11.4237 16.3347V16.3345C11.4235 15.7281 11.5428 15.1278 11.7747 14.5676C12.0067 14.0074 12.3467 13.4984 12.7755 13.0697C13.2042 12.6409 13.7132 12.3009 14.2734 12.069C14.8332 11.8372 15.4331 11.7179 16.039 11.7179C17.1933 11.7217 18.3043 12.1579 19.1528 12.9405C20.0017 13.7235 20.5262 14.7962 20.6228 15.9469C20.7194 17.0977 20.3811 18.2429 19.6747 19.1564C18.9683 20.0699 17.945 20.6854 16.807 20.8814L16.0653 21.0091L15.2696 20.8759C13.0892 20.5107 11.4237 18.6154 11.4237 16.3347ZM16.1044 28.6001L17.06 28.5202C20.2053 28.2572 23.1272 26.7887 25.2151 24.4217C27.3029 22.0547 28.3952 18.9724 28.2636 15.8189C28.1319 12.6654 26.7866 9.68479 24.5088 7.50002C22.2309 5.31525 19.1968 4.09539 16.0405 4.09539C12.8843 4.09539 9.85016 5.31525 7.5723 7.50002C5.29444 9.68479 3.94911 12.6654 3.81748 15.8189C3.68586 18.9724 4.77812 22.0547 6.866 24.4217C8.95388 26.7887 11.8758 28.2572 15.0211 28.5202L15.9767 28.6001V28.6108L16.0405 28.6055L16.1044 28.6108V28.6001ZM31.0156 16.3315C31.0156 24.6023 24.3113 31.3066 16.0405 31.3066C7.76977 31.3066 1.06543 24.6023 1.06543 16.3315C1.06543 8.06078 7.76977 1.35645 16.0405 1.35645C24.3113 1.35645 31.0156 8.06078 31.0156 16.3315Z" fill="#00FFB7" stroke="#00FFB7" stroke-width="2"/>
</svg>
