<svg width="45" height="42" viewBox="0 0 45 42" fill="none" xmlns="http://www.w3.org/2000/svg">
<path d="M44.938 36.9985C40.7563 38.7511 36.6057 40.0336 32.4864 40.8458C28.4295 41.6153 24.2478 42 19.9412 42C16.3212 42 12.8261 41.7649 9.4557 41.2947C6.08535 40.8672 2.93345 40.2473 0 39.4351V33.9847C2.99587 34.7969 6.14777 35.4595 9.4557 35.9725C12.8261 36.4855 16.1964 36.742 19.5668 36.742C22.6874 36.742 25.6521 36.5069 28.4607 36.0366C31.3318 35.5664 34.1092 34.8183 36.793 33.7924V25.7771L0 19.8779V5.00153C4.18173 3.20611 8.33225 1.92366 12.4516 1.1542C16.5709 0.384733 20.7838 0 25.0904 0C28.7104 0 32.2056 0.235115 35.5759 0.705346C38.9463 1.13283 42.067 1.75267 44.938 2.56489V8.01527C42.067 7.20305 38.9775 6.54046 35.6695 6.02748C32.3616 5.51451 29.0537 5.25802 25.7457 5.25802C22.5626 5.25802 19.5355 5.49313 16.6645 5.96336C13.8559 6.43359 11.0473 7.18168 8.23863 8.20763V15.774L44.938 21.7374V36.9985Z" fill="#00F0FF"/>
</svg>
