<svg width="1230" height="688" fill="none" xmlns="http://www.w3.org/2000/svg"><path fill="#101F54" d="M0 0h1230v688H0z"/><mask id="a" style="mask-type:alpha" maskUnits="userSpaceOnUse" x="0" y="0" width="1230" height="688"><path fill="#C4C4C4" d="M0 0h1230v688H0z"/></mask><g mask="url(#a)"><path d="M380.73 441.1c-24.56-34.68-10.4-64.13 13.66-74.8 7.16 132.21 113.1 238.15 245.3 245.31-10.66 24.06-40.1 38.22-74.78 13.66a276.35 276.35 0 0 1-6.2-4.6c-20.34-15.32-59.66-44.95-90.3-14.3-21.2 21.2-23.56 49.37-25.82 76.54-2.12 25.33-4.16 49.79-21.31 66.94-7.16 7.15-15.57 9.16-22.7 10.85-12.65 3.01-21.29 5.07-11.79 33.23 15.16 44.93-10.1 77.92-36.14 59.23-20.76-14.91-64.12 16.93-51.77 51.77 12.3 34.69 5.04 53.12-8.06 66.22-20.09 20.1-69.5 3.93-95.4-4.54l-1.47-.49c-16.7-5.45-35.1 12.99-50.9 28.99-2.72 2.75-6.83 3.08-9.18.74L10.16 872.13c-2.34-2.35-2.01-6.46.75-9.18 16-15.79 34.43-34.2 28.98-50.9l-.48-1.48c-8.48-25.89-24.64-75.3-4.55-95.4 13.1-13.1 31.53-20.36 66.22-8.05 34.84 12.35 66.68-31.01 51.77-51.77-18.7-26.03 14.3-51.3 59.23-36.14 28.16 9.5 30.22.87 33.23-11.79 1.7-7.13 3.7-15.54 10.85-22.7 17.15-17.15 41.61-19.19 66.94-21.3 27.17-2.27 55.35-4.63 76.55-25.83 30.64-30.64 1.01-69.96-14.31-90.3-1.76-2.33-3.33-4.4-4.6-6.2Z" fill="url(#b)"/><path d="M913.5 257.63c-3.8 3.8-8.89 5.62-14.82 6.23a260.75 260.75 0 0 0-156.54-156.54c.61-5.93 2.44-11.02 6.23-14.81 4.14-4.15 10.36-3.96 15.63-3.8 9.36.29 15.75.48 2.32-23.75-21.43-38.66-8.42-59.4 16.07-39.16 19.53 16.14 47.06.13 29.98-29.98-17.02-29.98-15.16-43-7.58-50.59 11.64-11.63 54.05 11.53 76.28 23.67l1.27.69c14.33 7.82 61.61-39.49 70.7-48.8 1.58-1.6 4.76-1 7.1 1.35L1133-34.1a8.08 8.08 0 0 1 1.93 3H1150c50.4 19.6 64.61 83.6 51.5 105.1-12.5 20.5-35.9 24.7-81.5 5.5-45.19-19.03-66.24-3.61-77 7-6.59 6.5-13 22.5-6.59 37.16l.69 1.27c12.14 22.23 35.3 64.64 23.67 76.28-7.59 7.58-20.61 9.44-50.59-7.58-30.11-17.08-46.12 10.45-29.98 29.98 20.24 24.5-.5 37.5-39.16 16.07-24.23-13.43-24.04-7.04-23.75 2.31.16 5.28.35 11.5-3.8 15.64Z" fill="url(#c)"/><mask id="d" style="mask-type:alpha" maskUnits="userSpaceOnUse" x="8" y="-81" width="1199" height="1079"><path d="M380.73 441.1c-24.56-34.68-10.4-64.13 13.66-74.8 7.16 132.21 113.1 238.15 245.3 245.31-10.66 24.06-40.1 38.22-74.78 13.66a276.35 276.35 0 0 1-6.2-4.6c-20.34-15.32-59.66-44.95-90.3-14.3-21.2 21.2-23.56 49.37-25.82 76.54-2.12 25.33-4.16 49.79-21.31 66.94-7.16 7.15-15.57 9.16-22.7 10.85-12.65 3.01-21.29 5.07-11.79 33.23 15.16 44.93-10.1 77.92-36.14 59.23-20.76-14.91-64.12 16.93-51.77 51.77 12.3 34.69 5.04 53.12-8.06 66.22-20.09 20.1-69.5 3.93-95.4-4.54l-1.47-.49c-16.7-5.45-35.1 12.99-50.9 28.99-2.72 2.75-6.83 3.08-9.18.74L10.16 872.13c-2.34-2.35-2.01-6.46.75-9.18 16-15.79 34.43-34.2 28.98-50.9l-.48-1.48c-8.48-25.89-24.64-75.3-4.55-95.4 13.1-13.1 31.53-20.36 66.22-8.05 34.84 12.35 66.68-31.01 51.77-51.77-18.7-26.03 14.3-51.3 59.23-36.14 28.16 9.5 30.22.87 33.23-11.79 1.7-7.13 3.7-15.54 10.85-22.7 17.15-17.15 41.61-19.19 66.94-21.3 27.17-2.27 55.35-4.63 76.55-25.83 30.64-30.64 1.01-69.96-14.31-90.3-1.76-2.33-3.33-4.4-4.6-6.2ZM913.5 257.63c-3.8 3.8-8.89 5.62-14.82 6.23a260.75 260.75 0 0 0-156.54-156.54c.61-5.93 2.44-11.02 6.23-14.81 4.14-4.15 10.36-3.96 15.63-3.8 9.36.29 15.75.48 2.32-23.75-21.43-38.66-8.42-59.4 16.07-39.16 19.53 16.14 47.06.13 29.98-29.98-17.02-29.98-15.16-43-7.58-50.59 11.64-11.63 54.05 11.53 76.28 23.67l1.27.69c14.33 7.82 61.61-39.49 70.7-48.8 1.58-1.6 4.76-1 7.1 1.35L1133-34.1a8.08 8.08 0 0 1 1.93 3H1150c50.4 19.6 64.61 83.6 51.5 105.1-12.5 20.5-35.9 24.7-81.5 5.5-45.19-19.03-66.24-3.61-77 7-6.59 6.5-13 22.5-6.59 37.16l.69 1.27c12.14 22.23 35.3 64.64 23.67 76.28-7.59 7.58-20.61 9.44-50.59-7.58-30.11-17.08-46.12 10.45-29.98 29.98 20.24 24.5-.5 37.5-39.16 16.07-24.23-13.43-24.04-7.04-23.75 2.31.16 5.28.35 11.5-3.8 15.64Z" fill="#C4C4C4"/></mask><g mask="url(#d)"><g filter="url(#e)"><circle cx="688.5" cy="318.5" r="248.5" fill="#0575F6"/></g><circle opacity=".4" cx="804.5" cy="111.5" r="32.5" fill="#0D5984"/><circle opacity=".3" cx="922.5" cy="218.5" r="53.5" fill="#0D844A"/><path d="M669.1 402.79c19.31 36.14 1.57 76.78-3.25 87.75-6.32 14.62-16.5 25.14-25.46 31.87l628.16-470.77a6 6 0 0 0 1.2-8.4L1184.28-70.8a5.95 5.95 0 0 0-8.38-1.16c-16.49 12.64-35.81 27.38-55.94 12.81-30.45-22.04-91.47-66.84-112.81-50.85-13.64 10.23-18.3 17.79 0 66.51 18.39 48.93-28.13 68.48-53.92 40.42-67.07-68.23-113.02-32.1-97.82-7.63 34.52 55.57 46.01 72.72 18.6 92.19-73.86 52.47 12.68 147.52-29.98 179.5-31.27 23.43-58.14-6.5-82.44-25.8-61.3-48.65-79.89-3.6-67.89 26.76 10.22 25.85 16.5 42.88-1.51 56.38-23.45 17.58-47.22 39.29-23.09 84.47Z" fill="url(#f)"/><path d="M726.9 179.23c1.53 29.18-22.22 50.05-28.64 55.67-8.51 7.52-18.27 11.23-26.09 12.87l546.27-113.48a6 6 0 0 0 4.65-7.1l-19.96-96.11a5.95 5.95 0 0 0-7.09-4.6c-14.08 3.05-30.05 5.86-38.3-9.03-12.99-23.44-38.83-70.83-57.44-66.96-11.91 2.47-21.86 13.18-24.78 50.18-2.94 37.15-38.89 35.7-47.05 9.77-22.64-64.34-58.59-62.16-56.18-41.77 5.48 46.32 7.7 60.87-15.88 65.14-63.56 11.53-36.45 99.07-73.67 106.8-27.28 5.67-35.57-21.79-45.42-41.6-24.84-49.95-50.47-26.49-51.92-3.26-1.23 19.78-2.31 32.67-18.03 35.94-20.46 4.25-42.37 11.07-40.46 47.54Z" fill="url(#g)"/><path opacity=".5" d="M481.3 562.49c20.25 12.6 44.54 3.85 51.1 1.47a46.74 46.74 0 0 0 19.48-13.58L256.03 895.4a6 6 0 0 1-8.46.65l-59.18-50.75a5.95 5.95 0 0 1-.61-8.42c7.52-8.68 15.1-18.71 7.93-30.13-11.64-18.52-35.33-55.69-25.23-67.47 6.47-7.54 18.05-10.43 45.65 2.07 27.73 12.55 40.86-13.73 25.54-29.79-37.07-41.56-21.33-66.4-7.7-56.64 30.96 22.18 40.48 29.51 52.84 14.33 33.3-40.9 85.21 13.01 105.42-10.55 14.8-17.27-1.56-34.03-11.84-48.88-25.92-37.47.97-46.54 18.15-38.41 14.62 6.92 24.27 11.22 32.8 1.27 11.11-12.95 24.63-25.93 49.96-10.18Z" fill="url(#h)"/><circle cx="804" cy="81" r="39" transform="rotate(-45 804 81)" fill="url(#i)"/><path fill-rule="evenodd" clip-rule="evenodd" d="m805.04 75.86-.24-.25-1-1c-3.34 3.35-6.16 7.6-2.25 11.52 1.99 1.98 4.37 2.3 6.15.51 1.3-1.3 1.67-3.26 1.11-5.29-.65-2.38-2.08-3.81-3.76-5.5Zm15.63 6.3Zm-.98 1.2c.52-.17.95-.63.98-1.2h.03c.1-1.75.33-4.88.5-6.6.06-.7-.5-1.13-1.22-1.24a49.8 49.8 0 0 0-.64-.1c-1.76-.25-3.44-.5-5.36-2.42l-7.17-7.16-.72-.73c-2.74-2.77-5.23-5.3-9.22-5.14-3.47.08-7 2.43-9.26 4.68-4.4 4.4-7.68 10.94-3.31 17.38.47.68 1.19.57 1.65.27l4.97-4c.4-.44.3-1.16-.04-1.65-1.48-2.25-.8-4.72.96-6.48.95-.95 2.38-1.68 3.8-1.4 1.42.27 2.54 1.4 3.54 2.42l.34.35.6.6c-.38.47-.8.97-1.21 1.5-2.19 2.67-4.71 5.76-5.9 8.8a11.05 11.05 0 0 0 2.58 12.44c4.78 4.78 10.2 4.13 14.1.24 3.29-3.3 4.31-5.86 4.28-10.97.32.05.62.1.9.16 1.48.28 2.46.47 4.82.25Zm-23.05 22.32c9.23-2.27 23.51-5.77 30.99-26.65.35-.87 1.2-.87 1.37.5.16 1.38-.27 10.68-8.45 18.86-8.17 8.17-19.98 8.89-24.2 8.5-1.12-.08-.78-.95-.2-1.09l.5-.12Zm28.78-29.78c1.09-1.4 3.15-3.27 4.04-3.15.67.08 2.08 2.1 2.82 3.83.72 1.73.83 3.35.75 4.1-.08.75-.52.93-.8.2-.27-.73-2.11-5.1-3.27-5.26-1.07-.14-2.96 2.19-3.83 3.27l-.18.22-.46.56c-.37.47-.47.6-.66.53-.62-.3.5-2.91 1.59-4.3Z" fill="url(#j)"/><circle cx="920.74" cy="191.74" r="60" transform="rotate(25 920.74 191.74)" fill="url(#k)"/><path d="M942.13 197.23c2.64-5.72 7.23-8.83 13.94-9.57-.98-5.55-4.32-9.91-9.94-13.09-5.32-3-13.06-2.16-15.27-3.2-2.34-1.08-6.26-6.65-10.46-8.6-8.75-3.91-21.14-1.43-27.58 12.38a42.81 42.81 0 0 0-3.65 13.68c-.67 6.64-.01 24 7.6 27.26 3.96 1.74 7.98.34 13.09 2.72 4.94 2.3 6.21 6.29 10.58 8.33 7.61 3.41 20.05-6.29 24.62-11.13-7.91-9.5-3.06-18.48-2.93-18.78Zm3.12-29.66c6.6-3.06 8.35-7.84 9-9.54-3.86-1.53-9.29-1.22-13.1.5-4.16 1.81-7.55 4.88-9.2 9.34 3.9 2.2 8.58 1.84 13.3-.3Z" fill="url(#l)"/><circle opacity=".2" cx="919" cy="82" r="14" fill="#0D844A"/><circle cx="927" cy="67" r="21" fill="url(#m)"/><path fill-rule="evenodd" clip-rule="evenodd" d="M939.85 71.7a11.38 11.38 0 0 0-.48-11.66l1.39-1.47a12.59 12.59 0 0 1-.16 13.12l-.75.02Zm-19.83-4.84a7.31 7.31 0 0 1 7.22-7.16 7.3 7.3 0 0 1 7.58 7.02 7.3 7.3 0 0 1-7.21 7.4c-2.03.06-3.9-.7-5.27-1.96l-1.08 1.08a11.3 11.3 0 0 1-.42-16.25c3.6-3.7 9.12-4.54 13.6-2.48l.06.07.57-.63a14.87 14.87 0 0 0-18 2.54 14.2 14.2 0 0 0 .57 20.46l1.07-1.1A11.4 11.4 0 0 0 927 79c6.42-.17 11.5-5.38 11.34-11.65a11.17 11.17 0 0 0-3.62-7.94l.75-.77a9.88 9.88 0 0 0-13.54.32 9.26 9.26 0 0 0-2.67 7.93l.76-.03Z" fill="url(#n)"/></g><mask id="o" style="mask-type:alpha" maskUnits="userSpaceOnUse" x="394" y="92" width="520" height="520"><path d="M914 352c0 143.6-116.4 260-260 260S394 495.6 394 352 510.4 92 654 92s260 116.4 260 260Z" fill="#C4C4C4"/></mask><g mask="url(#o)"><g filter="url(#p)"><circle cx="688.5" cy="318.5" r="248.5" fill="#0575F6"/></g><circle opacity=".4" cx="804.5" cy="111.5" r="32.5" fill="#0D5984"/><circle opacity=".3" cx="922.5" cy="218.5" r="53.5" fill="#0D844A"/><path d="M669.1 402.79c19.3 36.14 1.57 76.78-3.25 87.75-6.32 14.62-16.5 25.14-25.46 31.87l628.16-470.77a6 6 0 0 0 1.2-8.4L1184.28-70.8a5.95 5.95 0 0 0-8.38-1.16c-16.5 12.64-35.81 27.38-55.94 12.81-30.45-22.04-91.47-66.84-112.81-50.85-13.64 10.23-19.9 29.76-1.6 78.48 18.38 48.93-28.13 68.48-53.93 40.42-67.07-68.23-111.41-44.06-96.21-19.6 34.52 55.57 46.01 72.72 18.6 92.19-73.86 52.47 12.68 147.52-29.98 179.5-31.27 23.43-58.14-6.5-82.44-25.8-61.3-48.65-79.89-3.6-67.89 26.76 10.21 25.85 16.5 42.88-1.51 56.38-23.45 17.58-47.22 39.29-23.09 84.47Z" fill="url(#q)"/><path d="M720.82 184.34c1.4 27-20.57 46.32-26.52 51.52a52.97 52.97 0 0 1-24.14 11.9l505.13-104.92a6 6 0 0 0 4.66-7.1l-18.3-88.08a5.93 5.93 0 0 0-7.08-4.6c-12.93 2.79-27.47 5.18-35.02-8.45-12.02-21.7-35.93-65.55-53.16-61.97-11.02 2.29-20.23 12.2-22.93 46.44-2.72 34.38-35.99 33.03-43.54 9.04-20.96-59.55-54.23-57.53-52-38.65 5.07 42.86 7.13 56.33-14.7 60.29-58.83 10.66-33.74 91.68-68.18 98.84-25.25 5.25-32.91-20.17-42.03-38.5-23-46.23-46.72-24.52-48.05-3.02-1.14 18.3-2.15 30.24-16.7 33.26-18.93 3.93-39.21 10.25-37.44 44Z" fill="url(#r)"/><path opacity=".5" d="M481.3 562.49c20.25 12.6 44.54 3.85 51.1 1.47a46.74 46.74 0 0 0 19.48-13.58L256.03 895.4a6 6 0 0 1-8.46.65l-59.18-50.75a5.95 5.95 0 0 1-.61-8.42c7.52-8.68 15.1-18.71 7.93-30.13-11.64-18.52-35.33-55.69-25.23-67.47 6.47-7.54 18.05-10.43 45.65 2.07 27.73 12.55 40.86-13.73 25.54-29.79-37.07-41.56-21.33-66.4-7.7-56.64 30.96 22.18 40.48 29.51 52.84 14.33 33.3-40.9 85.21 13.01 105.42-10.55 14.8-17.27-1.56-34.03-11.84-48.88-25.92-37.47.96-46.54 18.15-38.41 14.62 6.92 24.27 11.22 32.8 1.27 11.11-12.95 24.63-25.93 49.96-10.18Z" fill="url(#s)"/><circle cx="804" cy="81" r="39" transform="rotate(-45 804 81)" fill="url(#t)"/><path fill-rule="evenodd" clip-rule="evenodd" d="m805.04 75.86-.24-.25-1-1c-3.34 3.35-6.16 7.6-2.25 11.52 1.99 1.98 4.37 2.3 6.15.51 1.3-1.3 1.67-3.26 1.11-5.29-.65-2.38-2.08-3.81-3.76-5.5Zm15.63 6.3Zm-.98 1.2c.52-.17.95-.63.98-1.2h.03c.1-1.75.33-4.88.5-6.6.06-.7-.5-1.13-1.22-1.24a49.8 49.8 0 0 0-.64-.1c-1.76-.25-3.44-.5-5.36-2.42l-7.17-7.16-.72-.73c-2.74-2.77-5.23-5.3-9.22-5.14-3.47.08-7 2.43-9.26 4.68-4.4 4.4-7.68 10.94-3.31 17.38.47.68 1.19.57 1.65.27l4.97-4c.4-.44.3-1.16-.04-1.65-1.48-2.25-.8-4.72.96-6.48.95-.95 2.38-1.68 3.8-1.4 1.42.27 2.54 1.4 3.54 2.42l.34.35.6.6c-.38.47-.8.97-1.21 1.5-2.19 2.67-4.71 5.76-5.9 8.8a11.05 11.05 0 0 0 2.58 12.44c4.78 4.78 10.2 4.13 14.1.24 3.29-3.3 4.31-5.86 4.28-10.97.32.05.62.1.9.16 1.48.28 2.46.47 4.82.25Zm-23.05 22.32c9.23-2.27 23.51-5.77 30.99-26.65.35-.87 1.2-.87 1.37.5.16 1.38-.27 10.68-8.45 18.86-8.17 8.17-19.98 8.89-24.2 8.5-1.12-.08-.78-.95-.2-1.09l.5-.12Zm28.78-29.78c1.09-1.4 3.15-3.27 4.04-3.15.67.08 2.08 2.1 2.82 3.83.72 1.73.83 3.35.75 4.1-.08.75-.52.93-.8.2-.27-.73-2.11-5.1-3.27-5.26-1.07-.14-2.96 2.19-3.83 3.27l-.18.22-.46.56c-.37.47-.47.6-.66.53-.62-.3.5-2.91 1.59-4.3Z" fill="url(#u)"/><circle cx="920.74" cy="191.74" r="60" transform="rotate(25 920.74 191.74)" fill="url(#v)"/><path d="M942.13 197.23c2.64-5.72 7.23-8.83 13.94-9.57-.98-5.55-4.32-9.91-9.94-13.09-5.32-3-13.06-2.16-15.27-3.2-2.34-1.08-6.26-6.65-10.46-8.6-8.75-3.91-21.14-1.43-27.58 12.38a42.81 42.81 0 0 0-3.65 13.68c-.67 6.64-.01 24 7.6 27.26 3.96 1.74 7.98.34 13.09 2.72 4.94 2.3 6.21 6.29 10.58 8.33 7.61 3.41 20.05-6.29 24.62-11.13-7.91-9.5-3.06-18.48-2.93-18.78Zm3.12-29.66c6.6-3.06 8.35-7.84 9-9.54-3.86-1.53-9.29-1.22-13.1.5-4.16 1.81-7.55 4.88-9.2 9.34 3.9 2.2 8.58 1.84 13.3-.3Z" fill="url(#w)"/><circle opacity=".2" cx="919" cy="82" r="14" fill="#0D844A"/></g><rect x="654" y="-15.7" width="520" height="974.37" rx="260" transform="rotate(45 654 -15.7)" fill="url(#x)"/><path fill-rule="evenodd" clip-rule="evenodd" d="m630.63 353-43.8-67.18L654 329.63l67.17-43.8-43.8 67.17 43.8 67.18L654 376.37l-67.17 43.8 43.8-67.17Z" fill="#052965"/><path fill-rule="evenodd" clip-rule="evenodd" d="M637.48 336.48 654 258l16.52 78.48L749 353l-78.48 16.52L654 448l-16.52-78.48L559 353l78.48-16.52Z" fill="#0E3C89"/><mask id="y" style="mask-type:alpha" maskUnits="userSpaceOnUse" x="559" y="258" width="190" height="190"><path fill-rule="evenodd" clip-rule="evenodd" d="M637.48 336.48 654 258l16.52 78.48L749 353l-78.48 16.52L654 448l-16.52-78.48L559 353l78.48-16.52Z" fill="#0E3C89"/></mask><g mask="url(#y)"><path d="M654 258v95l16.5-16.5L749 353h-95l16.5 16.5L654 448v-95l-16.5 16.5L559 353h95l-16.5-16.5L654 258Z" fill="url(#z)"/></g><circle cx="654" cy="352" r="18" fill="#101F54"/><path opacity=".5" fill-rule="evenodd" clip-rule="evenodd" d="M654 612c143.6 0 260-116.4 260-260S797.6 92 654 92 394 208.4 394 352s116.4 260 260 260Zm0-60c110.46 0 200-89.54 200-200s-89.54-200-200-200-200 89.54-200 200 89.54 200 200 200Z" fill="url(#A)"/><mask id="B" style="mask-type:alpha" maskUnits="userSpaceOnUse" x="394" y="92" width="520" height="520"><path fill-rule="evenodd" clip-rule="evenodd" d="M654 612c143.6 0 260-116.4 260-260S797.6 92 654 92 394 208.4 394 352s116.4 260 260 260Zm0-60c110.46 0 200-89.54 200-200s-89.54-200-200-200-200 89.54-200 200 89.54 200 200 200Z" fill="#C4C4C4"/></mask><g mask="url(#B)"><circle opacity=".3" cx="765.5" cy="271.5" r="167.5" fill="url(#C)"/><circle opacity=".3" cx="503.5" cy="563.5" r="167.5" fill="url(#D)"/><circle opacity=".3" cx="758.5" cy="158.5" r="78.5" fill="url(#E)"/></g><path fill-rule="evenodd" clip-rule="evenodd" d="M654 468c64.07 0 116-51.94 116-116s-51.93-116-116-116-116 51.94-116 116 51.93 116 116 116Zm0 29c80.08 0 145-64.92 145-145s-64.92-145-145-145-145 64.92-145 145 64.92 145 145 145Z" fill="url(#F)"/><circle cx="654" cy="352" r="126" stroke="url(#G)" stroke-width="48"/><path fill-rule="evenodd" clip-rule="evenodd" d="M654 527c96.65 0 175-78.35 175-175s-78.35-175-175-175-175 78.35-175 175 78.35 175 175 175Zm0-6c93.34 0 169-75.66 169-169s-75.66-169-169-169-169 75.66-169 169 75.66 169 169 169Z" fill="url(#H)"/><mask id="J" style="mask-type:alpha" maskUnits="userSpaceOnUse" x="479" y="177" width="350" height="350"><path fill-rule="evenodd" clip-rule="evenodd" d="M654 527c96.65 0 175-78.35 175-175s-78.35-175-175-175-175 78.35-175 175 78.35 175 175 175Zm0-6c93.34 0 169-75.66 169-169s-75.66-169-169-169-169 75.66-169 169 75.66 169 169 169Z" fill="url(#I)"/></mask><g mask="url(#J)"><path fill-rule="evenodd" clip-rule="evenodd" d="M664 152h-20v162.68l-81.34-140.89-17.32 10 81.34 140.89-140.88-81.34-10 17.32L616.67 342H454v20h162.68L475.8 443.34l10 17.32 140.88-81.34-81.34 140.89 17.32 10L644 389.32V552h20V389.32l81.34 140.89 17.32-10-81.34-140.89 140.88 81.34 10-17.32L691.33 362H854v-20H691.32l140.88-81.34-10-17.32-140.88 81.34 81.34-140.89-17.32-10L664 314.68V152Z" fill="url(#K)"/></g><path transform="rotate(45 760.07 245.93)" fill="url(#L)" d="M760.07 245.93h502.62v300H760.07z"/><path fill-rule="evenodd" clip-rule="evenodd" d="m632.79 330.79-84.86 127.28 127.28-84.86 84.86-127.28-127.28 84.86Zm8.48 33.94a18 18 0 1 0 25.46-25.46 18 18 0 0 0-25.46 25.46Z" fill="#0059BF"/><mask id="M" style="mask-type:alpha" maskUnits="userSpaceOnUse" x="547" y="245" width="214" height="214"><path fill-rule="evenodd" clip-rule="evenodd" d="m632.79 330.79-84.86 127.28 127.28-84.86 84.86-127.28-127.28 84.86Zm8.48 33.94a18 18 0 1 0 25.46-25.46 18 18 0 0 0-25.46 25.46Z" fill="#7DB7FA"/></mask><g mask="url(#M)"><path fill="#1CB96D" d="m738.85 224.72 42.43 42.42L675.2 373.21l-42.42-42.43z"/><path opacity=".5" transform="scale(-1 1) rotate(-45 -83.16 1040.45)" fill="url(#N)" d="M0 0h30v300H0z"/><circle cx="654" cy="352" r="24" transform="rotate(45 654 352)" fill="url(#O)"/><circle r="24" transform="scale(1 -1) rotate(-45 -97.9 -965.45)" fill="url(#P)" style="mix-blend-mode:overlay"/></g><circle cx="654" cy="352" r="15" transform="rotate(45 654 352)" fill="url(#Q)"/><path fill-rule="evenodd" clip-rule="evenodd" d="M624.92 281.79a5 5 0 1 0 3.82 9.23 5 5 0 0 0-3.82-9.23Zm60.87 133.9a5 5 0 1 0-9.24 3.82 5 5 0 0 0 9.24-3.83Zm-99.3-86.24a5 5 0 1 1 3.83-9.24 5 5 0 0 1-3.83 9.24Zm96.6-47.66a5 5 0 1 0-3.83 9.23 5 5 0 0 0 3.82-9.23Zm-60.88 133.9a5 5 0 1 1 9.24 3.82 5 5 0 0 1-9.24-3.83Zm92.77-38.43a5 5 0 1 0 9.24 3.82 5 5 0 0 0-9.24-3.82Zm9.24-54.34a5 5 0 1 0-9.24 3.82 5 5 0 0 0 9.24-3.82Zm-131.2 54.34a5 5 0 1 1-9.24 3.82 5 5 0 0 1 9.24-3.82Z" fill="#052965"/></g><defs><linearGradient id="b" x1="1205.99" y1="-80" x2="364.08" y2="854.56" gradientUnits="userSpaceOnUse"><stop stop-color="#55CA91"/><stop offset=".9" stop-color="#7DB7FA" stop-opacity=".56"/></linearGradient><linearGradient id="c" x1="1205.99" y1="-80" x2="364.08" y2="854.56" gradientUnits="userSpaceOnUse"><stop stop-color="#55CA91"/><stop offset=".9" stop-color="#7DB7FA" stop-opacity=".56"/></linearGradient><linearGradient id="f" x1="769.38" y1="35.26" x2="956.77" y2="285.3" gradientUnits="userSpaceOnUse"><stop stop-color="#8DDCB6"/><stop offset=".62" stop-color="#8DDCB6" stop-opacity="0"/></linearGradient><linearGradient id="g" x1="902.85" y1="-27.69" x2="948.16" y2="190.43" gradientUnits="userSpaceOnUse"><stop offset=".15" stop-color="#fff" stop-opacity=".62"/><stop offset=".75" stop-color="#fff" stop-opacity="0"/></linearGradient><linearGradient id="h" x1="263.96" y1="606.69" x2="402.05" y2="725.11" gradientUnits="userSpaceOnUse"><stop stop-color="#fff" stop-opacity=".62"/><stop offset=".75" stop-color="#fff" stop-opacity="0"/></linearGradient><linearGradient id="q" x1="769.38" y1="35.26" x2="956.77" y2="285.3" gradientUnits="userSpaceOnUse"><stop stop-color="#8DDCB6"/><stop offset=".62" stop-color="#8DDCB6" stop-opacity="0"/></linearGradient><linearGradient id="r" x1="883.65" y1="-7.16" x2="925.59" y2="194.71" gradientUnits="userSpaceOnUse"><stop offset=".15" stop-color="#fff" stop-opacity=".62"/><stop offset=".75" stop-color="#fff" stop-opacity="0"/></linearGradient><linearGradient id="s" x1="263.96" y1="606.69" x2="402.05" y2="725.11" gradientUnits="userSpaceOnUse"><stop stop-color="#fff" stop-opacity=".62"/><stop offset=".75" stop-color="#fff" stop-opacity="0"/></linearGradient><linearGradient id="x" x1="914" y1="-15.7" x2="914" y2="958.68" gradientUnits="userSpaceOnUse"><stop offset=".53" stop-color="#101F54"/><stop offset=".86" stop-color="#101F54" stop-opacity="0"/></linearGradient><linearGradient id="A" x1="654" y1="92" x2="654" y2="612" gradientUnits="userSpaceOnUse"><stop stop-color="#106BF3"/><stop offset=".95" stop-color="#09143E"/></linearGradient><linearGradient id="C" x1="917.5" y1="254.5" x2="669.5" y2="80.5" gradientUnits="userSpaceOnUse"><stop stop-color="#55CA91"/><stop offset=".62" stop-color="#0575F6" stop-opacity="0"/></linearGradient><linearGradient id="D" x1="503.5" y1="396" x2="503.5" y2="731" gradientUnits="userSpaceOnUse"><stop stop-color="#0575F6"/><stop offset=".57" stop-color="#1CB96D" stop-opacity="0"/></linearGradient><linearGradient id="E" x1="758.5" y1="80" x2="758.5" y2="237" gradientUnits="userSpaceOnUse"><stop offset=".08" stop-color="#0575F6"/><stop offset=".45" stop-color="#1CB96D" stop-opacity="0"/></linearGradient><linearGradient id="F" x1="582.23" y1="340.4" x2="712.73" y2="110.58" gradientUnits="userSpaceOnUse"><stop stop-color="#1C62CC"/><stop offset=".78" stop-color="#083A86" stop-opacity="0"/></linearGradient><linearGradient id="G" x1="654" y1="202" x2="654" y2="502" gradientUnits="userSpaceOnUse"><stop stop-color="#083A86" stop-opacity="0"/><stop offset="1" stop-color="#0E4BA8"/></linearGradient><linearGradient id="H" x1="654" y1="177" x2="654" y2="527" gradientUnits="userSpaceOnUse"><stop stop-color="#124293"/><stop offset="1" stop-color="#0D1B4C"/></linearGradient><linearGradient id="I" x1="654" y1="177" x2="654" y2="527" gradientUnits="userSpaceOnUse"><stop stop-color="#124293"/><stop offset="1" stop-color="#0D1B4C"/></linearGradient><linearGradient id="K" x1="654" y1="152" x2="654" y2="552" gradientUnits="userSpaceOnUse"><stop stop-color="#1E65D1"/><stop offset="1" stop-color="#1E65D1" stop-opacity="0"/></linearGradient><linearGradient id="L" x1="760.07" y1="395.93" x2="885.93" y2="395.93" gradientUnits="userSpaceOnUse"><stop stop-color="#101F54"/><stop offset="1" stop-color="#101F54" stop-opacity="0"/></linearGradient><linearGradient id="N" x1="-8" y1="150" x2="30" y2="150" gradientUnits="userSpaceOnUse"><stop stop-color="#fff"/><stop offset="1" stop-color="#fff" stop-opacity="0"/></linearGradient><linearGradient id="O" x1="654" y1="352" x2="654" y2="328" gradientUnits="userSpaceOnUse"><stop stop-color="#55CA91" stop-opacity="0"/><stop offset="1" stop-color="#086C3C"/></linearGradient><linearGradient id="P" x1="24" y1="24" x2="24" y2="-16.5" gradientUnits="userSpaceOnUse"><stop offset=".26" stop-color="#fff" stop-opacity="0"/><stop offset="1" stop-color="#fff"/></linearGradient><linearGradient id="Q" x1="654" y1="367" x2="654" y2="337" gradientUnits="userSpaceOnUse"><stop stop-color="#083A86" stop-opacity="0"/><stop offset="1" stop-color="#1C62CC"/></linearGradient><radialGradient id="i" cx="0" cy="0" r="1" gradientUnits="userSpaceOnUse" gradientTransform="rotate(100.21 377.42 374.66) scale(51.1478)"><stop stop-color="#6D85DC"/><stop offset=".71" stop-color="#1C2F73"/></radialGradient><radialGradient id="j" cx="0" cy="0" r="1" gradientUnits="userSpaceOnUse" gradientTransform="rotate(82.95 362.4 492.73) scale(35.3069 31.3753)"><stop stop-color="#fff" stop-opacity=".65"/><stop offset="1" stop-color="#BEDBFD" stop-opacity=".17"/></radialGradient><radialGradient id="k" cx="0" cy="0" r="1" gradientUnits="userSpaceOnUse" gradientTransform="rotate(100.21 394.5 477.81) scale(78.6889)"><stop stop-color="#BFFFE0"/><stop offset=".71" stop-color="#55CA91"/><stop offset="1" stop-color="#55CA91"/></radialGradient><radialGradient id="l" cx="0" cy="0" r="1" gradientUnits="userSpaceOnUse" gradientTransform="rotate(148.23 441.54 225.66) scale(53.3383 44.8041)"><stop stop-color="#14A761" stop-opacity=".13"/><stop offset="1" stop-color="#0C9353"/></radialGradient><radialGradient id="m" cx="0" cy="0" r="1" gradientUnits="userSpaceOnUse" gradientTransform="rotate(100.21 440.49 419.94) scale(27.5411)"><stop stop-color="#8DDCB6"/><stop offset=".96" stop-color="#10AA60"/></radialGradient><radialGradient id="n" cx="0" cy="0" r="1" gradientUnits="userSpaceOnUse" gradientTransform="matrix(-13.35688 15.65992 -14.16837 -12.0847 932.68 63.34)"><stop stop-color="#14A761" stop-opacity=".13"/><stop offset="1" stop-color="#098C4E"/></radialGradient><radialGradient id="t" cx="0" cy="0" r="1" gradientUnits="userSpaceOnUse" gradientTransform="rotate(100.21 377.42 374.66) scale(51.1478)"><stop stop-color="#6D85DC"/><stop offset=".71" stop-color="#1C2F73"/></radialGradient><radialGradient id="u" cx="0" cy="0" r="1" gradientUnits="userSpaceOnUse" gradientTransform="rotate(82.95 362.4 492.73) scale(35.3069 31.3753)"><stop stop-color="#fff" stop-opacity=".65"/><stop offset="1" stop-color="#BEDBFD" stop-opacity=".17"/></radialGradient><radialGradient id="v" cx="0" cy="0" r="1" gradientUnits="userSpaceOnUse" gradientTransform="rotate(100.21 394.5 477.81) scale(78.6889)"><stop stop-color="#BFFFE0"/><stop offset=".71" stop-color="#55CA91"/><stop offset="1" stop-color="#55CA91"/></radialGradient><radialGradient id="w" cx="0" cy="0" r="1" gradientUnits="userSpaceOnUse" gradientTransform="rotate(148.23 441.54 225.66) scale(53.3383 44.8041)"><stop stop-color="#14A761" stop-opacity=".13"/><stop offset="1" stop-color="#0C9353"/></radialGradient><radialGradient id="z" cx="0" cy="0" r="1" gradientUnits="userSpaceOnUse" gradientTransform="matrix(0 95 -95 0 654 353)"><stop stop-color="#124FAD"/><stop offset="1" stop-color="#2875EB" stop-opacity="0"/></radialGradient><filter id="e" x="240" y="-130" width="897" height="897" filterUnits="userSpaceOnUse" color-interpolation-filters="sRGB"><feFlood flood-opacity="0" result="BackgroundImageFix"/><feBlend in="SourceGraphic" in2="BackgroundImageFix" result="shape"/><feGaussianBlur stdDeviation="100" result="effect1_foregroundBlur_745_3905"/></filter><filter id="p" x="240" y="-130" width="897" height="897" filterUnits="userSpaceOnUse" color-interpolation-filters="sRGB"><feFlood flood-opacity="0" result="BackgroundImageFix"/><feBlend in="SourceGraphic" in2="BackgroundImageFix" result="shape"/><feGaussianBlur stdDeviation="100" result="effect1_foregroundBlur_745_3905"/></filter></defs></svg>