<svg width="19" height="18" viewBox="0 0 19 18" fill="none" xmlns="http://www.w3.org/2000/svg">
<path d="M7.60244 11.4599C7.45994 11.4599 7.31744 11.4074 7.20494 11.2949C6.58994 10.6799 6.25244 9.86244 6.25244 8.99994C6.25244 7.20744 7.70744 5.75244 9.49994 5.75244C10.3624 5.75244 11.1799 6.08994 11.7949 6.70494C11.8999 6.80994 11.9599 6.95244 11.9599 7.10244C11.9599 7.25244 11.8999 7.39494 11.7949 7.49994L7.99994 11.2949C7.88744 11.4074 7.74494 11.4599 7.60244 11.4599ZM9.49994 6.87744C8.32994 6.87744 7.37744 7.82994 7.37744 8.99994C7.37744 9.37494 7.47494 9.73494 7.65494 10.0499L10.5499 7.15494C10.2349 6.97494 9.87494 6.87744 9.49994 6.87744Z" fill="#858D9D"/>
<path d="M4.7 13.8825C4.5725 13.8825 4.4375 13.8375 4.3325 13.7475C3.53 13.065 2.81 12.225 2.195 11.25C1.4 10.0125 1.4 7.99499 2.195 6.74999C4.025 3.88499 6.6875 2.23499 9.5 2.23499C11.15 2.23499 12.7775 2.80499 14.2025 3.87749C14.45 4.06499 14.5025 4.41749 14.315 4.66499C14.1275 4.91249 13.775 4.96499 13.5275 4.77749C12.2975 3.84749 10.9025 3.35999 9.5 3.35999C7.0775 3.35999 4.76 4.81499 3.14 7.35749C2.5775 8.23499 2.5775 9.76499 3.14 10.6425C3.7025 11.52 4.3475 12.2775 5.06 12.8925C5.2925 13.095 5.3225 13.4475 5.12 13.6875C5.015 13.815 4.8575 13.8825 4.7 13.8825Z" fill="#858D9D"/>
<path d="M9.50005 15.765C8.50255 15.765 7.52755 15.5625 6.59005 15.165C6.30505 15.045 6.17005 14.715 6.29005 14.43C6.41005 14.145 6.74005 14.01 7.02505 14.13C7.82005 14.4675 8.65255 14.64 9.49255 14.64C11.915 14.64 14.2325 13.185 15.8525 10.6425C16.415 9.765 16.415 8.235 15.8525 7.3575C15.62 6.99 15.365 6.6375 15.095 6.3075C14.9 6.0675 14.9375 5.715 15.1775 5.5125C15.4175 5.3175 15.77 5.3475 15.9725 5.595C16.265 5.955 16.55 6.345 16.805 6.75C17.6 7.9875 17.6 10.005 16.805 11.25C14.975 14.115 12.3125 15.765 9.50005 15.765Z" fill="#858D9D"/>
<path d="M10.0176 12.2025C9.75506 12.2025 9.51506 12.015 9.46256 11.745C9.40256 11.4375 9.60506 11.145 9.91256 11.0925C10.7376 10.9425 11.4276 10.2525 11.5776 9.42751C11.6376 9.12001 11.9301 8.92501 12.2376 8.97751C12.5451 9.03751 12.7476 9.33002 12.6876 9.63752C12.4476 10.935 11.4126 11.9625 10.1226 12.2025C10.0851 12.195 10.0551 12.2025 10.0176 12.2025Z" fill="#858D9D"/>
<path d="M1.99996 17.0625C1.85746 17.0625 1.71496 17.01 1.60246 16.8975C1.38496 16.68 1.38496 16.32 1.60246 16.1025L7.20496 10.5C7.42246 10.2825 7.78246 10.2825 7.99996 10.5C8.21746 10.7175 8.21746 11.0775 7.99996 11.295L2.39746 16.8975C2.28496 17.01 2.14246 17.0625 1.99996 17.0625Z" fill="#858D9D"/>
<path d="M11.3975 7.66496C11.255 7.66496 11.1125 7.61246 11 7.49996C10.7825 7.28246 10.7825 6.92246 11 6.70496L16.6025 1.10246C16.82 0.884956 17.18 0.884956 17.3975 1.10246C17.615 1.31996 17.615 1.67996 17.3975 1.89746L11.795 7.49996C11.6825 7.61246 11.54 7.66496 11.3975 7.66496Z" fill="#858D9D"/>
</svg>
