<svg width="19" height="18" viewBox="0 0 19 18" fill="none" xmlns="http://www.w3.org/2000/svg">
<path d="M9.49994 12.2474C7.70744 12.2474 6.25244 10.7924 6.25244 8.99994C6.25244 7.20744 7.70744 5.75244 9.49994 5.75244C11.2924 5.75244 12.7474 7.20744 12.7474 8.99994C12.7474 10.7924 11.2924 12.2474 9.49994 12.2474ZM9.49994 6.87744C8.32994 6.87744 7.37744 7.82994 7.37744 8.99994C7.37744 10.1699 8.32994 11.1224 9.49994 11.1224C10.6699 11.1224 11.6224 10.1699 11.6224 8.99994C11.6224 7.82994 10.6699 6.87744 9.49994 6.87744Z" fill="#858D9D"/>
<path d="M9.50006 15.765C6.68006 15.765 4.01756 14.115 2.18756 11.25C1.39256 10.0125 1.39256 7.99499 2.18756 6.74999C4.02506 3.88499 6.68756 2.23499 9.50006 2.23499C12.3126 2.23499 14.9751 3.88499 16.8051 6.74999C17.6001 7.98749 17.6001 10.005 16.8051 11.25C14.9751 14.115 12.3126 15.765 9.50006 15.765ZM9.50006 3.35999C7.07756 3.35999 4.76006 4.81499 3.14006 7.35749C2.57756 8.23499 2.57756 9.76498 3.14006 10.6425C4.76006 13.185 7.07756 14.64 9.50006 14.64C11.9226 14.64 14.2401 13.185 15.8601 10.6425C16.4226 9.76498 16.4226 8.23499 15.8601 7.35749C14.2401 4.81499 11.9226 3.35999 9.50006 3.35999Z" fill="#858D9D"/>
</svg>
