<svg width="202" height="53" viewBox="0 0 202 53" fill="none" xmlns="http://www.w3.org/2000/svg">
<path d="M26.5992 11.6997V39.3997H19.5492V35.8997C18.6492 37.0997 17.4659 38.0497 15.9992 38.7497C14.5659 39.4164 12.9992 39.7497 11.2992 39.7497C9.13255 39.7497 7.21589 39.2997 5.54922 38.3997C3.88255 37.4664 2.56589 36.1164 1.59922 34.3497C0.665885 32.5497 0.199219 30.4164 0.199219 27.9497V5.69973L7.19922 0.0634766V5.69973V26.9497C7.19922 29.1497 7.74922 30.8497 8.84922 32.0497C9.94922 33.2164 11.4492 33.7997 13.3492 33.7997C15.2826 33.7997 16.7992 33.2164 17.8992 32.0497C18.9992 30.8497 19.5492 29.1497 19.5492 26.9497V11.6997H26.5992Z" fill="#00FFB7"/>
<path d="M42.5059 15.6997C43.4059 14.4331 44.6392 13.3831 46.2059 12.5497C47.8059 11.6831 49.6225 11.2497 51.6559 11.2497C54.0225 11.2497 56.1559 11.8331 58.0559 12.9997C59.9892 14.1664 61.5059 15.8331 62.6059 17.9997C63.7392 20.1331 64.3059 22.6164 64.3059 25.4497C64.3059 28.2831 63.7392 30.7997 62.6059 32.9997C61.5059 35.1664 59.9892 36.8497 58.0559 38.0497C56.1559 39.2497 54.0225 39.8497 51.6559 39.8497C49.6225 39.8497 47.8225 39.4331 46.2559 38.5997C44.7225 37.7664 43.4725 36.7164 42.5059 35.4497V52.5997H35.5059V11.6997H42.5059V15.6997ZM57.1559 25.4497C57.1559 23.7831 56.8059 22.3497 56.1059 21.1497C55.4392 19.9164 54.5392 18.9831 53.4059 18.3497C52.3059 17.7164 51.1059 17.3997 49.8059 17.3997C48.5392 17.3997 47.3392 17.7331 46.2059 18.3997C45.1059 19.0331 44.2059 19.9664 43.5059 21.1997C42.8392 22.4331 42.5059 23.8831 42.5059 25.5497C42.5059 27.2164 42.8392 28.6664 43.5059 29.8997C44.2059 31.1331 45.1059 32.0831 46.2059 32.7497C47.3392 33.3831 48.5392 33.6997 49.8059 33.6997C51.1059 33.6997 52.3059 33.3664 53.4059 32.6997C54.5392 32.0331 55.4392 31.0831 56.1059 29.8497C56.8059 28.6164 57.1559 27.1497 57.1559 25.4497Z" fill="white"/>
<path d="M79.5426 17.4497V30.8497C79.5426 31.7831 79.7592 32.4664 80.1926 32.8997C80.6592 33.2997 81.4259 33.4997 82.4926 33.4997H85.7426V39.3997H81.3426C75.4426 39.3997 72.4926 36.5331 72.4926 30.7997V17.4497H69.1926V11.6997H72.4926V4.84973H79.5426V11.6997H85.7426V17.4497H79.5426Z" fill="white"/>
<path d="M90.9773 25.5497C90.9773 22.6831 91.5607 20.1831 92.7273 18.0497C93.894 15.8831 95.5107 14.2164 97.5773 13.0497C99.644 11.8497 102.011 11.2497 104.677 11.2497C108.111 11.2497 110.944 12.1164 113.177 13.8497C115.444 15.5497 116.961 17.9497 117.727 21.0497H110.177C109.777 19.8497 109.094 18.9164 108.127 18.2497C107.194 17.5497 106.027 17.1997 104.627 17.1997C102.627 17.1997 101.044 17.9331 99.8773 19.3997C98.7107 20.8331 98.1273 22.8831 98.1273 25.5497C98.1273 28.1831 98.7107 30.2331 99.8773 31.6997C101.044 33.1331 102.627 33.8497 104.627 33.8497C107.461 33.8497 109.311 32.5831 110.177 30.0497H117.727C116.961 33.0497 115.444 35.4331 113.177 37.1997C110.911 38.9664 108.077 39.8497 104.677 39.8497C102.011 39.8497 99.644 39.2664 97.5773 38.0997C95.5107 36.8997 93.894 35.2331 92.7273 33.0997C91.5607 30.9331 90.9773 28.4164 90.9773 25.5497Z" fill="white"/>
<path d="M162.29 8.39974C161.057 8.39974 160.024 8.01641 159.19 7.24974C158.39 6.44974 157.99 5.4664 157.99 4.29973C157.99 3.13306 158.39 2.1664 159.19 1.39973C160.024 0.59973 161.057 0.199732 162.29 0.199732C163.524 0.199732 164.54 0.59973 165.34 1.39973C166.174 2.1664 166.59 3.13306 166.59 4.29973C166.59 5.4664 166.174 6.44974 165.34 7.24974C164.54 8.01641 163.524 8.39974 162.29 8.39974ZM165.74 11.6997V39.3997H158.74V11.6997H165.74Z" fill="white"/>
<path d="M190.006 11.2997C193.306 11.2997 195.973 12.3497 198.006 14.4497C200.04 16.5164 201.056 19.4164 201.056 23.1497V39.3997H194.056V24.0997C194.056 21.8997 193.506 20.2164 192.406 19.0497C191.306 17.8497 189.806 17.2497 187.906 17.2497C185.973 17.2497 184.44 17.8497 183.306 19.0497C182.206 20.2164 181.656 21.8997 181.656 24.0997V39.3997H174.656V11.6997H181.656V15.1497C182.59 13.9497 183.773 13.0164 185.206 12.3497C186.673 11.6497 188.273 11.2997 190.006 11.2997Z" fill="white"/>
<path d="M133.424 26.3347V26.3345C133.424 25.7281 133.543 25.1278 133.775 24.5676C134.007 24.0074 134.347 23.4984 134.775 23.0697C135.204 22.6409 135.713 22.3009 136.273 22.069C136.833 21.8372 137.433 21.7179 138.039 21.7179C139.193 21.7217 140.304 22.1579 141.153 22.9405C142.002 23.7235 142.526 24.7962 142.623 25.9469C142.719 27.0977 142.381 28.2429 141.675 29.1564C140.968 30.0699 139.945 30.6854 138.807 30.8814L138.065 31.0091L137.27 30.8759C135.089 30.5107 133.424 28.6154 133.424 26.3347ZM138.104 38.6001L139.06 38.5202C142.205 38.2572 145.127 36.7887 147.215 34.4217C149.303 32.0547 150.395 28.9724 150.264 25.8189C150.132 22.6654 148.787 19.6848 146.509 17.5C144.231 15.3153 141.197 14.0954 138.041 14.0954C134.884 14.0954 131.85 15.3153 129.572 17.5C127.294 19.6848 125.949 22.6654 125.817 25.8189C125.686 28.9724 126.778 32.0547 128.866 34.4217C130.954 36.7887 133.876 38.2572 137.021 38.5202L137.977 38.6001V38.6108L138.041 38.6055L138.104 38.6108V38.6001ZM153.016 26.3315C153.016 34.6023 146.311 41.3066 138.041 41.3066C129.77 41.3066 123.065 34.6023 123.065 26.3315C123.065 18.0608 129.77 11.3564 138.041 11.3564C146.311 11.3564 153.016 18.0608 153.016 26.3315Z" fill="#00FFB7" stroke="#00FFB7" stroke-width="2"/>
</svg>
