<svg width="401" height="129" viewBox="0 0 401 129" fill="none" xmlns="http://www.w3.org/2000/svg">
<path d="M138.946 8.87995H161.747V12.2874H138.946C134.745 12.2874 131.327 15.639 131.327 19.7727V35.1342C131.327 39.212 134.745 42.5636 138.946 42.5636H161.747V46.0269H138.946C132.84 46.0269 127.91 41.1112 127.91 35.1342V19.7727C127.91 13.7398 132.84 8.87995 138.946 8.87995ZM161.747 29.1572H136.986V25.6938H161.747V29.1572Z" fill="black"/>
<path d="M189.657 8.87995C195.763 8.87995 200.693 13.4605 200.693 19.0465V35.7486C200.693 41.3346 195.763 45.9152 189.657 45.9152H167.136V8.87995H189.657ZM197.276 35.7486V19.0465C197.276 15.3597 193.859 12.3433 189.657 12.3433H170.554V42.4518H189.657C193.859 42.4518 197.276 39.4354 197.276 35.7486Z" fill="black"/>
<path d="M257.125 8.99167H279.926V12.455H257.125C252.923 12.455 249.506 15.8066 249.506 19.8844V22.5098H246.033V19.8844C246.033 13.9074 251.019 8.99167 257.125 8.99167ZM249.506 35.2459C249.506 39.3795 252.923 42.6753 257.125 42.6753H279.926V46.1386H257.125C251.019 46.1386 246.033 41.2788 246.033 35.2459V33.626H249.506V35.2459ZM218.022 25.8614H279.926V29.2689H239.758V46.0827H217.125C211.019 46.0827 206.089 41.2229 206.089 35.19V19.8844C206.089 13.8515 211.019 8.99167 217.125 8.99167H239.926V12.455H217.125C212.924 12.455 209.506 15.7507 209.506 19.8844V35.19C209.506 39.3237 212.924 42.6194 217.125 42.6194H236.285V29.2689H218.022V25.8614Z" fill="black"/>
<path d="M175.711 129C170.179 129 165.242 127.743 160.9 125.229C156.628 122.646 153.232 119.155 150.711 114.756C148.26 110.357 147.034 105.399 147.034 99.883C147.034 94.2969 148.225 89.3045 150.606 84.9055C152.987 80.5065 156.243 77.0502 160.375 74.5364C164.506 71.9529 169.268 70.6612 174.66 70.6612C178.932 70.6612 182.853 71.4991 186.425 73.1749C190.066 74.8507 193.253 77.3644 195.984 80.716C196.754 81.5539 197.034 82.4616 196.824 83.4391C196.614 84.3469 196.019 85.1499 195.038 85.8481C194.268 86.4067 193.393 86.6162 192.412 86.4765C191.502 86.2671 190.697 85.7434 189.996 84.9055C185.935 80.297 180.823 77.9928 174.66 77.9928C170.739 77.9928 167.272 78.9354 164.261 80.8207C161.32 82.706 159.009 85.2895 157.328 88.5713C155.718 91.8531 154.913 95.6236 154.913 99.883C154.913 104.072 155.788 107.808 157.539 111.09C159.289 114.372 161.74 116.955 164.891 118.84C168.043 120.726 171.649 121.668 175.711 121.668C178.442 121.668 180.928 121.319 183.169 120.621C185.48 119.853 187.51 118.701 189.261 117.165C190.101 116.466 190.977 116.082 191.887 116.013C192.797 115.943 193.638 116.222 194.408 116.85C195.248 117.619 195.704 118.491 195.774 119.469C195.914 120.446 195.598 121.284 194.828 121.983C189.716 126.661 183.344 129 175.711 129Z" fill="black"/>
<path d="M228.728 129C223.196 129 218.259 127.743 213.917 125.229C209.645 122.646 206.249 119.155 203.728 114.756C201.277 110.357 200.051 105.399 200.051 99.883C200.051 94.2969 201.242 89.3045 203.623 84.9055C206.004 80.5065 209.26 77.0502 213.392 74.5364C217.523 71.9529 222.285 70.6612 227.677 70.6612C231.949 70.6612 235.871 71.4991 239.442 73.1749C243.083 74.8507 246.27 77.3644 249.001 80.716C249.771 81.5539 250.051 82.4616 249.841 83.4391C249.631 84.3469 249.036 85.1499 248.055 85.8481C247.285 86.4067 246.41 86.6162 245.429 86.4765C244.519 86.2671 243.714 85.7434 243.013 84.9055C238.952 80.297 233.84 77.9928 227.677 77.9928C223.756 77.9928 220.289 78.9354 217.278 80.8207C214.337 82.706 212.026 85.2895 210.346 88.5713C208.735 91.8531 207.93 95.6236 207.93 99.883C207.93 104.072 208.805 107.808 210.556 111.09C212.306 114.372 214.757 116.955 217.908 118.84C221.06 120.726 224.666 121.668 228.728 121.668C231.459 121.668 233.945 121.319 236.186 120.621C238.497 119.853 240.527 118.701 242.278 117.165C243.118 116.466 243.994 116.082 244.904 116.013C245.814 115.943 246.655 116.222 247.425 116.85C248.265 117.619 248.721 118.491 248.791 119.469C248.931 120.446 248.615 121.284 247.845 121.983C242.733 126.661 236.361 129 228.728 129Z" fill="black"/>
<path d="M282.165 129C276.493 129 271.451 127.778 267.039 125.334C262.697 122.82 259.266 119.364 256.745 114.965C254.294 110.566 253.069 105.539 253.069 99.883C253.069 94.1573 254.224 89.1299 256.535 84.8007C258.916 80.4018 262.172 76.9454 266.304 74.4317C270.435 71.918 275.197 70.6612 280.589 70.6612C285.911 70.6612 290.533 71.8831 294.455 74.327C298.446 76.701 301.527 80.0177 303.698 84.277C305.869 88.5364 306.955 93.3892 306.955 98.8356C306.955 99.9528 306.604 100.86 305.904 101.559C305.204 102.187 304.294 102.501 303.173 102.501H258.531V95.7982H304.013L299.497 99.045C299.567 94.9952 298.831 91.3643 297.291 88.1523C295.75 84.9404 293.544 82.4267 290.673 80.6112C287.872 78.7958 284.511 77.8881 280.589 77.8881C276.598 77.8881 273.096 78.8307 270.085 80.716C267.074 82.6012 264.728 85.2197 263.047 88.5713C261.437 91.8531 260.631 95.6236 260.631 99.883C260.631 104.142 261.542 107.913 263.363 111.195C265.253 114.476 267.809 117.06 271.031 118.945C274.252 120.83 277.963 121.773 282.165 121.773C284.686 121.773 287.207 121.354 289.728 120.516C292.319 119.609 294.385 118.491 295.925 117.165C296.696 116.536 297.571 116.222 298.551 116.222C299.532 116.152 300.372 116.397 301.072 116.955C301.983 117.793 302.438 118.701 302.438 119.678C302.508 120.656 302.123 121.494 301.282 122.192C298.971 124.147 296.03 125.788 292.459 127.115C288.888 128.372 285.456 129 282.165 129Z" fill="black"/>
<path d="M331.246 129C327.115 129 323.018 128.302 318.956 126.905C314.895 125.509 311.603 123.414 309.083 120.621C308.312 119.783 307.997 118.84 308.137 117.793C308.277 116.746 308.802 115.838 309.713 115.07C310.693 114.372 311.709 114.092 312.759 114.232C313.809 114.372 314.685 114.826 315.385 115.594C317.066 117.549 319.271 119.05 322.003 120.097C324.804 121.145 327.885 121.668 331.246 121.668C336.428 121.668 340.175 120.796 342.486 119.05C344.796 117.234 345.987 115.07 346.057 112.556C346.057 110.042 344.866 107.983 342.486 106.377C340.105 104.701 336.183 103.409 330.721 102.501C323.648 101.384 318.466 99.4291 315.175 96.6361C311.884 93.8431 310.238 90.5264 310.238 86.686C310.238 83.1249 311.183 80.1574 313.074 77.7833C314.965 75.4093 317.486 73.6287 320.637 72.4417C323.788 71.2547 327.255 70.6612 331.036 70.6612C335.728 70.6612 339.754 71.4641 343.116 73.0701C346.547 74.6761 349.313 76.8407 351.414 79.5639C352.114 80.4716 352.394 81.4142 352.254 82.3918C352.114 83.3693 351.554 84.1723 350.574 84.8007C349.733 85.2895 348.753 85.4641 347.633 85.3244C346.582 85.1149 345.672 84.5913 344.902 83.7534C343.151 81.7284 341.12 80.2621 338.809 79.3544C336.498 78.3768 333.837 77.8881 330.826 77.8881C326.974 77.8881 323.893 78.691 321.582 80.297C319.271 81.8332 318.116 83.7883 318.116 86.1623C318.116 87.7683 318.536 89.1648 319.377 90.3518C320.287 91.5389 321.792 92.5862 323.893 93.494C326.064 94.4017 329.075 95.1698 332.927 95.7982C338.179 96.6361 342.311 97.8929 345.322 99.5687C348.403 101.175 350.574 103.095 351.834 105.329C353.165 107.494 353.83 109.868 353.83 112.451C353.83 115.733 352.85 118.631 350.889 121.145C348.998 123.589 346.337 125.509 342.906 126.905C339.544 128.302 335.658 129 331.246 129Z" fill="black"/>
<path d="M378.416 129C374.285 129 370.188 128.302 366.126 126.905C362.065 125.509 358.774 123.414 356.253 120.621C355.482 119.783 355.167 118.84 355.307 117.793C355.447 116.746 355.972 115.838 356.883 115.07C357.863 114.372 358.879 114.092 359.929 114.232C360.979 114.372 361.855 114.826 362.555 115.594C364.236 117.549 366.442 119.05 369.173 120.097C371.974 121.145 375.055 121.668 378.416 121.668C383.598 121.668 387.345 120.796 389.656 119.05C391.967 117.234 393.157 115.07 393.227 112.556C393.227 110.042 392.037 107.983 389.656 106.377C387.275 104.701 383.353 103.409 377.891 102.501C370.818 101.384 365.636 99.4291 362.345 96.6361C359.054 93.8431 357.408 90.5264 357.408 86.686C357.408 83.1249 358.353 80.1574 360.244 77.7833C362.135 75.4093 364.656 73.6287 367.807 72.4417C370.958 71.2547 374.425 70.6612 378.206 70.6612C382.898 70.6612 386.925 71.4641 390.286 73.0701C393.717 74.6761 396.483 76.8407 398.584 79.5639C399.284 80.4716 399.564 81.4142 399.424 82.3918C399.284 83.3693 398.724 84.1723 397.744 84.8007C396.903 85.2895 395.923 85.4641 394.803 85.3244C393.752 85.1149 392.842 84.5913 392.072 83.7534C390.321 81.7284 388.29 80.2621 385.979 79.3544C383.668 78.3768 381.007 77.8881 377.996 77.8881C374.145 77.8881 371.063 78.691 368.752 80.297C366.441 81.8332 365.286 83.7883 365.286 86.1623C365.286 87.7683 365.706 89.1648 366.547 90.3518C367.457 91.5389 368.962 92.5862 371.063 93.494C373.234 94.4017 376.245 95.1698 380.097 95.7982C385.349 96.6361 389.481 97.8929 392.492 99.5687C395.573 101.175 397.744 103.095 399.004 105.329C400.335 107.494 401 109.868 401 112.451C401 115.733 400.02 118.631 398.059 121.145C396.168 123.589 393.507 125.509 390.076 126.905C386.714 128.302 382.828 129 378.416 129Z" fill="black"/>
<path d="M140.837 128.988L99.4114 0L0 89.591L99.3922 56.0655L86.6488 118.123L140.837 128.988Z" fill="black"/>
</svg>
