<svg width="1279" height="335" viewBox="0 0 1279 335" fill="none" xmlns="http://www.w3.org/2000/svg">
<path d="M168.221 74.1218V250.417H123.351V228.141C117.623 235.779 110.092 241.825 100.757 246.28C91.6351 250.523 81.6641 252.644 70.8445 252.644C57.0549 252.644 44.8564 249.78 34.249 244.052C23.6416 238.112 15.2617 229.52 9.10944 218.276C3.16929 206.82 0.199219 193.243 0.199219 177.544V35.9351L44.7503 0.0634766V35.9351V171.18C44.7503 185.181 48.2508 196.001 55.2517 203.638C62.2525 211.063 71.7992 214.776 83.8917 214.776C96.1962 214.776 105.849 211.063 112.85 203.638C119.851 196.001 123.351 185.181 123.351 171.18V74.1218H168.221Z" fill="#0CC770"/>
<path d="M269.457 99.5796C275.185 91.518 283.035 84.8353 293.006 79.5316C303.189 74.0157 314.751 71.2578 327.692 71.2578C342.755 71.2578 356.332 74.9704 368.425 82.3956C380.729 89.8208 390.382 100.428 397.383 114.218C404.596 127.795 408.202 143.6 408.202 161.633C408.202 179.666 404.596 195.683 397.383 209.684C390.382 223.474 380.729 234.187 368.425 241.825C356.332 249.462 342.755 253.281 327.692 253.281C314.751 253.281 303.295 250.629 293.324 245.325C283.565 240.022 275.61 233.339 269.457 225.277V334.427H224.906V74.1218H269.457V99.5796ZM362.697 161.633C362.697 151.026 360.469 141.903 356.014 134.266C351.771 126.416 346.043 120.476 338.83 116.445C331.829 112.415 324.192 110.399 315.918 110.399C307.856 110.399 300.219 112.521 293.006 116.764C286.005 120.794 280.277 126.735 275.822 134.584C271.579 142.434 269.457 151.662 269.457 162.269C269.457 172.877 271.579 182.105 275.822 189.955C280.277 197.804 286.005 203.85 293.006 208.093C300.219 212.124 307.856 214.139 315.918 214.139C324.192 214.139 331.829 212.018 338.83 207.775C346.043 203.532 351.771 197.486 356.014 189.636C360.469 181.787 362.697 172.452 362.697 161.633Z" fill="white"/>
<path d="M505.176 110.717V196.001C505.176 201.941 506.555 206.29 509.312 209.048C512.283 211.594 517.162 212.867 523.951 212.867H544.635V250.417H516.632C479.081 250.417 460.306 232.172 460.306 195.683V110.717H439.304V74.1218H460.306V30.5253H505.176V74.1218H544.635V110.717H505.176Z" fill="white"/>
<path d="M577.951 162.269C577.951 144.025 581.664 128.114 589.089 114.536C596.514 100.746 606.804 90.139 619.957 82.7138C633.11 75.0765 648.173 71.2578 665.144 71.2578C686.996 71.2578 705.028 76.7737 719.242 87.8054C733.668 98.6249 743.321 113.9 748.2 133.629H700.149C697.603 125.992 693.254 120.052 687.102 115.809C681.162 111.354 673.736 109.126 664.826 109.126C652.097 109.126 642.02 113.794 634.595 123.128C627.17 132.25 623.457 145.298 623.457 162.269C623.457 179.029 627.17 192.076 634.595 201.411C642.02 210.533 652.097 215.094 664.826 215.094C682.859 215.094 694.633 207.033 700.149 190.909H748.2C743.321 210.003 733.668 225.171 719.242 236.415C704.816 247.659 686.783 253.281 665.144 253.281C648.173 253.281 633.11 249.568 619.957 242.143C606.804 234.506 596.514 223.898 589.089 210.321C581.664 196.531 577.951 180.514 577.951 162.269Z" fill="white"/>
<path d="M1031.82 53.1192C1023.97 53.1192 1017.39 50.6795 1012.09 45.8C1007 40.7085 1004.45 34.4501 1004.45 27.0249C1004.45 19.5997 1007 13.4474 1012.09 8.56798C1017.39 3.47643 1023.97 0.930664 1031.82 0.930664C1039.67 0.930664 1046.14 3.47643 1051.23 8.56798C1056.53 13.4474 1059.19 19.5997 1059.19 27.0249C1059.19 34.4501 1056.53 40.7085 1051.23 45.8C1046.14 50.6795 1039.67 53.1192 1031.82 53.1192ZM1053.78 74.1218V250.417H1009.22V74.1218H1053.78Z" fill="white"/>
<path d="M1208.22 71.576C1229.22 71.576 1246.19 78.2587 1259.13 91.624C1272.07 104.777 1278.54 123.234 1278.54 146.995V250.417H1233.99V153.041C1233.99 139.039 1230.49 128.326 1223.49 120.9C1216.49 113.263 1206.94 109.444 1194.85 109.444C1182.55 109.444 1172.79 113.263 1165.57 120.9C1158.57 128.326 1155.07 139.039 1155.07 153.041V250.417H1110.52V74.1218H1155.07V96.0791C1161.01 88.4418 1168.54 82.5017 1177.67 78.2587C1187 73.8036 1197.18 71.576 1208.22 71.576Z" fill="white"/>
<path d="M842.736 167.265V167.265C842.734 162.702 843.632 158.183 845.378 153.966C847.124 149.75 849.683 145.919 852.91 142.692C856.137 139.465 859.968 136.906 864.184 135.16C868.401 133.414 872.92 132.516 877.483 132.517C886.174 132.544 894.54 135.827 900.928 141.72C907.318 147.613 911.266 155.687 911.993 164.349C912.72 173.01 910.174 181.63 904.857 188.505C899.54 195.381 891.838 200.014 883.272 201.489L882.442 201.632V202.475V238.477V239.564L883.525 239.473C902.164 237.915 919.479 229.213 931.851 215.186C944.224 201.159 950.697 182.894 949.917 164.206C949.137 145.519 941.164 127.856 927.666 114.909C914.167 101.962 896.187 94.7333 877.484 94.7333C858.78 94.7333 840.8 101.962 827.301 114.909C813.803 127.856 805.831 145.519 805.051 164.206C804.271 182.894 810.743 201.159 823.116 215.186C835.489 229.213 852.804 237.915 871.442 239.473L872.526 239.564V238.477V202.444V201.598L871.691 201.458C855.285 198.71 842.736 184.458 842.736 167.265ZM978.156 167.245C978.156 222.847 933.085 267.918 877.484 267.918C821.882 267.918 776.811 222.847 776.811 167.245C776.811 111.644 821.882 66.5725 877.484 66.5725C933.085 66.5725 978.156 111.644 978.156 167.245Z" fill="#0CC770" stroke="#0CC770" stroke-width="2"/>
</svg>
