<svg width="1216" height="602" viewBox="0 0 1216 602" fill="none" xmlns="http://www.w3.org/2000/svg">
<g clip-path="url(#clip0_21835_230903)">
<path d="M118.961 40.321C119.076 40.275 119.133 40.233 119.133 40.201C119.133 40.001 119.053 40.113 118.961 40.321ZM408.135 377.825C408.135 377.825 402.687 376.69 402.45 376.009C402.225 375.331 392.906 367.154 392.692 367.382C392.449 367.604 388.815 363.733 388.359 364.882C387.914 366.016 380.863 366.016 380.863 366.016L373.363 364.186C373.363 364.186 370.191 366.473 370.867 365.552C371.549 364.645 371.093 359.197 370.867 360.112C370.642 361.01 359.5 355.337 359.5 355.337L355.629 358.744V354.427L349.736 350.798L350.423 346.025L347.676 343.753C347.676 343.753 347.234 344.432 347.006 343.981C346.778 343.53 345.186 334.445 345.186 334.445L336.543 327.4L326.1 326.944L316.55 321.707L314.504 316.945C314.504 316.945 309.048 314.457 309.048 313.772C309.048 313.094 307.473 313.55 307.005 313.313C306.563 313.094 306.791 310.827 306.791 310.827L304.272 308.769L303.374 308.159L301.152 307.486L299.791 305.587L304.224 303.557C303.725 303.717 293.153 305.248 293.153 305.248L292.132 307.286L287.186 304.738L278.836 304.222C278.836 304.222 272.86 301.844 273.032 301.165C273.211 300.481 271.16 297.927 271.16 297.927C271.16 297.927 269.797 301.165 269.455 301.505C269.118 301.844 264.862 305.422 264.862 305.422L265.19 310.881L262.298 307.802L264.349 304.906V300.823C264.349 300.302 266.904 299.118 266.904 299.118L265.88 296.912C265.88 296.912 262.82 297.761 262.82 298.274C262.82 298.787 258.729 301.165 258.729 301.165L253.78 303.036H251.566C251.566 303.036 249.356 306.605 248.828 306.785C248.323 306.959 248.506 310.2 248.506 310.2C248.506 310.2 243.037 316.318 242.695 315.64C242.353 314.962 236.574 310.2 236.574 310.2L229.742 311.038L225.828 313.091L221.053 309.852L217.308 304.062L217.659 297.251L219.698 289.744L220.548 284.815L215.434 281.057C215.434 281.057 205.039 281.91 205.039 281.4C205.039 280.898 199.405 281.579 199.582 281.057C199.745 280.553 201.627 277.317 201.627 276.798C201.627 276.285 202.997 272.373 202.997 272.373L205.213 267.949L208.108 259.447L209.806 256.536L201.291 256.029L196.173 258.07L193.278 266.594L178.787 270.509L175.21 267.786L175.05 268.468C175.21 267.618 170.615 261.645 170.615 261.645L168.396 253.309L174.015 236.443C173.847 236.776 174.198 230.128 174.198 230.128L192.431 218.211L199.411 219.231L201.114 220.933L205.384 220.24L209.643 215.99L215.088 216.674L220.366 215.656L223.612 219.237L228.373 217.367L230.931 220.098L232.477 221.789V224.694L231.285 227.414L232.477 233.549L235.883 238.324L238.097 239.171L240.824 231.679L240.308 224.694L239.118 219.057V214.972L246.112 206.473L255.135 199.99L262.295 195.902L268.602 189.091L268.262 182.616L271.003 182.112L273.705 176.324L276.435 176.643L281.729 170.006L290.58 166.95L296.046 165.932L297.752 164.059L295.706 162.357L299.962 156.042L313.432 150.762L321.619 148.379L314.961 152.641L316.324 155.871L321.268 154.511L324.85 152.302L334.221 149.75C334.221 149.75 336.449 145.995 336.098 146.848C335.77 147.697 340.876 145.995 340.876 145.995L339.858 143.946L340.197 141.223L337.476 142.246L333.365 146.674L326.727 146.349L323.667 141.739L326.562 137.822L329.286 132.379C329.112 132.71 324.691 131.011 324.691 131.011L318.039 133.386C317.36 133.386 311.053 137.137 311.218 136.63C311.392 136.12 307.978 138.503 307.978 138.503L316.667 131.53L320.252 131.011L324.346 127.256H343.945L350.594 125.89L359.452 121.126L360.145 121.982L356.391 125.551L351.787 130.324L347.345 135.085L345.135 137.987L352.123 138.326C352.123 138.326 357.572 138.463 358.091 138.326C358.773 138.155 358.941 140.707 358.941 140.707L361.833 138.666L363.377 142.583L368.494 138.666L366.951 134.235L368.323 130.138L362.355 130.321V128.103C362.355 128.103 360.145 125.548 359.971 125.885C359.794 126.23 363.377 122.997 363.203 123.336C363.034 123.678 361.662 121.637 361.662 121.637L365.767 116.511L363.725 110.729L363.031 107.841L357.746 105.284L355.874 102.723L353.481 100.853L355.364 96.42L354.508 93.187C354.508 93.187 352.982 82.621 352.811 82.958C352.631 83.303 345.64 88.757 345.64 88.757L338.494 92.341L334.732 89.102L335.085 84.831L338.323 81.769L333.029 80.067L332.689 78.704C332.689 78.704 327.92 73.934 327.583 74.271L326.049 75.816L314.795 74.778L310.879 81.598L310.029 85.173C310.029 85.173 303.864 91.337 303.111 91.813C303.562 91.682 306.446 94.55 306.446 94.55L303.882 100.671L294.169 106.293L289.405 106.983C289.405 106.983 286.501 117.551 286.672 118.227C286.841 118.914 282.756 120.776 282.756 120.776L279.858 122.823L278.66 119.082C278.66 119.082 277.353 116.22 276.834 115.496C277.596 115.809 280.363 116.177 280.363 116.177L280.882 113.785L278.149 113.962L279.347 110.042L281.903 105.791L273.034 105.107L271.009 102.718L266.565 102.033L266.214 100.155L263.148 98.287L259.394 96.585L255.312 97.095L255.138 93.526L256.156 90.119L252.074 89.441L259.063 82.45C258.88 82.789 279.165 72.389 279.165 72.389L281.558 69.846L285.471 69.495L293.992 65.586L300.47 61.158L301.152 61.5L296.22 66.096L294.856 67.79L290.934 69.669L294.517 70.176L293.995 72.229L297.923 71.545L301.836 68.306L304.917 69.338L306.283 70.858L310.537 70.687L310.365 67.454L303.728 62.69L302.176 61.159L301.503 59.451L304.389 59.805L306.794 61.846L309.344 59.28L314.456 58.61L319.568 55.018L319.237 52.809L323.15 49.066L320.586 46.346L327.409 46.175L333.362 46.346C333.362 46.346 336.269 44.986 336.783 45.836C337.297 46.686 341.723 49.916 341.723 49.916L340.02 51.45L333.023 52.311L331.32 55.707L336.446 56.397L340.357 52.312L344.613 51.967L345.297 56.047C345.297 56.047 340.531 58.778 339.852 58.946C339.17 59.128 336.266 60.477 336.266 60.477L336.095 63.553L331.494 64.058L326.725 63.214L324.514 63.379L320.928 66.27L323.826 68.825C323.826 68.825 328.091 67.123 328.77 66.615C329.449 66.107 331.665 65.078 332.173 65.936C332.683 66.786 335.573 69.169 335.573 69.169L337.978 73.782L340.191 74.458L347 76.668C347 76.668 351.778 77.862 351.778 78.196C351.778 78.538 351.279 75.305 351.279 75.305L347.676 71.043C347.676 71.043 347.519 69.851 348.698 70.182C349.904 70.521 352.805 73.07 352.805 73.07C353.307 73.241 356.722 75.302 356.722 75.302L358.082 71.55L361.146 69.674L359.962 67.459L358.253 65.592L356.382 63.377L356.548 60.825C356.548 60.825 357.061 60.472 357.572 60.144C358.079 59.808 359.614 58.613 359.959 59.283C360.293 59.964 363.716 64.398 363.716 64.398L366.939 65.074L368.483 62.525C368.483 62.525 372.736 62.009 372.736 62.183C372.736 62.357 373.078 60.142 373.078 60.142L377.003 59.124L371.378 54.169L368.314 52.632L365.918 53.316L363.719 50.762L366.098 48.555L367.128 45.482L364.398 42.759L360.136 41.909L359.103 39.685C359.103 39.685 355.532 39.178 355.019 39.511C354.502 39.865 351.949 36.452 351.949 36.452L349.733 33.561C349.388 33.387 348.198 32.187 347.519 32.367C346.826 32.538 339.678 32.706 339.678 32.706L337.975 33.219L335.764 31.508L326.893 33.729L322.297 37.307C322.297 37.307 321.961 35.26 322.297 34.753C322.628 34.243 325.869 32.37 326.382 32.03C326.895 31.69 322.466 31.511 322.466 31.511C322.466 31.511 314.279 34.242 313.94 34.753C313.601 35.264 307.29 40.198 307.29 40.198L307.473 44.289L313.261 45.147L315.474 45.646L313.94 47.017L312.75 49.569L309.005 51.613L304.392 55.014L300.473 56.545L299.797 53.825L303.203 51.781C303.203 51.781 302.521 47.53 302.179 47.867C301.839 48.209 298.265 47.699 298.091 48.209C297.926 48.722 298.265 44.979 298.265 44.979L298.091 41.395L297.241 38.661C297.241 38.661 300.142 36.281 300.644 36.112C301.157 35.941 306.611 35.599 306.611 35.599L315.306 30.661L308.143 30.327C308.143 30.327 301.505 30.49 301.157 31.179C300.815 31.86 296.394 36.453 296.394 36.453L293.664 38.497L284.63 44.128L284.285 48.039L280.539 47.361L277.818 46.848L271.009 49.571V53.317L258.547 54.007C258.547 54.007 252.59 53.146 252.59 52.305C252.59 51.444 250.377 49.745 249.698 49.745C249.005 49.745 241.337 52.128 241.337 52.128L240.998 54.509L232.135 54.007C232.135 54.007 224.81 55.358 224.981 54.686C225.152 54.007 221.056 54.341 221.056 54.341L227.192 51.616L222.939 49.572L215.257 48.383L209.808 46.681L203.684 47.533L203.002 44.981L197.537 47.188L196.002 43.61L192.257 45.318L177.598 48.38C176.922 48.554 173.516 47.017 173.516 47.017L169.24 49.058L161.07 49.568L157.824 47.187L151.181 45.827L143.85 46.166L130.206 43.945C130.206 43.945 122.373 42.753 122.884 42.574C123.394 42.403 118.631 41.211 118.631 41.211C118.631 41.211 118.822 40.644 118.97 40.313C117.298 41.02 103.971 43.252 103.971 43.252L86.08 49.057L74.316 51.437C74.316 51.437 74.655 54.502 74.821 55.009C74.995 55.531 76.016 58.929 76.016 58.929L72.781 59.61H69.358L71.078 57.229L53.675 61.996L54.032 63.869L52.831 66.084L58.285 66.594L62.892 67.104C62.892 67.104 65.448 65.576 65.448 66.086C65.448 66.596 64.084 70.505 64.084 70.505L58.804 70.847C58.465 70.337 55.732 71.027 55.732 71.027C55.732 71.027 52.146 73.225 51.978 72.729C51.807 72.219 44.83 73.921 44.83 73.921L36.809 78.522L33.748 83.118L33.409 86.519L39.374 85.507L35.959 90.111L39.881 89.931C39.881 89.931 44.488 89.931 44.827 90.624C45.172 91.305 47.209 90.966 47.209 91.305C47.209 91.65 6.646 107.316 6.301 106.809C5.959 106.287 0 109.529 0 109.529L8.352 108.169C8.86 108.169 20.444 105.437 20.444 105.437L25.901 103.904C25.901 103.904 37.665 100.499 37.822 99.986C37.996 99.47 46.183 95.214 46.693 95.214C47.203 95.214 49.931 94.025 50.107 94.709C50.27 95.387 61.865 91.65 61.865 91.65C61.865 91.65 65.95 88.745 65.619 88.235C65.265 87.725 62.886 86.362 63.568 86.197C64.247 86.023 70.374 85.165 70.374 85.165C70.374 85.165 79.585 81.424 79.417 81.929C79.246 82.445 70.044 88.583 70.044 88.583L83.171 86.023L88.459 83.802C88.459 83.802 92.886 81.761 92.547 82.274C92.208 82.787 97.662 84.312 97.662 84.823C97.662 85.334 109.075 87.044 109.075 87.044L112.486 92.156L111.796 98.793L111.459 107.149L117.592 106.465L116.066 111.913L116.417 120.948L116.745 124.691C116.745 125.201 111.973 123.673 111.973 123.673C111.973 123.673 111.288 127.588 111.799 128.095C112.329 128.605 117.946 134.227 117.946 134.227L116.069 136.617L111.799 147.177L101.744 158.754L100.046 165.072L95.1 170.515L95.953 174.435C95.953 174.435 94.589 177.166 94.943 177.502C95.271 177.839 97.322 196.41 97.322 196.41L104.485 200.835L106.353 204.245L107.377 218.211L110.438 224.512L107.035 226.898L110.952 232.338L112.489 232.518L115.567 236.087L114.366 240.862L117.598 243.414L120.673 248.187L121.186 250.567L124.087 247.676L121.186 241.715C121.186 241.715 119.141 237.276 119.312 236.267C119.483 235.24 116.591 227.574 116.591 227.574C116.591 227.574 113.85 221.778 114.201 221.271C114.531 220.755 112.144 217.359 112.144 217.359L113.345 210.377L118.288 211.398L119.141 218.551C119.141 219.229 120.336 223.32 120.336 223.32L126.809 232.335L125.793 236.942L138.227 251.759L138.056 257.726L136.179 260.614L137.2 264.711L147.604 272.374L149.304 272.038L152.367 275.105L163.612 280.73L169.24 282.096L175.898 280.046L180.154 282.096L186.632 289.588L193.278 291.285L200.087 293.68H203.342L204.195 297.588C204.195 297.588 207.261 301.511 207.943 302.021C208.619 302.532 208.114 306.965 208.114 306.965L211.006 308.488L214.418 312.071L216.632 314.124L219.025 316.844L220.554 315.823L223.623 316.67L228.045 320.767L230.943 319.053L230.11 315.823L232.814 313.1H235.207L237.769 315.139L237.595 317.525L240.661 322.463L240.835 336.262L238.108 340.698L234.351 343.252L234.192 347.329L230.264 348.86L228.732 354.314L226.342 359.087L226.852 363.169L230.267 366.237L227.192 369.49L224.984 372.717L227.012 379.177C227.012 379.177 228.03 382.422 228.03 382.077C228.03 381.738 231.285 384.303 231.285 384.303L237.247 396.212L243.032 404.574L251.621 421.663L272.709 436.881L275.873 453.459L276.797 488.432L279.518 498.439L278.372 518.656L277.473 522.738C277.473 522.738 281.104 529.096 281.104 530.014C281.104 530.92 281.783 538.86 281.783 538.86L284.279 547.493L287.231 547.271L285.414 542.276L287.694 542.504L289.271 550.447L289.496 553.62L287.694 552.032L286.096 553.62L284.958 554.988L287.231 557.041L286.099 560.2L285.648 564.3L288.829 564.756L291.099 566.569L288.829 570.429C288.829 570.429 302.909 595.187 314.73 598.132L329.956 602L334.965 599.272L336.537 597.233L326.094 593.601L318.141 584.957L316.544 580.424L319.043 578.613L318.595 575.198C318.595 575.198 318.595 572.703 319.491 572.025C320.409 571.346 322.223 567.937 322.223 567.937L319.491 566.571L314.952 562.035L315.406 556.798L318.138 555.221C318.138 555.221 318.358 552.259 317.91 551.581C317.445 550.908 318.592 547.489 319.274 547.267C319.961 547.033 321.761 544.305 321.761 544.305H318.595L316.781 543.632L314.499 540.008V537.271L318.361 538.406L322.009 537.722L324.052 534.771L323.145 532.279C322.916 531.601 323.598 528.642 324.277 528.414C324.956 528.2 329.044 528.642 329.044 528.642L336.774 526.603C336.774 526.603 339.732 521.372 339.507 520.465C339.282 519.558 339.279 516.605 339.279 516.605C339.279 516.605 339.279 514.566 337.464 514.324C335.636 514.104 335.636 513.435 335.182 511.596C334.72 509.785 333.354 507.741 333.354 507.741L331.089 508.197L333.14 506.159L337.684 509.554L344.496 510.703L349.727 505.472L353.367 496.611L354.953 490.022H358.356L361.987 483.437L363.359 477.307L362.224 469.803L363.813 467.092L375.625 459.141L384.497 456.184L387.463 453.903C387.463 453.903 391.993 447.779 391.993 447.098C391.993 446.417 393.816 437.553 393.816 437.553C393.816 437.553 395.855 427.118 395.621 426.44C395.402 425.747 396.084 416.667 395.621 416.439C395.165 416.216 395.855 413.707 395.855 413.707L404.493 401.448L408.583 392.126C408.583 392.126 411.55 387.362 411.091 386.455C410.632 385.548 408.135 377.825 408.135 377.825V377.825ZM498.007 45.319C498.007 45.319 499.379 38.497 498.358 37.815C497.322 37.137 502.448 33.048 502.448 33.048C502.448 33.048 509.936 29.638 510.278 28.626C510.618 27.597 508.236 27.925 508.236 27.925L508.912 22.822L513.693 21.12C513.693 21.12 510.972 17.026 510.278 14.979C509.605 12.955 518.465 11.923 518.465 11.923L534.145 4.77L515.404 6.811L514.711 4.433L494.935 0L455.407 1.371L450.983 3.754H437.328L418.248 5.459C418.248 5.459 400.183 7.837 399.159 8.515C398.143 9.202 401.207 10.223 401.207 10.223L400.867 12.609L378.7 15.34L377.345 17.723L380.067 20.446C380.4 20.785 389.611 22.827 389.611 22.827L400.522 24.19C400.522 24.19 406.661 26.918 407.67 27.931C408.703 28.952 408.372 32.033 408.024 33.736C407.67 35.441 406.661 35.777 405.3 37.821C403.931 39.871 408.024 38.842 408.024 38.842L412.799 41.222C412.799 41.222 411.436 41.222 409.382 41.575C407.328 41.914 404.607 42.584 404.607 42.584L404.267 46.344L411.096 44.984L410.395 47.362L405.631 48.383L400.867 54.168L400.522 65.07L401.54 74.267L404.267 81.765L408.703 82.446L413.818 85.514L420.644 85.166L427.45 75.972L434.604 69.158L436.652 65.412L440.069 63.371L447.557 61.672L457.107 59.619L466.994 53.145C468.007 52.467 492.55 44.983 492.55 44.983L498.007 45.32V45.319ZM504.836 70.179L514.38 67.117L516.414 63.374L512.677 60.312L495.283 62.353L490.171 59.28L484.044 62.693C484.044 62.693 487.107 64.056 488.129 64.734C489.151 65.412 491.195 64.056 491.195 64.056V67.121C491.195 67.121 496.649 70.183 495.959 71.212C495.283 72.23 504.836 70.18 504.836 70.18V70.179ZM521.646 116.621L519.715 117.881L519.144 120.045L520.85 121.063L523.58 121.63L526.409 120.949L528.811 119.586L529.484 118.907L533.464 118.662L533.917 116.977L534.836 115.267V110.383L536.992 109.131L536.299 105.961L532.899 105.169L530.175 104.712L528.361 105.277L527.319 106.751L525.97 108.219C526.321 107.891 527.217 107.891 527.003 108.456C526.766 109.02 525.847 109.588 525.847 109.588H524.507L523.346 108.906L521.651 109.131L521.078 110.155L521.774 111.746L520.625 112.886L521.988 114.024L523.346 114.352L523.135 115.948L521.646 116.621V116.621ZM535.161 103.23C535.96 103.561 536.293 104.025 536.182 104.359C536.082 104.712 537.888 104.935 537.888 104.935L539.371 104.598L538.35 106.186C538.35 106.186 538.573 107.21 538.909 107.666C539.26 108.119 540.398 107.666 540.398 107.666C540.398 107.666 543.128 107.21 543.47 107.324C543.801 107.432 543.348 108.459 543.348 108.459L544.38 110.044C544.38 110.044 544.937 112.319 545.051 112.994C545.173 113.687 544.141 113.445 544.141 113.445C544.141 113.445 542.001 113.784 541.525 113.684C541.071 113.57 540.173 114.468 539.38 115.372C538.578 116.299 539.494 115.948 539.494 115.948H541.183C541.183 115.948 541.317 117.077 541.422 117.547C541.525 118.001 540.056 118.446 539.611 118.331C539.157 118.223 537.106 119.247 537.106 119.247L537.212 120.952L539.719 121.177L542.224 121.519L542.677 122.311C542.677 122.311 541.068 122.654 540.623 122.311C540.17 121.972 538.806 124.128 538.806 124.128L537.56 125.49L534.936 127.532L536.41 128.216L537.323 127.075L539.608 127.189L542.09 126.85C542.09 126.85 543.582 125.034 543.924 125.034C544.255 125.034 547.783 124.926 547.783 124.926C547.783 124.926 550.624 124.356 550.964 124.584C551.304 124.812 553.58 125.271 553.933 125.379C554.267 125.49 558.697 124.13 558.697 124.13C558.697 124.13 559.601 122.656 559.827 122.203C560.063 121.75 558.586 121.296 558.246 120.954C557.906 120.612 559.376 120.162 560.063 119.823C560.739 119.483 560.968 118.229 561.313 117.667C561.641 117.106 560.854 115.954 560.739 115.623C560.631 115.272 559.036 115.378 558.586 115.272C558.132 115.155 556.201 115.378 556.201 115.378L556.304 113.108C556.304 113.108 550.964 105.844 551.078 105.505C551.192 105.174 549.829 103.007 549.261 102.902C548.693 102.788 548.009 102.318 547.327 101.411C546.651 100.51 548.237 99.367 548.237 99.367C548.237 99.367 550.162 97.326 550.393 96.875C550.622 96.419 550.159 95.059 549.826 94.945C549.481 94.834 545.516 95.059 545.516 95.059C545.516 95.059 544.383 94.152 544.489 93.813C544.606 93.457 545.741 93.351 546.086 93.351C546.408 93.351 548.468 89.385 548.922 89.271C549.372 89.148 548.576 88.136 548.576 88.136L546.993 88.797L545.516 90.969C545.516 90.969 544.141 91.308 543.584 90.969C543.027 90.63 541.876 90.969 541.422 90.855C540.969 90.727 539.93 92.218 539.93 92.218C539.93 92.218 538.356 93.92 537.896 94.031C537.443 94.145 535.851 95.961 535.965 96.072C536.088 96.186 536.191 97.669 536.191 97.669C536.191 97.669 535.851 98.228 535.284 98.342C534.717 98.456 535.734 100.384 535.734 100.384L537.109 101.074C537.109 101.074 536.302 101.86 535.851 101.755C535.389 101.629 534.368 102.895 535.161 103.229V103.23ZM1069.65 78.592C1069.65 78.498 1069.59 78.498 1069.5 78.555C1069.6 78.629 1069.65 78.655 1069.65 78.592ZM930.129 279.028C930.357 278.688 933.532 277.097 933.643 276.293C933.763 275.515 936.031 283.689 936.031 283.689L937.634 289.362C937.634 289.362 938.872 293.445 939.328 294.243C939.784 295.041 940.455 300.264 940.455 300.721C940.455 301.171 941.95 304.227 941.263 304.575C940.567 304.914 939.445 304.686 939.662 305.145C939.902 305.593 940.452 308.096 940.452 308.566C940.452 309.014 940.119 312.07 939.902 312.641C939.662 313.211 939.562 314.688 939.562 315.357C939.562 316.045 939.996 317.305 939.996 317.633C939.996 317.98 940.347 318.545 940.347 318.545C940.347 318.545 940.809 318.779 941.026 318.203C941.26 317.633 942.96 317.41 943.196 317.633C943.416 317.866 946.026 320.92 946.26 321.841C946.483 322.742 949.324 327.18 949.657 327.631C950.003 328.087 951.486 329.567 950.559 330.81C949.657 332.058 949.657 332.284 949.78 332.962C949.891 333.641 950.237 336.135 951.363 337.515C952.521 338.851 953.694 340.173 954.883 341.481C954.883 341.481 957.847 343.539 958.303 344.107C958.748 344.668 962.046 345.008 962.397 346.368C962.722 347.727 963.638 349.102 963.638 349.102C963.638 349.102 966.245 349.888 966.245 350.239C966.245 349.957 966.228 345.991 965.914 345.449C965.58 344.896 962.856 339.326 962.502 338.989C962.171 338.644 961.604 337.855 961.943 336.392C962.283 334.898 961.712 331.035 961.712 331.035L956.372 324.672C956.372 324.672 951.711 320.127 951.6 320.361C951.489 320.583 947.957 318.995 948.094 317.633C948.186 316.273 947.726 312.871 946.708 312.073C945.698 311.283 944.788 310.023 943.992 309.573C943.202 309.108 943.77 304.797 943.992 304.23C944.214 303.663 946.032 298.674 945.926 298.34C945.801 298.001 946.377 293.345 946.377 293.345C946.377 293.345 947.849 291.395 948.188 292.082C948.539 292.761 950.122 292.082 949.666 294.126C949.215 296.185 949.449 297.433 949.449 297.433L953.528 296.629L956.378 299.589L958.429 302.306L961.039 303.899C961.039 303.899 961.718 306.97 962.057 307.184C962.405 307.42 964.105 306.505 964.105 306.505L966.718 308.336C966.718 308.336 965.235 311.053 965.589 311.745C965.922 312.424 966.253 314.802 966.253 314.802L968.764 312.755L971.953 310.371L973.542 308.099L974.109 306.4L978.645 304.458L982.966 300.487L982.861 292.079L981.494 286.862L977.632 281.408L970.124 273.919L967.183 270.286C967.183 270.286 965.132 267.675 965.238 266.999C965.355 266.307 965.797 262.683 965.797 262.683L967.857 260.747L971.839 256.773C971.839 256.773 974.563 254.957 975.019 255.407C975.47 255.863 979.104 255.749 979.221 256.086C979.326 256.428 979.803 256.32 979.555 256.992C979.326 257.671 979.666 260.744 980.005 261.086C980.356 261.428 981.155 261.759 981.494 261.879C981.814 261.987 982.966 261.534 983.083 260.855C983.2 260.176 982.966 257.791 983.083 257.22C983.2 256.656 983.423 256.656 983.768 256.542C984.107 256.428 985.802 256.542 985.802 256.542L987.63 254.726L990.805 255.861L994.214 252.901C994.214 252.901 996.037 252.571 996.265 252.793C996.487 253.03 999.454 250.526 999.454 250.526L1002.52 249.842L1005.24 248.705C1005.24 248.705 1006.37 246.09 1006.37 246.427C1006.37 246.772 1012.97 239.849 1012.97 239.849L1015.13 234.51L1017.73 226.903L1019.32 217.466L1019.44 214.747C1019.44 214.747 1016.94 216.785 1016.6 216.908C1016.26 217.013 1014.22 216.457 1014.22 216.457L1015.8 213.612C1015.8 213.612 1016.71 211.571 1016.26 211.457C1015.8 211.34 1013.53 210.664 1013.53 210.664C1013.53 210.664 1014.51 208.429 1014.65 208.284C1014.44 208.284 1010.7 204.418 1010.7 204.418C1010.7 204.418 1005.69 197.264 1005.46 197.826C1005.24 198.396 1001.38 195.106 1001.03 195.106C1000.7 195.106 1000.47 195.217 1000.24 194.542C1000.02 193.858 1003.65 189.088 1003.76 188.734C1003.88 188.407 1007.05 184.877 1007.63 184.994C1008.19 185.108 1010.12 185.219 1010.12 185.219C1010.12 185.219 1009.66 182.953 1009.32 182.839C1008.99 182.727 1001.27 182.046 1001.27 182.046C1001.27 182.046 998.204 183.862 998.088 184.315C997.956 184.769 995.48 184.546 995.48 184.546L995.132 181.932L992.049 180.458L988.537 179.209L988.657 176.823C988.657 176.823 990.805 176.033 991.15 175.788C991.49 175.56 994.214 174.212 994.436 173.065C994.664 171.928 996.487 170.115 996.721 169.773C996.944 169.433 998.416 168.185 998.749 168.413C999.1 168.638 1001.27 170.229 1001.03 170.343C1000.81 170.454 999.337 172.846 999.662 173.516C1000.02 174.209 1001.6 176.256 1001.38 176.589C1001.16 176.937 1000.47 178.186 1000.47 178.186L1002.18 177.958C1002.18 177.958 1004.33 176.256 1004.21 176.03C1004.1 175.785 1005.92 173.869 1006.26 173.869C1006.6 173.869 1010.36 173.063 1010.46 173.402C1010.58 173.747 1014.33 174.651 1014.33 174.651L1015.01 181.476C1015.01 181.476 1024.11 183.631 1024.11 184.201C1024.11 184.771 1023.08 185.67 1023.08 185.67C1023.08 185.67 1022.96 187.489 1023.42 187.722C1023.87 187.939 1025.35 189.191 1025.69 189.652C1026.05 190.106 1026.72 193.179 1026.72 193.179C1026.72 193.179 1025.48 195.899 1025.69 196.241C1025.92 196.586 1028.19 198.624 1028.19 198.624L1034.67 196.127C1034.67 196.127 1038.19 193.404 1038.19 193.065C1038.19 192.717 1034.45 183.634 1034.45 183.634L1025.8 177.715L1022.07 174.653L1027.29 169.55L1026.83 165.125C1026.83 165.125 1027.96 160.795 1028.19 160.795C1028.43 160.795 1031.6 158.531 1031.6 158.531L1035.24 161.043L1040.69 157.627L1043.76 146.623L1043.87 132.302L1038.99 123.561C1038.99 123.561 1036.72 118.224 1036.37 118.224C1036.03 118.224 1032.74 113.104 1032.74 113.104L1025.13 109.705L1021.82 109.591L1019.79 112.993L1017.64 110.384L1014.68 105.167L1015.01 108.343C1015.01 108.343 1015.47 110.384 1015.33 110.837C1015.25 111.291 1013.07 107.998 1013.07 107.998L1009.22 107.322C1009 107.322 1007.17 106.29 1007.17 106.29C1007.17 106.29 1012.53 100.061 1012.06 100.283C1011.61 100.505 1012.97 92.335 1012.97 92.335C1012.97 92.335 1014.9 88.466 1015.01 88.694C1015.13 88.925 1022.5 87.901 1022.5 87.901C1022.5 87.901 1036.02 87.682 1035.91 87.901C1035.8 88.138 1042.51 87.456 1042.51 87.456C1042.51 87.456 1042.73 89.386 1043.31 89.614C1043.87 89.836 1049.32 89.491 1049.32 89.491L1053.3 88.587L1055.22 88.353C1055.22 88.353 1052.84 85.972 1052.5 85.972C1052.16 85.972 1049.89 84.943 1049.67 84.829C1049.43 84.715 1051.37 80.41 1051.25 79.726C1051.14 79.042 1050.92 76.661 1051.82 76.889C1052.72 77.117 1058.87 77.12 1058.87 77.12C1058.87 77.12 1061.36 79.495 1061.36 80.179C1061.36 80.857 1065.34 83.241 1065.34 83.241C1065.34 83.241 1067.51 80.858 1067.73 80.407C1067.92 80.045 1069.07 78.765 1069.51 78.554C1068.96 78.106 1067.17 75.754 1067.17 75.754C1067.17 75.754 1069.1 73.59 1070.11 74.725C1071.15 75.863 1073.41 80.743 1073.41 80.743C1073.41 80.743 1071.36 85.849 1071.36 86.311C1071.36 86.756 1070.57 91.426 1070.57 91.771C1070.57 92.107 1068.29 94.149 1068.29 94.149C1068.29 94.149 1067.17 94.149 1067.17 94.716C1067.17 95.283 1068.74 98.342 1068.74 98.342C1068.74 98.342 1069.33 101.869 1069.65 102.083C1070 102.331 1081.37 112.195 1081.37 112.195L1088.75 119.477L1093.53 123.442L1094.88 123.106C1094.88 123.106 1096.03 117.546 1095.57 117.76C1095.11 117.997 1093.29 116.067 1093.53 115.733C1093.75 115.371 1094.2 113.78 1094.77 113.897C1095.34 114.02 1097.04 114.348 1097.04 114.348L1093.64 110.037L1094.77 107.659L1097.39 108.452L1093.86 104.709L1092.05 101.068C1092.05 101.068 1093.98 101.518 1094.11 101.855C1094.21 102.217 1096.26 100.398 1095.58 100.275C1094.89 100.15 1090.8 98.679 1090.8 98.337C1090.8 98.001 1088.42 97.433 1088.29 96.974C1088.19 96.524 1088.75 94.707 1088.42 94.707C1088.08 94.707 1084.56 93.119 1084.56 93.119L1082.27 93.447L1081.02 90.964L1081.7 89.034L1079.33 85.747C1079.5 85.904 1084.18 84.116 1084.63 83.925C1084.6 83.999 1086.84 83.74 1087.04 84.592C1087.27 85.507 1088.29 86.417 1088.29 86.417L1090.69 84.148C1090.69 84.148 1092.39 82.665 1093.07 83.002C1093.75 83.339 1097.04 84.037 1097.51 84.482C1097.91 84.898 1099.98 85.486 1100.3 85.859C1100.27 85.383 1100.34 83.909 1100.34 83.909L1100.44 82.663L1103.64 78.352C1103.64 78.352 1104.88 76.539 1106.03 76.299C1107.16 76.082 1109.54 74.038 1109.99 74.383C1110.45 74.717 1114.22 74.611 1114.67 75.632C1115.12 76.653 1117.16 75.29 1117.16 75.29C1117.16 75.29 1115.22 72.909 1115.12 73.129C1115.01 73.354 1108.75 70.623 1108.41 70.748C1108.07 70.851 1103.88 68.245 1103.88 68.245C1103.88 68.245 1101.71 67.45 1101.6 67.45C1101.49 67.45 1103.29 66.541 1103.97 66.312C1104.66 66.09 1106.26 63.932 1106.26 63.932C1106.26 63.932 1105.46 62.458 1105 62.002C1104.54 61.552 1107.5 61.891 1108.52 62.344C1109.54 62.797 1114.67 63.022 1114.55 63.365C1114.42 63.701 1117.96 63.701 1117.84 64.614C1117.72 65.527 1119.09 65.743 1119.54 66.202C1120 66.658 1124.32 67.337 1124.55 67.451C1124.76 67.562 1129.08 67.112 1129.08 67.787C1129.08 68.471 1130.45 67.679 1130.45 67.679C1130.45 67.679 1129.77 64.389 1128.97 64.614C1128.17 64.839 1126.68 63.705 1127.72 63.482C1128.74 63.257 1130.68 62.119 1130.11 61.891C1129.53 61.669 1128.63 60.528 1127.27 59.955C1125.91 59.388 1120.45 58.15 1119.88 58.364C1119.32 58.601 1110.79 56.542 1110.24 56.542C1109.66 56.542 1106.71 55.758 1106.71 55.758L1077.62 47.921C1077.62 47.921 1059.55 45.994 1059.66 45.643C1059.78 45.312 1049.21 44.397 1049.21 44.397L1055.47 49.623L1049.21 48.719C1049.21 48.719 1041.49 47.47 1041.26 47.128C1041.03 46.792 1019.66 46.675 1019.66 46.675L1016.49 43.254L1005.92 41.452C1005.58 41.327 992.847 41.452 992.847 41.452L982.188 39.861C982.188 39.861 975.019 36.788 973.428 37.133C971.837 37.478 956.158 36.112 955.246 35.653C954.344 35.197 948.103 36.109 948.103 36.109L953.189 39.972L944.797 39.738L936.388 39.621L933.198 38.036L933.33 42.694C933.33 42.694 930.936 43.136 930.936 42.571C930.936 42.006 923.546 39.398 923.546 39.398C923.546 39.398 917.401 33.953 917.299 34.295C917.182 34.631 907.32 32.362 907.32 32.362L901.165 31.233C901.165 31.233 899.348 32.023 899.57 32.479C899.798 32.932 902.183 34.52 901.844 34.86C901.505 35.2 897.764 34.521 897.764 34.521L888.103 34.182L886.386 32.366L873.661 32.48C873.661 32.48 868.891 28.728 868.771 28.945C868.669 29.173 865.14 29.76 865.14 29.76L862.41 32.705L854.691 33.275L862.998 28.842L865.95 26.69C866.164 26.108 863.885 22.71 863.446 23.161C862.998 23.62 856.506 21.573 856.166 21.573C855.826 21.573 846.054 21.345 846.054 21.345C845.364 21.234 842.306 21.345 842.306 21.345C842.306 21.345 841.171 18.172 840.6 18.283C840.038 18.397 832.641 18.169 832.641 18.169C832.641 18.169 826.058 19.532 825.81 20.21C825.607 20.897 827.076 21.573 827.076 21.573C827.076 21.573 823.556 24.184 823.211 23.956C822.877 23.728 812.64 23.728 812.64 23.728C812.64 23.728 798.44 26.79 798.44 26.448C798.44 26.157 794.19 27.97 793.2 28.407C794.036 29.14 797.016 30.836 796.623 31.235C796.172 31.685 786.619 32.142 786.28 31.457C785.974 30.833 782.198 32.272 781.599 32.364C782.286 32.649 786.759 36.144 787.07 36.678C787.409 37.243 788.231 38.041 789.343 37.585C790.478 37.132 791.5 36.678 791.734 37.132C791.962 37.585 791.734 38.606 791.734 38.606C791.734 38.606 788.887 39.176 788.559 39.176C788.231 39.176 784.805 37.243 784.462 37.132C784.129 37.018 779.582 35.997 779.008 35.997C778.427 35.997 775.931 36.336 775.931 36.336C775.931 36.336 774.002 38.041 774.453 38.269C774.924 38.494 776.056 40.65 776.401 40.43C776.735 40.193 778.786 39.287 778.891 40.313C779.008 41.322 776.512 42.132 776.512 42.132C776.512 42.132 773.089 40.758 772.978 40.427C772.867 40.074 771.272 38.152 771.272 37.128C771.272 36.104 769.233 32.475 768.665 33.04C768.103 33.61 766.058 33.835 766.058 33.835L768.56 36.104C768.56 36.104 770.71 37.914 770.143 38.034C769.581 38.148 767.986 39.052 767.881 39.397C767.764 39.736 766.514 41.661 767.986 41.661C769.464 41.661 771.851 43.942 771.851 43.942C771.851 43.942 771.963 47.013 772.185 47.466C772.413 47.919 775.928 50.3 775.928 50.3C775.928 50.3 778.104 48.937 778.424 48.601C778.783 48.259 781.738 47.694 782.417 48.373C783.096 49.052 781.048 50.753 780.486 50.417C779.913 50.072 778.669 49.733 778.101 49.958L777.522 50.183C777.522 50.183 776.732 51.888 777.522 52.227C778.324 52.572 779.359 53.707 779.239 54.271C779.119 54.835 776.966 58.701 776.966 58.701L773.777 59.38C772.642 59.155 770.83 58.359 770.83 58.359L774.236 55.753L774.693 52.226C774.693 52.226 774.81 52.001 773.902 51.205C772.975 50.415 769.803 47.579 769.803 47.579C769.803 47.579 767.875 44.394 767.875 44.055C767.875 43.699 766.968 42.002 766.968 42.002C766.968 42.002 764.806 40.528 764.349 40.425C763.904 40.308 763.904 39.054 764.249 38.375C764.583 37.691 763.904 34.632 763.787 35.082C763.656 35.538 759.802 34.971 759.343 34.857C758.884 34.743 757.871 33.494 757.871 33.494C757.871 33.494 757.309 31.572 756.385 32.362C755.487 33.155 753.898 33.494 753.898 33.494L752.309 37.691L752.76 39.396L749.579 41.56L752.511 44.043C752.317 43.949 752.654 46.332 752.76 46.897C752.866 47.462 757.64 48.716 757.64 48.716C757.64 48.716 760.142 49.734 760.364 50.754C760.598 51.775 759.68 53.026 759.68 53.026L754.805 50.754L743.999 47.353C743.999 47.353 733.559 46.674 733.779 46.335C734.016 45.996 729.797 43.604 729.797 43.604L727.409 44.85C727.409 44.85 729.677 46.449 730.031 46.549L733.779 47.923C733.779 47.923 734.806 48.49 735.028 49.4C735.265 50.304 733.1 51.438 733.1 51.438C733.1 51.438 731.628 49.85 731.628 49.514C731.628 49.172 731.277 47.809 730.827 48.034L726.168 50.42C726.168 50.42 721.396 50.531 720.823 50.985C720.25 51.439 717.189 53.602 716.96 53.029C716.727 52.462 717.411 50.078 717.308 49.625C717.189 49.172 712.53 50.423 712.53 50.423C712.53 50.423 706.517 52.347 706.281 52.912C706.058 53.488 703.334 54.05 702.866 54.164C702.415 54.278 701.854 54.278 701.854 54.278C701.854 54.278 699.474 55.761 699.919 56.545C700.376 57.343 696.625 57.791 696.625 57.791C696.625 57.791 694.246 56.32 694.135 55.989C694.026 55.678 696.716 53.871 696.973 53.717C696.625 53.942 694.135 50.763 693.789 50.649C693.49 50.558 687.314 50.717 686.213 50.672C686.932 50.934 689.131 53.061 689.131 53.375C689.131 53.717 689.476 57.013 689.476 57.013C689.476 57.013 691.279 58.156 691.627 58.022C691.967 57.919 691.279 59.961 691.279 59.961L688.23 59.622C688.23 59.622 686.963 57.794 685.942 58.827C684.921 59.86 681.518 62.468 681.295 62.128C681.062 61.786 679.133 62.467 679.247 63.149C679.361 63.831 680.839 65.302 680.839 65.302C680.839 65.302 678.685 67.118 678.896 66.442C679.133 65.752 673 64.17 672.541 64.284C672.07 64.398 669.463 65.194 669.463 65.194L670.593 67.121C670.593 67.121 674.01 67.346 674.458 68.028C674.929 68.706 673.676 70.069 673.317 70.069C672.997 70.069 665.039 66.323 665.039 66.323C665.039 66.323 662.42 63.603 663.208 62.811C664.023 62.016 664.697 60.77 663.208 60.77C661.739 60.77 660.15 59.627 660.047 59.173C659.927 58.72 669.007 60.091 669.007 60.091L674.247 60.65C674.247 60.65 673.568 61.34 675.613 60.65C677.65 59.969 681.061 58.258 681.518 58.161C681.974 58.027 682.531 55.875 682.531 55.875L681.852 53.948L662.32 49.295C662.32 49.295 655.834 47.365 655.723 47.026C655.612 46.687 649.926 46.111 649.926 46.111L647.194 46.462L649.481 43.617C649.481 43.617 640.604 40.997 640.387 41.336C640.148 41.675 636.519 43.4 636.519 43.4L629.705 42.257L620.948 44.298L612.082 46.462L599.251 51.907L604.024 52.36L601.967 55.875L596.285 60.092L593.116 65.306L592.659 68.146L589.596 71.433C589.596 71.433 587.439 70.301 586.985 69.854C586.535 69.389 579.024 71.998 579.024 71.998L574.486 76.317C574.486 76.317 573.35 78.481 573.122 79.048C572.885 79.621 573.462 85.639 573.462 85.639C573.462 85.639 576.189 85.639 575.39 86.432C574.591 87.225 574.705 90.865 574.705 90.865L577.892 93.009C577.892 93.009 582.091 94.383 582.675 94.263C583.22 94.152 585.28 92.789 585.628 92.561C585.944 92.339 588.46 89.841 589.253 89.944C590.046 90.069 592.089 87.783 592.325 88.593C592.548 89.388 593.007 92.225 593.455 92.907C593.909 93.588 595.497 94.837 596.176 96.419C596.852 98.013 597.785 99.609 597.545 99.934C597.309 100.288 595.723 101.864 595.723 101.864C595.723 101.864 592.325 102.318 591.863 102.788C591.413 103.236 590.845 103.461 590.503 103.236C590.152 103.008 591.635 101.411 591.977 100.975C592.323 100.51 591.184 98.691 590.728 98.803C590.266 98.923 589.824 97.782 590.266 97.443C590.728 97.101 590.614 94.946 590.614 94.946C590.614 94.946 589.932 94.601 589.596 94.721C589.253 94.835 585.277 96.42 585.277 96.42C585.277 96.42 583.12 98.692 583.006 99.143C582.883 99.611 581.974 101.988 582.556 103.684C583.12 105.398 584.481 108.123 584.481 108.123C584.481 108.123 585.944 109.138 585.388 109.597C584.829 110.048 583.677 111.753 583.677 111.753L580.964 111.864C580.964 111.864 576.077 112.443 575.615 112.659C575.168 112.893 570.401 114.358 570.615 114.82C570.854 115.274 569.588 120.163 569.588 120.163C569.368 120.277 564.593 123.681 564.028 123.681C563.463 123.681 559.941 124.585 559.941 124.585C559.941 124.585 558.349 128.787 558.241 128.556C558.127 128.325 552.886 131.054 552.886 131.054C552.886 131.054 548.916 129.916 548.802 129.457C548.688 129.007 547.321 127.986 547.213 128.328C547.093 128.673 548.571 132.205 548.571 132.887C548.571 133.551 548.802 134.917 548.345 134.472C547.889 134.007 545.618 133.34 545.168 133.109C544.703 132.887 540.846 132.989 540.846 132.989H539.254C539.254 132.989 537.317 134.7 537.203 134.355C537.098 134.01 536.984 135.838 536.984 135.838L538.113 136.967L542.215 138.669L546.075 141.055L547.552 144.684L549.252 148.091C549.252 148.091 548.114 155.13 547.903 155.481C547.652 155.814 545.276 157.414 545.276 157.414L537.885 157.288L533.909 156.385C533.569 156.265 528.452 157.063 528.352 156.61C528.238 156.151 526.64 156.265 526.64 156.265L525.836 155.361H523.794L522.091 157.285L519.592 157.411V159.444L520.499 163.771C520.385 163.421 520.048 169.214 520.048 169.214L517.344 174.525C517.398 174.674 517.21 177.847 517.21 177.847L518.69 180.236L518.916 183.067C518.916 183.067 517.778 185.675 518.234 185.45C518.693 185.219 522.333 185.561 522.433 185.111C522.547 184.661 524.712 183.637 525.043 184.427C525.38 185.219 526.64 184.427 526.994 185.801C527.311 187.161 528.572 189.088 528.694 189.424C528.806 189.778 529.713 190.106 529.713 190.106L530.052 191.024L529.362 191.594L526.538 197.943L520.274 202.376L516.531 204.754L515.507 207.602L513.921 209.418L513.465 212.936C513.465 212.936 513.921 217.358 513.684 217.592C513.465 217.817 505.167 225.655 505.167 225.655L500.623 226.675L498.112 230.995C498.112 230.995 494.706 234.165 494.487 234.746C494.25 235.305 492.55 237.472 492.55 237.472C492.55 237.472 492.664 242.005 492.55 241.329C492.436 240.653 487.669 245.07 487.669 245.07C487.669 245.07 486.762 250.296 486.537 250.529C486.312 250.746 484.041 254.726 483.69 254.612C483.351 254.495 483.011 257.335 483.011 257.791C483.011 258.241 484.141 259.601 484.141 259.601C484.141 259.601 485.744 262.68 485.852 262.338C485.961 261.987 485.961 263.364 485.961 263.364L484.378 264.944C484.378 264.944 486.083 267.564 486.083 267.903V274.934L484.258 278.802L483.351 283.803L480.615 285.956L480.729 287.321L483.12 289.246L483.47 291.398L482.777 293.79V296.185L484.492 300.159C484.492 300.159 486.195 301.519 486.534 301.177C486.873 300.835 490.271 303.332 490.733 304.122C491.189 304.917 495.385 309.915 495.385 310.149C495.385 310.371 496.07 311.509 496.07 311.509L498.112 318.437C498.112 318.437 507.999 326.608 508.227 326.271C508.456 325.94 518.796 333.647 518.796 333.647C518.796 333.647 527.103 329.57 526.991 329.915C526.869 330.248 534.023 329.57 534.023 329.57L538.347 330.248L541.516 331.725L553.117 326.397L555.391 324.675L564.359 324.347L568.684 326.032C568.684 326.032 571.522 330.248 571.522 330.93C571.522 331.612 573.228 334.67 573.459 334.214C573.678 333.772 583.571 333.316 583.919 333.424C584.247 333.535 588.569 337.749 588.569 337.749L588.343 341.729L587.656 348.76L586.289 352.169L584.94 355.24L584.601 357.398L594.81 372.5C594.81 372.611 597.426 378.738 597.426 378.738L600.506 386.583L602.326 391.002L600.506 393.5L603.462 401.123L602.435 408.607L598.002 418.269L596.074 425.419L596.641 434.959L601.964 445.975L607.541 458.582L608.108 472.443L612.55 480.723L615.739 487.417L618.802 494.695L620.386 496.853C620.386 496.853 620.622 500.488 620.263 500.488C619.929 500.488 618.232 500.611 618.688 501.278C619.139 501.957 621.746 506.504 621.746 506.504L621.858 508.554L625.489 510.587L628.692 509.115C628.692 509.115 631.867 508.554 632.212 508.665C632.546 508.776 636.97 507.183 636.97 507.183L643.791 508.206L648.566 505.711L653.794 505.372L662.768 496.851C662.768 497.079 671.046 486.182 671.046 486.182L675.271 482.539L677.647 475.388L677.31 470.744C677.31 470.744 678.109 468.341 678.896 467.89C679.701 467.44 687.417 462.898 687.417 462.898L689.023 455.397L687.534 448.011C687.534 448.011 686.393 445.185 686.393 444.726C686.393 444.279 687.189 442.22 687.189 442.22L694.697 435.523C694.697 435.523 696.397 433.365 697.193 432.573C697.989 431.781 705.023 428.718 705.023 428.718L709.806 424.071L710.602 406.914L708.785 399.983C708.674 399.401 705.379 388.628 705.379 388.166C705.379 387.718 704.244 381.124 704.116 380.548C704.024 380.001 706.723 372.386 706.723 372.386L710.485 364.993L725.832 347.394L734.475 340.478L747.537 319.115L751.744 309.231L752.643 299.25L749.924 298.793C749.924 298.793 748.555 300.381 748.215 300.604C747.873 300.838 740.034 301.294 740.034 301.294L730.487 304.122L725.829 305.827L721.285 301.066L721.964 297.662L715.837 290.383L707.196 281.767C707.196 281.767 702.863 278.466 703.097 278.135C703.331 277.785 700.704 269.836 700.704 270.064C700.704 270.292 696.391 266.096 696.391 266.096L696.28 258.478L691.622 250.88L686.518 241.557C686.518 241.557 682.191 230.878 681.735 230.31C681.29 229.746 679.584 226.912 680.146 227.023C680.714 227.14 684.804 226.57 684.804 226.57C684.804 226.57 692.412 235.548 692.412 236.001C692.412 236.454 696.967 244.055 696.967 244.055C696.967 244.055 700.37 248.83 700.37 248.48C700.37 248.157 701.166 252.91 701.049 253.261C700.938 253.603 703.094 258.829 703.094 258.829L709.575 264.625L710.936 268.818L716.844 275.29L717.987 279.384L714.002 275.738C714.002 275.738 712.753 277.788 713.207 278.138C713.657 278.469 717.636 282.674 717.636 282.674L719.585 288.459L721.062 293.918L723.213 295.734L729.583 294.489L730.71 291.98H736.962L739.686 289.941L743.084 289.485C743.084 289.485 745.702 286.871 745.928 286.757C746.162 286.643 756.274 282.224 756.274 282.224C756.274 282.224 756.494 278.917 756.953 278.917C757.412 278.917 767.53 275.738 767.53 275.738L768.548 271.88L772.174 271.652L773.198 269.046L776.721 266.891L777.163 261.209L779.784 261.996L780.586 260.063L779.679 258.829L783.658 253.038L783.769 250.983L779.904 247.465L778.093 245.537C778.093 245.537 771.951 244.847 771.717 244.394C771.495 243.938 769.11 238.484 769.11 238.484C769.11 236.791 769.221 233.714 768.876 233.948C768.548 234.173 766.614 236.329 766.614 236.329L759.583 242.806L753.433 244.394C753.433 244.394 751.396 243.827 751.276 243.49C751.165 243.148 750.937 237.92 750.937 237.92C750.937 237.92 748.312 234.855 748.21 234.404C748.099 233.948 746.159 238.384 746.159 238.384C746.159 238.384 743.204 234.404 743.537 234.279C743.877 234.173 742.177 230.31 742.177 230.31L736.278 223.505L735.938 219.978C735.938 219.978 738.779 216.905 739.23 216.791C739.681 216.677 743.771 216.115 744.231 217.598C744.687 219.06 748.096 224.075 748.096 224.754C748.096 225.433 753.313 229.971 753.889 229.857C754.448 229.746 756.488 230.878 757.181 231.334C757.86 231.787 759.215 232.582 759.788 233.158C760.356 233.714 761.833 233.384 761.833 233.384L765.584 232.811C765.584 232.811 768.648 229.857 768.771 230.427C768.871 231.006 772.396 231.231 771.946 232.015C771.489 232.813 772.071 235.091 772.396 235.77C772.75 236.457 788.077 238.84 788.077 238.84L795.134 239.747L803.072 239.06C803.523 239.06 808.312 239.525 808.763 239.393C809.208 239.294 816.028 246.78 816.028 246.78L822.392 249.973L823.861 249.854L820.244 251.447C820.244 251.447 821.477 254.287 821.477 254.623C821.477 254.965 827.846 259.51 827.846 259.51C827.846 259.51 830.114 258.025 830.454 258.025C830.802 258.025 832.391 257.46 832.507 256.665C832.623 255.87 832.159 253.606 832.73 253.377C833.309 253.149 834.088 252.462 834.222 253.492C834.322 254.506 835.708 264.274 835.471 264.379C835.223 264.513 837.399 271.769 837.399 272.108C837.399 272.447 840.241 281.314 840.346 281.653C840.463 281.99 845.116 291.983 845.455 292.325C845.789 292.667 850.344 304.47 850.344 304.47C850.344 304.47 852.963 309.356 852.846 310.157C852.735 310.953 853.759 314.81 854.443 315.266C855.127 315.722 858.183 316.857 858.183 316.857C858.183 316.857 859.883 315.372 860.009 314.927C860.111 314.477 861.369 312.433 861.811 311.754C862.271 311.061 864.336 310.847 864.439 311.295C864.544 311.754 866.943 312.886 866.943 312.886L866.695 318.445C866.695 318.445 867.163 322.069 867.496 323.454C867.856 324.814 870.686 325.949 870.686 325.949L874.094 322.884L875.566 317.647L872.169 312.547L869.216 309.359C868.871 309.031 866.695 308.692 866.695 308.692C866.695 308.692 866.943 309.83 867.163 310.274C867.399 310.731 866.695 310.85 866.695 310.85L864.088 309.832L864.544 306.853C864.544 306.853 866.498 306.52 866.832 306.52C867.166 306.52 866.695 301.981 866.695 301.981C866.695 301.981 867.399 293.927 867.628 293.699C867.856 293.462 867.282 285.522 866.372 285.186C865.474 284.844 866.372 282.235 866.832 282.118C867.282 281.998 871.712 280.416 871.712 280.416L874.203 275.532L878.986 272.231C879.32 272.003 884.429 266.563 884.429 265.87C884.429 265.2 885.011 263.496 886.366 263.253C887.732 263.039 890.24 261.221 890.24 261.221V257.469C890.24 257.469 890.69 255.653 891.711 255.202C892.724 254.746 895.343 254.401 895.343 254.401C895.343 254.401 895.919 255.881 895.571 256.103C895.226 256.337 901.362 254.401 901.362 254.401C901.362 254.401 904.086 254.401 904.542 254.293C905.007 254.173 906.368 252.14 906.368 252.14C906.368 252.14 905.786 250.313 906.576 250.763C907.386 251.234 909.32 253.272 909.098 253.614C908.855 253.939 910.224 256.217 909.893 257.124C909.543 258.03 915.116 264.177 915.116 264.177C915.116 264.177 917.832 262.92 917.612 263.829C917.375 264.736 916.822 267.584 916.822 267.584C916.822 267.584 918.528 268.713 919.201 268.83C919.886 268.941 921.817 272.687 921.817 272.687L921.36 276.542C921.36 276.998 921.606 280.296 921.472 280.867C921.36 281.431 926.13 282.469 926.13 282.469C926.13 282.469 929.901 279.378 930.129 279.031V279.028ZM593.23 110.276L596.986 107.094L597.788 104.023C597.788 104.023 601.302 104.596 601.408 105.05C601.519 105.497 602.329 104.023 603.222 104.825C604.141 105.617 605.279 105.495 605.396 106.182C605.495 106.866 606.186 107.661 606.297 107.205C606.408 106.749 606.408 105.275 606.408 105.275C606.408 105.275 605.396 104.711 604.819 104.357C604.246 104.021 604.366 102.997 604.936 102.669C605.495 102.33 607.087 101.403 607.546 101.751C608.003 102.082 610.051 101.298 610.051 101.298C610.051 101.298 610.39 100.605 610.613 100.28C610.85 99.927 611.985 96.868 611.985 96.868C611.985 96.868 611.175 96.529 610.952 95.502C610.724 94.487 612.207 91.531 612.555 91.422C612.881 91.305 617.331 88.688 617.331 88.688C617.331 88.688 619.031 86.866 618.349 86.307C617.661 85.731 612.553 83.236 612.553 82.669C612.553 82.102 611.985 79.148 612.316 78.019C612.661 76.887 614.712 74.72 615.049 74.264C615.394 73.822 617.892 70.752 618.349 70.854C618.805 70.977 620.505 70.626 620.95 70.409C621.415 70.172 625.38 68.359 624.701 68.248C624.022 68.137 624.933 66.093 624.585 66.204C624.245 66.315 624.933 63.595 625.728 63.37C626.523 63.145 627.879 62.121 628.236 62.121C628.555 62.121 631.302 62.235 631.981 62.346C632.66 62.457 635.045 61.328 635.384 62.346C635.723 63.364 636.625 63.595 635.841 63.934C635.045 64.276 633.228 65.867 632.089 66.882C630.96 67.9 627.543 70.186 627.086 70.289C626.641 70.409 626.393 70.628 625.492 71.204C624.584 71.76 624.584 70.411 624.368 72.561C624.131 74.722 623.8 77.103 624.245 77.907C624.701 78.7 625.035 79.948 624.585 80.518C624.135 81.088 624.468 81.428 624.585 82.448C624.702 83.468 626.088 83.919 626.185 84.375C626.29 84.828 628.107 85.735 628.107 85.735C629.014 85.632 630.061 85.515 630.27 85.972C630.506 86.425 630.963 86.2 630.963 86.2L632.877 85.735C632.877 85.735 634.819 84.6 635.504 84.714C636.183 84.828 637.087 84.489 637.883 84.714C638.679 84.939 642.082 83.807 642.55 83.918C643 84.044 646.172 82.672 646.409 83.128C646.637 83.581 648.343 83.467 648.343 83.467L649.709 84.488C649.709 85.167 648.343 86.755 648.009 86.991C647.664 87.213 646.532 88.134 645.85 87.898C645.171 87.679 644.703 88.012 643.796 87.679C642.886 87.331 641.18 86.869 640.721 86.869C640.268 86.869 634.939 88.135 634.939 88.135L632.221 88.922L631.75 90.518L632.095 90.857L634.822 92.556C634.822 93.129 635.966 92.784 635.729 94.147C635.507 95.507 635.39 96.074 635.05 96.753C634.702 97.437 633.345 98.686 633.005 97.888C632.666 97.095 630.968 95.619 630.509 95.279C630.064 94.94 628.701 95.165 627.885 95.165C627.095 95.165 625.5 96.303 625.5 97.551C625.5 98.799 624.71 100.402 625.044 101.63C625.389 102.896 626.872 104.487 626.193 105.277C625.5 106.075 623.92 106.642 623.241 106.979C622.562 107.316 620.959 108.456 620.397 108.681C619.829 108.906 618.124 109.587 617.778 108.795C617.445 107.997 616.76 106.751 616.76 106.751C616.76 106.751 616.192 105.622 615.956 105.961C615.753 106.289 614.484 106.417 614.484 106.417L611.543 107.549L609.606 108.909C609.255 109.134 607.555 109.134 606.873 109.473C606.194 109.818 604.146 111.52 603.584 110.725C603.008 109.935 602.68 111.292 601.978 110.044C601.314 108.798 601.53 107.432 600.729 107.666C599.944 107.894 598.113 108.344 597.899 108.798C597.662 109.251 597.437 109.251 596.998 109.704C596.541 110.155 593.241 110.497 593.241 110.497V110.272H593.23V110.276ZM687.374 194.368C686.524 196.586 686.524 199.477 685.323 201.695C684.125 203.899 683.615 205.09 682.767 206.47C681.912 207.816 681.912 209.698 680.554 210.547C679.193 211.405 677.151 212.594 675.956 211.745C674.772 210.889 669.994 211.063 669.469 211.234C668.964 211.405 663.176 211.063 662.489 212.246C661.81 213.444 657.394 212.594 656.69 212.246C656.011 211.91 647.664 208.497 646.985 208.335C646.306 208.167 642.028 206.296 641.34 205.786C640.661 205.27 636.408 204.751 636.243 204.244C636.069 203.731 636.582 203.052 635.889 203.223C635.222 203.38 630.27 204.925 629.591 205.424C628.898 205.954 627.386 207.314 627.386 207.314C627.386 207.314 625.323 209.355 625.494 210.886C625.677 212.42 627.545 213.612 626.867 214.462C626.189 215.312 623.803 216.332 623.803 216.332C623.803 216.332 621.23 213.951 620.391 213.612C619.538 213.27 611.537 212.081 611.537 212.081L608.297 208.335C608.297 208.335 603.185 204.925 602.671 204.754C602.157 204.583 596.533 204.754 595.671 204.075C594.816 203.383 592.091 199.813 590.734 199.987C589.367 200.155 589.884 197.943 590.394 197.604C590.904 197.265 592.437 194.368 592.268 193.858C592.091 193.342 593.118 190.456 591.418 189.607C589.715 188.734 590.902 185.841 590.902 185.841C590.902 185.841 592.611 185.501 591.929 185.501C591.247 185.501 588.691 185.672 588.004 184.823C587.333 183.97 587.142 183.634 586.481 183.97C585.785 184.315 581.523 184.994 581.018 184.823C580.502 184.655 576.42 185.162 575.738 185.162C575.056 185.162 575.909 185.336 575.059 185.162C574.195 184.991 570.783 186.533 570.618 187.203C570.461 187.885 567.049 187.047 566.533 187.203C566.014 187.374 561.076 187.374 561.076 187.374L552.889 188.737C552.889 188.737 547.438 191.48 547.27 192.329C547.102 193.178 545.393 194.545 544.885 194.875C544.38 195.22 541.314 194.875 541.126 194.368C540.966 193.858 535.503 194.545 535.503 194.545C535.503 194.545 533.293 193.344 532.611 193.86C531.932 194.371 531.932 191.64 531.932 191.64L532.782 189.613L535.846 187.563L543.185 186.188L546.765 183.814L548.97 182.961L550.328 179.389C550.328 179.389 552.886 178.879 552.715 178.36C552.547 177.849 551.877 175.463 551.877 175.463L556.809 167.803L563.794 164.393L564.99 162.007C564.99 162.007 564.319 158.945 564.821 158.426C565.329 157.913 569.933 156.889 569.933 156.889L575.732 158.765C575.732 158.765 578.796 156.727 579.475 156.384C580.154 156.041 583.4 154.172 583.4 154.172C583.4 154.172 583.731 152.641 584.415 152.809C585.099 152.977 587.995 152.299 588.343 153.662C588.683 155.024 591.239 159.287 591.239 159.287L595.155 163.378L598.912 166.274L603.516 167.971C603.516 167.971 606.237 170.357 606.745 170.528C607.255 170.693 609.808 173.599 609.808 173.599L611.169 175.973C611.169 175.973 610.322 177.855 609.64 178.71C608.961 179.551 606.916 181.775 606.403 181.593C605.889 181.436 601.961 180.755 601.961 180.755L597.705 181.262C597.705 181.262 597.035 182.285 598.224 183.135C599.413 183.985 600.777 183.819 601.964 184.498C603.176 185.176 606.24 186.548 606.24 186.548C606.24 186.548 608.291 186.878 608.291 187.386C608.291 187.894 608.964 186.023 608.793 184.834C608.622 183.645 608.448 182.117 609.643 181.772C610.844 181.433 612.709 181.772 612.709 181.256C612.709 180.749 613.232 180.059 613.232 180.059L614.763 178.2L614.592 177.011L616.135 175.8L614.592 173.935C613.919 173.08 613.232 172.569 613.725 171.717C614.247 170.87 615.944 169.673 616.814 170.357C617.661 171.036 620.212 171.375 620.04 172.233C619.878 173.077 620.04 174.266 620.388 173.596C620.717 172.909 620.56 170.183 620.56 170.183C620.56 170.183 619.193 168.316 617.998 168.145C616.817 167.968 613.725 166.44 612.881 166.101C612.037 165.762 610.504 164.912 610.504 164.912C610.504 164.912 611.178 163.039 610.171 163.21C609.138 163.378 606.075 162.859 606.075 162.357C606.075 161.835 603.002 159.446 602.845 158.947C602.674 158.426 599.939 154.682 599.939 154.682C599.939 154.682 598.396 153.151 598.233 152.641C598.056 152.128 597.893 151.275 597.551 149.918C597.2 148.556 600.954 145.149 600.786 145.656C600.612 146.158 601.642 146.848 602.332 148.379C603.002 149.918 605.732 152.47 606.075 153.491C606.411 154.508 610.171 157.414 611.009 157.744C611.877 158.081 612.37 159.113 614.082 159.791C615.793 160.476 615.628 160.803 617.838 161.833C620.043 162.856 620.391 163.207 620.719 163.706C621.073 164.225 622.425 164.056 622.947 164.906C623.455 165.753 624.137 165.927 624.137 166.776C624.137 167.625 624.83 167.623 624.47 169.328C624.137 171.03 623.629 171.54 623.803 171.879C623.974 172.227 627.043 178.534 628.239 178.534C629.428 178.534 633.002 179.896 632.492 181.932C631.984 183.973 634.702 186.702 634.702 186.702C634.702 186.702 636.982 186.847 638.556 187.109C638.622 185.92 638.371 184.013 639.663 183.292C641.18 182.439 643.4 181.581 643.055 180.74C642.707 179.891 642.367 178.351 641.009 177.336C639.663 176.318 638.282 175.788 637.943 174.103C637.609 172.395 637.09 170.172 638.622 170.859C640.154 171.534 641.52 174.787 642.216 172.558C642.886 170.348 644.586 168.812 645.776 169.325C646.982 169.835 649.199 170.685 649.028 171.366C648.857 172.047 650.56 177.507 650.56 177.507C650.56 177.507 651.238 178.023 651.578 180.572C651.918 183.121 654.131 183.805 653.797 184.657C653.452 185.501 652.425 186.012 655.164 186.36C657.876 186.702 660.446 187.206 660.446 187.888C660.446 188.57 662.66 188.925 663.002 189.427C663.336 189.94 665.381 190.958 665.726 189.94C666.066 188.928 666.75 186.867 667.261 187.209C667.772 187.563 672.03 187.563 672.376 188.931C672.729 190.274 675.619 190.274 675.619 190.636C675.619 190.964 678.175 189.784 678.175 189.784C678.175 189.784 681.749 187.052 682.773 187.563C683.791 188.073 686.681 185.678 686.341 187.893C686.008 190.109 688.23 192.158 687.374 194.368V194.368ZM704.412 164.387C703.91 164.903 700.661 168.133 700.661 168.133L694.183 167.278H689.756L686.008 165.921C686.008 165.921 683.446 165.071 682.938 164.555C682.419 164.045 679.193 162.848 679.193 162.848L672.37 164.384L667.081 165.921L665.219 167.617L658.909 166.089L655.164 164.219L653.107 161.998H654.984L654.316 159.275L654.644 157.405L656.342 156.376L657.542 151.441L659.593 150.588L660.098 148.04L662.323 145.987C662.834 145.482 664.537 143.087 664.537 143.087L668.616 144.795C668.616 144.795 672.878 145.311 672.199 145.485C671.506 145.65 669.466 148.042 669.466 148.042C669.466 148.042 671.001 148.881 671.705 149.402C672.37 149.913 673.913 150.757 673.568 151.786C673.223 152.804 676.124 152.635 676.124 152.635L677.148 150.933L681.912 149.744L683.617 148.883L680.888 148.045C680.888 148.045 678.503 147.184 678.848 146.671L681.404 142.751C681.404 142.751 687.032 141.055 687.537 141.055C688.036 141.055 691.468 140.373 691.468 140.373C691.468 140.373 688.74 143.096 688.39 143.612C688.04 144.128 688.567 145.819 687.711 146.509C686.866 147.187 685.657 147.877 685.155 148.051C684.633 148.208 684.975 149.918 685.489 150.092C686.013 150.266 687.711 150.942 687.711 150.942L695.213 154.853L699.811 159.449L703.402 162.36C703.4 162.349 704.923 163.88 704.412 164.387V164.387ZM747.713 186.864L743.435 187.374C743.435 187.374 739.692 185.841 739.532 185.165C739.347 184.486 738.5 182.953 737.986 183.292C737.479 183.637 735.776 183.805 735.268 183.637C734.76 183.463 732.869 181.932 732.869 181.251C732.869 180.57 732.35 179.044 733.208 178.354C734.07 177.675 735.773 176.489 735.428 175.965C735.1 175.46 734.911 173.262 734.911 172.903C734.911 172.561 734.911 172.227 735.944 172.053L736.962 171.879C736.962 171.879 737.302 170.864 736.788 170.351C736.281 169.838 733.203 167.623 732.863 167.115C732.544 166.608 728.773 163.033 728.265 162.505C727.76 162.007 725.541 160.476 725.541 160.476L724.348 157.913L725.367 154.68L722.309 153.998L721.63 151.791V151.275L724.856 147.535C724.856 147.535 727.081 146.346 727.586 146.671C728.097 147.025 729.283 145.653 729.48 145.143C729.631 144.621 732.866 142.409 733.559 142.07C734.235 141.733 735.425 140.199 736.115 141.052C736.788 141.899 741.047 143.27 741.047 143.27C741.047 143.27 742.593 143.606 742.408 144.279C742.242 144.972 740.876 149.402 740.876 149.402C740.876 149.402 737.818 148.55 737.479 148.721C737.148 148.883 734.76 149.744 735.268 151.104C735.776 152.464 733.397 151.615 733.562 152.296C733.727 152.977 734.07 153.995 734.586 154.337C735.102 154.679 737.984 156.208 738.329 157.231C738.662 158.26 743.432 161.325 743.432 161.325C743.432 161.325 743.948 161.662 743.777 162.354C743.617 163.033 743.266 166.608 743.777 166.608C744.288 166.608 745.474 166.434 745.474 166.434C745.474 166.434 747.023 163.204 747.537 163.546C748.044 163.882 750.092 165.413 750.603 166.605C751.102 167.797 752.135 168.983 751.621 169.325C751.099 169.661 748.72 169.496 748.042 169.496C747.371 169.496 746.165 168.644 745.825 168.983C745.474 169.325 744.807 170.175 745.312 171.192C745.825 172.224 746.855 173.753 747.371 174.103C747.873 174.437 748.378 174.257 749.924 175.637C751.456 177 751.964 177.673 751.456 179.209C750.948 180.745 751.282 182.106 751.456 182.611C751.624 183.121 751.964 184.313 752.312 184.823C752.643 185.336 752.643 186.012 752.643 186.012L747.713 186.864V186.864ZM686.21 50.67C686.15 50.647 686.085 50.647 686.062 50.647C686.008 50.67 686.073 50.67 686.21 50.67ZM1100.34 85.971C1100.35 85.945 1100.32 85.9 1100.3 85.865C1100.31 85.982 1100.31 86.039 1100.34 85.971ZM792.986 28.496C792.986 28.496 793.057 28.479 793.194 28.413C793.077 28.308 792.997 28.228 792.986 28.176C792.875 27.711 792.986 28.495 792.986 28.495V28.496ZM744.695 408.939C744.695 408.939 741.05 413.039 740.833 413.728C740.594 414.398 737.653 418.033 737.182 419.165C736.726 420.3 733.103 422.795 733.103 422.795L726.511 425.523C726.511 425.523 724.243 425.751 724.919 426.672C724.919 426.672 724.463 428.477 722.882 430.526C721.285 432.565 722.882 435.287 722.882 435.287L723.781 439.829V444.151C723.781 444.151 722.414 448.921 721.736 449.143C721.062 449.377 719.924 450.737 719.245 453.012C718.555 455.279 718.789 456.869 718.789 456.869C718.789 456.869 719.245 460.276 718.555 460.963C717.862 461.642 719.69 465.043 720.383 466.192C721.062 467.318 722.882 467.997 722.882 467.997C722.882 467.997 724.463 469.365 725.15 469.813C725.829 470.269 729.235 468.923 729.235 468.923C729.235 468.923 731.742 467.789 732.415 467.324C733.1 466.859 733.559 466.645 734.911 464.373C736.283 462.101 735.376 462.779 735.59 462.101C735.833 461.422 737.179 458.46 737.872 454.603C738.551 450.74 738.785 450.968 739.689 447.564C740.591 444.154 741.729 443.239 741.957 440.528C742.185 437.799 742.408 436.656 742.63 435.741C742.864 434.84 745.146 431.436 745.363 429.158C745.585 426.897 745.585 425.754 745.146 424.853C744.695 423.932 747.873 424.611 748.318 423.251L748.552 422.581C748.783 421.888 749.017 417.58 749.017 415.086C749.017 412.592 746.515 408.711 746.264 408.044C746.056 407.359 744.695 408.939 744.695 408.939V408.939ZM971.71 376.013C972.403 374.197 971.71 373.969 971.262 373.062C970.814 372.155 972.161 368.073 973.987 366.476C975.804 364.883 973.08 364.649 973.08 364.649L970.353 365.105L967.851 360.335C967.851 360.335 963.532 356.94 962.174 356.025C960.808 355.124 964.205 353.296 964.205 353.296C964.205 353.296 956.498 346.029 955.585 346.029C954.678 346.029 950.122 342.4 949.443 342.163C948.765 341.944 945.13 335.806 945.13 335.806L929.67 328.088C929.67 328.088 927.63 329.913 927.63 330.811C927.63 331.72 930.36 332.174 930.36 332.174C930.36 332.174 931.262 332.852 932.172 333.311C933.082 333.77 935.803 336.034 936.034 337.633C936.254 339.215 936.718 340.128 938.307 341.482C939.908 342.848 942.62 343.54 942.62 343.54C942.62 343.54 943.77 347.395 944.68 347.851C945.581 348.307 946.269 350.343 946.711 351.486C947.17 352.621 951.494 359.66 951.249 362.157C951.032 364.657 954.45 370.568 954.45 370.568C954.45 370.568 962.177 376.691 962.405 377.607C962.628 378.508 968.29 380.104 968.29 380.104C968.29 380.104 971.031 377.826 971.71 376.013V376.013ZM1024.44 329.448C1024.44 328.541 1021.93 326.503 1021.25 325.588C1020.57 324.673 1016.48 321.04 1015.58 320.362C1014.67 319.683 1015.58 320.362 1014.22 322.871C1012.85 325.365 1011.26 328.316 1010.57 328.539C1009.89 328.767 1004.9 331.943 1003.53 333.531C1002.17 335.119 999.448 339.213 998.541 338.548C997.634 337.856 993.752 341.479 993.752 341.479L991.712 346.477L985.345 345.123L985.796 347.173C985.796 347.173 983.762 350.337 984.219 351.033C984.675 351.714 984.219 354.217 984.898 355.566C985.571 356.94 986.258 357.844 987.393 358.75C988.528 359.656 988.754 362.611 988.072 364.883C987.39 367.155 988.988 367.605 989.889 368.526C990.797 369.427 992.839 369.661 993.752 368.968C994.659 368.284 996.482 368.07 997.631 368.749C998.744 369.427 1001.72 369.427 1002.62 370.565C1003.52 371.703 1007.16 371.015 1007.84 371.699C1008.53 372.378 1012.16 371.015 1013.07 370.094C1013.96 369.205 1013.07 367.392 1013.07 364.427C1013.07 361.476 1013.52 361.704 1015.12 360.566C1016.71 359.432 1017.85 358.522 1018.07 356.943C1018.31 355.343 1018.76 352.621 1018.76 351.255C1018.76 349.889 1022.39 350.123 1023.07 349.664C1023.77 349.208 1022.61 348.304 1022.61 347.626C1022.61 346.936 1019.66 343.763 1018.99 342.625C1018.31 341.482 1020.11 335.806 1021.24 334.899C1022.4 333.99 1024.44 330.357 1024.44 329.448V329.448ZM992.622 390.544C993.298 390.772 994.887 390.772 998.284 391.679C1001.71 392.586 1004.89 392.819 1005.34 393.723C1005.8 394.624 1008.74 393.723 1010.12 393.501C1011.48 393.267 1014.67 390.313 1016.71 392.588C1018.76 394.861 1022.84 393.267 1023.53 393.723C1024.21 394.165 1026.27 392.589 1028.75 392.822C1031.26 393.039 1031.48 393.723 1032.16 393.723C1032.84 393.723 1035.12 394.407 1036.25 394.165C1037.39 393.946 1038.75 392.586 1040.8 392.819C1042.85 393.036 1048.29 391.217 1048.29 391.217C1048.29 391.217 1048.29 391.448 1046.95 392.355C1045.57 393.261 1041.03 396.663 1041.03 396.663C1041.03 396.663 1040.34 396.215 1040.11 397.583C1039.89 398.943 1038.53 401.675 1039.89 400.526L1047.17 394.405C1048.29 393.498 1048.75 393.036 1049.89 392.355C1051.02 391.676 1053.52 390.989 1053.52 390.989L1055.12 389.854C1055.12 389.854 1053.75 388.953 1053.06 389.176C1052.4 389.412 1051.25 388.275 1049.67 388.953C1048.07 389.632 1043.76 390.313 1043.76 390.313C1043.76 390.313 1041.03 390.772 1039.44 390.094C1037.85 389.416 1036.02 388.275 1035.35 389.179C1034.67 390.094 1030.81 391.223 1030.11 391.223C1028.43 391.146 1026.76 390.92 1025.12 390.547C1023.3 390.097 1022.84 390.097 1021.94 390.097C1021.03 390.097 1021.03 389.418 1018.53 389.182C1016.02 388.959 1015.33 388.281 1014.67 388.503C1013.97 388.74 1012.86 388.959 1011.95 389.418C1011.03 389.86 1008.29 389.86 1007.63 389.182C1006.94 388.503 1000.12 387.143 1000.12 387.143C1000.12 387.143 999.214 386.008 1001.27 385.327C1003.3 384.649 1002.86 384.649 1002.62 383.745C1002.4 382.821 998.98 382.821 998.085 383.066C997.178 383.277 994.89 383.745 993.983 382.821C993.081 381.932 990.351 379.634 989.45 381.002C988.534 382.368 988.994 384.19 988.078 383.967C987.177 383.745 981.027 384.418 981.027 383.745C981.027 383.066 979.438 381.239 978.753 381.002C978.074 380.783 978.302 380.104 977.17 379.634C976.029 379.203 973.761 379.867 973.761 379.867L971.494 380.104L968.761 383.277C968.761 383.277 975.125 383.967 975.807 384.871C976.485 385.783 979.897 388.5 979.897 388.5L985.576 389.86C986.715 390.094 991.943 390.313 992.622 390.544V390.544ZM985.131 263.132C984.427 262.681 982.624 262.681 982.624 262.681L980.348 263.585L979.212 263.132L976.705 266.544C976.705 266.544 977.39 270.399 978.071 270.399H981.252L983.762 268.585L985.131 265.184C985.131 265.184 985.796 263.588 985.131 263.132V263.132ZM1021.93 254.048L1023.3 251.317L1024.21 247.913C1024.44 247.22 1025.33 245.182 1024.67 244.047C1023.99 242.912 1024.44 241.327 1023.99 240.418C1023.53 239.517 1023.3 238.148 1023.3 238.148L1021.03 239.052C1020.12 239.959 1018.76 244.047 1018.76 244.047C1018.76 244.047 1017.85 248.15 1018.53 249.036L1021.03 252.452L1021.93 254.048ZM1050.57 322.406C1052.61 323.093 1053.3 322.648 1053.06 321.716C1052.84 320.81 1052.15 316.048 1051.7 314.238C1051.24 312.422 1054.42 311.051 1051.02 308.334L1047.62 305.597C1047.39 305.369 1047.39 303.102 1047.39 303.102C1047.39 303.102 1048.07 300.836 1047.62 300.157C1047.17 299.478 1046.71 298.113 1046.25 297.434C1045.8 296.75 1045.8 296.528 1044.43 296.528C1043.07 296.528 1043.07 294.934 1042.16 295.154C1041.26 295.382 1038.98 297.195 1040.57 294.487C1042.16 291.744 1041.26 291.293 1041.26 290.837C1041.26 290.387 1040.11 289.708 1038.98 289.483C1037.85 289.249 1036.93 287.889 1035.34 288.343C1033.76 288.81 1033.08 287.67 1032.16 287.67C1031.26 287.67 1030.8 286.527 1030.58 285.175C1030.35 283.81 1030.8 281.081 1030.8 280.406C1030.8 279.716 1032.16 277.674 1032.16 277.674C1032.16 277.674 1032.62 276.756 1032.16 275.174C1031.71 273.589 1030.8 270.86 1030.8 269.729C1030.8 268.598 1028.29 267.456 1028.29 267.456L1025.33 268.591L1024.21 278.587C1024.21 278.587 1022.16 279.259 1022.4 280.166C1022.61 281.081 1022.61 285.398 1023.75 286.304C1024.88 287.202 1026.71 288.343 1026.71 288.343C1027.16 289.483 1026.04 291.744 1026.04 291.744C1026.04 291.744 1028.75 294.937 1028.99 295.849C1029.21 296.75 1030.58 296.291 1030.58 296.291C1030.58 296.291 1029.9 290.162 1031.26 291.291C1032.62 292.431 1036.25 292.217 1036.48 293.569C1036.71 294.934 1039.21 296.291 1039.65 297.662C1040.11 299.025 1043.07 299.481 1042.85 300.605C1042.62 301.745 1040.8 301.745 1039.65 301.97C1038.53 302.198 1034.89 299.481 1034.89 299.481C1034.89 299.481 1033.98 299.253 1033.76 300.608C1033.54 301.973 1034.21 305.374 1035.12 306.509C1036.02 307.652 1036.94 306.509 1037.4 307.188C1037.85 307.88 1037.4 309.468 1038.08 310.381C1038.75 311.287 1040.57 311.51 1041.26 311.054C1041.94 310.609 1044.21 309.466 1044.21 309.466C1044.21 309.466 1043.97 306.743 1043.07 306.278C1042.16 305.828 1040.8 304.462 1041.49 303.792C1042.16 303.105 1043.52 301.745 1044.21 301.967C1044.88 302.196 1046.49 305.149 1046.25 305.828C1046.03 306.506 1046.25 306.743 1047.17 309.232C1048.07 311.746 1048.53 311.287 1047.39 311.746C1046.25 312.188 1045.12 313.562 1044.43 314.013C1044.28 314.118 1044.26 314.184 1044.28 314.227C1044.11 314.172 1043.68 314.093 1042.62 314.013C1039.65 313.785 1040.34 312.425 1039.65 313.785C1038.98 315.145 1038.29 316.279 1038.29 316.279L1036.71 316.958C1036.71 316.958 1035.57 320.587 1035.79 321.719L1036.02 322.874C1036.02 322.874 1038.29 318.549 1038.98 318.549C1039.65 318.549 1039.65 319.683 1040.57 318.999C1041.49 318.321 1042.4 318.783 1042.4 318.783C1042.4 318.783 1043.76 318.093 1043.52 319.903C1043.31 321.719 1043.31 321.947 1043.97 323.786C1044.67 325.591 1046.49 326.503 1047.17 327.181C1047.85 327.859 1048.75 328.316 1049.21 328.769C1049.66 329.22 1049.89 326.725 1049.66 324.909C1049.43 323.093 1048.53 321.716 1050.57 322.406V322.406ZM1034.67 349.889C1037.18 351.255 1038.75 351.942 1040.8 352.621C1042.85 353.3 1044.88 351.255 1045.34 351.717C1045.79 352.165 1047.85 350.12 1047.85 350.12C1047.85 350.12 1049.43 347.848 1049.21 347.175C1048.98 346.48 1048.75 344.441 1048.29 345.125C1047.85 345.798 1043.52 348.304 1042.62 348.524C1041.72 348.752 1039.44 347.848 1037.4 347.848C1035.35 347.848 1030.35 346.254 1029.66 346.936C1029 347.626 1026.94 350.34 1027.16 351.486C1027.39 352.621 1027.16 353.302 1027.16 353.992C1027.16 354.671 1026.48 357.847 1026.48 356.943L1023.3 365.33C1023.3 365.33 1025.8 371.702 1025.58 372.84C1025.34 373.969 1024.89 380.338 1025.58 379.645C1026.27 378.952 1029.66 378.51 1029.66 378.51C1029.66 378.51 1030.81 374.422 1030.59 372.609C1030.35 370.793 1028.3 365.111 1030.12 365.567C1031.95 366.023 1033.76 368.29 1033.76 368.29C1033.76 368.29 1032.39 369.667 1032.85 370.57C1033.3 371.474 1034.89 372.609 1034.67 374.653C1034.44 376.697 1035.35 377.609 1035.35 376.92C1035.35 376.241 1037.63 377.376 1037.85 377.832C1038.05 378.24 1040.2 376.338 1040.53 376.355C1040.56 375.677 1040.9 372.891 1040.34 372.156C1039.66 371.249 1039.66 369.889 1038.08 368.073C1036.48 366.237 1038.53 365.798 1036.94 363.737C1035.35 361.707 1034.67 362.385 1035.35 361.707C1036.02 361.02 1037.4 360.569 1038.53 359.888C1039.66 359.207 1040.57 357.393 1040.57 357.393C1040.8 356.715 1041.26 356.943 1039.44 356.487C1037.63 356.03 1036.03 355.569 1034.89 356.943C1033.76 358.297 1032.63 358.525 1032.63 358.525L1031.72 358.753C1030.81 358.981 1031.03 357.393 1030.35 357.165C1029.66 356.943 1029.66 356.715 1029.22 355.127C1028.76 353.533 1029.22 351.033 1029.91 350.568C1030.58 350.12 1032.16 348.524 1034.67 349.889V349.889ZM1040.57 376.463C1040.59 376.386 1040.57 376.358 1040.53 376.352C1040.52 376.506 1040.53 376.595 1040.57 376.463ZM1129.65 376.463C1129.43 375.098 1129.19 373.513 1128.53 372.381C1127.83 371.246 1113.05 363.511 1111.24 362.833C1109.42 362.154 1099.9 359.201 1099.9 359.201C1099.9 359.201 1095.34 361.017 1095.34 361.704C1095.34 362.382 1093.06 364.883 1092.15 365.798C1091.25 366.699 1091.47 367.608 1090.11 367.386C1088.74 367.158 1088.53 367.386 1087.82 366.702C1087.16 366.023 1086.47 363.737 1085.56 363.067C1084.65 362.388 1082.84 361.479 1083.28 359.663C1083.74 357.847 1084.41 355.352 1083.05 355.352C1081.69 355.352 1079.66 356.267 1079.2 355.569C1078.74 354.902 1076.02 355.13 1076.02 355.13L1070.35 356.718L1069.64 356.946C1069.64 356.946 1072.15 361.71 1073.75 361.251C1075.34 360.803 1078.29 364.432 1078.29 364.432C1078.29 364.432 1077.39 366.482 1077.84 367.161C1078.29 367.84 1080.11 371.252 1080.11 371.252L1083.74 371.024L1087.38 372.612L1097.16 375.791L1099.89 378.958L1101.48 385.789C1101.48 385.789 1097.38 388.506 1097.61 389.643C1097.84 390.78 1102.84 389.424 1102.84 389.424L1106.93 391.462L1111.91 393.957L1117.61 394.176L1121.01 390.322C1121.01 390.322 1126 386.011 1126 386.921C1126 387.831 1130.56 389.643 1131.24 391.69C1131.93 393.735 1136.02 397.378 1136.02 397.378L1142.37 399.422C1143.05 399.633 1144.65 399.873 1146.25 400.323C1147.84 400.776 1144.65 396.226 1144.65 396.226C1144.65 396.226 1139.64 393.276 1139.42 392.138C1139.2 391 1135.11 387.605 1135.33 386.467C1135.56 385.333 1133.5 383.973 1134.42 383.973C1135.33 383.973 1138.96 383.522 1138.51 382.827C1138.06 382.16 1135.56 377.835 1134.42 377.835C1133.29 377.826 1129.89 377.826 1129.65 376.463V376.463ZM1137.38 453.229C1137.38 453.229 1134.88 452.103 1134.65 452.556C1134.43 453.012 1133.51 448.239 1133.51 448.239L1133.97 445.745C1133.97 445.745 1127.14 437.104 1126.93 437.796C1126.68 438.475 1124.42 430.754 1124.42 430.754L1123.75 422.353L1122.15 417.352L1118.07 417.808L1117.16 409.626L1114.87 401.905L1113.75 401.455L1111.47 406.672L1109.87 416.445C1109.42 418.94 1109.2 422.581 1107.84 424.853L1103.29 432.565C1103.29 432.565 1099.65 432.565 1099.19 431.886C1098.74 431.208 1094.65 429.158 1094.65 429.158L1092.14 425.301L1088.07 422.127C1088.07 422.127 1085.32 418.712 1085.1 418.94C1084.88 419.168 1087.16 415.767 1087.82 415.308C1088.52 414.857 1088.73 412.591 1088.73 412.591L1092.37 409.629C1092.37 409.629 1093.05 408.491 1092.37 407.818C1091.69 407.131 1091.69 405.994 1090.78 405.76C1089.87 405.538 1084.64 408.046 1084.64 408.046L1080.33 405.994C1080.33 405.994 1077.14 404.4 1076.47 403.265C1075.79 402.136 1073.96 401.455 1073.51 401.905C1073.05 402.362 1073.51 404.628 1073.51 404.628L1074.77 407.254C1074.36 406.9 1072.83 408.044 1072.83 408.044L1068.51 408.486L1065.78 410.983L1063.73 414.852L1062.37 417.577C1062.37 417.577 1063.5 419.393 1063.05 419.162C1062.6 418.937 1056.46 420.756 1056.46 420.756C1056.46 420.756 1054.86 417.352 1054.18 416.671C1053.5 415.984 1051.46 414.852 1050.55 414.852C1049.65 414.852 1047.37 416.899 1047.37 416.899L1046.47 421.663L1043.05 420.756L1040.09 425.751L1037.17 426.894L1035.56 430.295L1034.65 426.672L1031.25 429.845L1030.1 435.057C1030.1 435.057 1025.78 439.153 1025.33 440.06C1024.88 440.961 1015.32 444.385 1015.32 444.385L1009.2 446.423C1009.2 446.423 1006.02 447.102 1005.33 447.102C1004.65 447.102 998.735 451.424 998.735 451.424L996.707 453.462L996.022 451.646L993.521 454.369V460.051L991.019 463.449L992.385 468.67L990.34 469.359L988.523 470.731L990.571 474.819L991.25 482.297C991.25 482.297 992.382 484.578 992.16 485.946C991.935 487.295 991.019 488.663 991.019 489.57C991.019 490.477 991.704 493.881 991.704 494.787C991.704 495.7 989.65 501.618 989.65 501.618L987.162 505.701L985.123 505.929C985.123 505.929 985.562 510.248 986.25 510.248C986.928 510.248 988.982 511.146 990.791 511.842C992.616 512.506 995.566 511.386 996.25 511.149C996.929 510.921 1001.94 508.198 1001.94 508.198C1001.94 508.198 1004.89 506.16 1005.79 506.382C1006.7 506.61 1010.8 505.932 1011.47 506.382C1012.16 506.838 1017.38 506.61 1017.38 506.61L1020.56 503.209L1029.2 499.343L1033.52 498.887L1043.96 495.939L1052.83 496.843C1052.83 496.843 1060.34 502.302 1060.34 501.846C1060.34 501.396 1061.92 504.803 1061.92 504.803L1061.47 509.108C1061.47 509.108 1063.97 511.152 1064.19 510.473C1064.42 509.789 1066.93 507.066 1067.61 506.385C1068.28 505.707 1070.34 504.803 1071.93 503.668C1073.51 502.528 1073.96 501.846 1073.96 501.846C1073.96 501.846 1072.38 506.385 1071.69 506.385C1071.01 506.385 1069.64 507.745 1068.96 508.657C1068.28 509.558 1067.16 510.254 1067.16 510.71C1067.16 511.152 1068.52 511.152 1069.18 510.71C1069.87 510.254 1071.01 508.88 1071.93 508.423C1072.83 507.973 1073.3 508.201 1073.06 509.336C1072.83 510.47 1072.83 511.597 1071.93 512.053C1071.01 512.509 1069.87 513.187 1068.28 514.105C1066.7 515.018 1065.56 514.325 1064.88 515.018C1064.19 515.702 1065.33 516.389 1065.78 516.834C1066.24 517.29 1067.39 518.658 1068.28 517.068C1069.18 515.474 1070.34 514.325 1071.01 513.883C1071.69 513.438 1073.06 512.053 1073.06 513.19C1073.06 514.327 1073.75 515.477 1073.96 516.392C1074.2 517.29 1072.38 519.106 1072.6 519.557C1072.83 520.013 1075.11 525.01 1075.11 525.01C1075.11 525.01 1076.47 526.815 1078.06 526.815C1079.65 526.815 1083.05 527.961 1083.74 528.198C1084.4 528.412 1087.61 528.198 1088.06 527.283C1088.52 526.37 1091.24 524.554 1091.02 525.233C1090.78 525.917 1091.24 527.283 1091.92 527.961C1092.6 528.639 1093.74 530.47 1093.74 530.47L1102.15 523.87C1102.15 523.87 1108.51 522.504 1108.73 523.192C1108.96 523.87 1113.04 518.659 1113.04 518.659L1125.99 502.761L1131.01 499.346L1134.64 494.12L1139.64 485.023L1142.37 474.828L1144.41 467.102L1139.41 459.595L1137.38 453.229V453.229ZM1086.92 537.954C1086.92 537.954 1083.75 535.91 1083.28 535.231V534.547L1081.02 541.58L1078.98 549.087C1078.98 549.087 1083.06 549.543 1083.51 549.765C1083.97 549.985 1090.79 545.908 1091.03 544.996C1091.25 544.083 1095.8 536.591 1095.8 536.591C1095.8 536.591 1088.53 538.179 1086.92 537.954V537.954ZM1210.1 524.785L1207.82 522.499C1207.82 522.499 1208.06 519.326 1207.37 519.326C1206.7 519.326 1205.55 519.554 1205.55 519.554L1206.7 511.594L1202.58 509.105L1201.69 521.37L1198.73 528.198L1192.83 530.47C1192.83 530.47 1195.33 532.959 1196.24 532.959C1197.14 532.959 1195.55 535.685 1195.55 535.685L1191.69 539.094C1191.69 539.094 1190.34 538.407 1190.34 536.591C1190.34 534.769 1186.69 538.407 1186.69 538.407L1184.19 536.813L1177.37 542.709L1168.06 547.49L1146.25 560.899L1149.19 562.487C1149.19 562.487 1151.92 563.621 1152.15 564.08C1152.37 564.525 1158.96 561.124 1158.96 561.124L1166.47 555.664L1170.09 552.491C1170.09 552.491 1176.7 550.675 1176.46 551.584C1176.24 552.491 1178.51 547.271 1178.51 547.271L1184.87 543.864L1188.74 540.009L1191.91 540.902L1196.46 539.314L1204.19 534.322L1205.55 530.225L1208.06 530.467L1212.82 527.052L1216 521.601L1210.1 524.785V524.785ZM294.286 26.697C296.103 27.364 297.235 27.601 301.106 27.829C304.971 28.046 305.428 27.601 307.242 28.277C309.045 28.95 310.642 30.11 311.33 28.497C312.008 26.918 312.918 26.918 313.597 26.005C314.276 25.098 313.597 24.189 314.73 23.736C315.863 23.283 317.916 25.558 317.916 25.558C317.916 25.558 315.411 27.149 316.547 27.366C317.679 27.603 320.863 28.278 322.463 28.498C324.055 28.735 322.691 29.179 325.418 29.43C328.139 29.644 329.278 29.179 332.681 29.179C336.092 29.179 338.149 27.602 339.281 28.047C340.414 28.497 344.273 28.497 345.406 28.278C346.541 28.047 349.282 25.558 348.138 25.558C346.994 25.558 342.682 24.415 340.867 24.192C339.052 23.969 333.357 23.739 332.01 24.417C330.635 25.101 329.047 25.56 328.139 25.101C327.232 24.648 332.01 21.018 335.185 21.469C338.371 21.922 343.138 21.019 344.727 21.244C346.316 21.469 350.192 22.151 350.192 22.151C350.192 22.151 351.091 21.698 351.316 21.019L351.775 19.656L354.052 21.697C354.052 21.697 369.042 15.57 369.732 14.427C370.414 13.281 379.944 10.336 381.327 10.573C382.688 10.79 391.996 6.707 393.599 7.386C395.168 8.067 403.586 5.353 403.586 5.353C403.586 5.353 409.73 3.985 411.093 3.985C412.456 3.985 413.136 2.4 411.093 2.625C409.043 2.85 391.993 2.85 387.914 2.625C383.812 2.4 373.82 2.616 372.231 2.85C370.639 3.078 361.54 5.576 357.683 5.353C353.815 5.122 341.324 6.932 340.645 6.707C339.955 6.479 334.968 6.254 335.425 6.254C335.867 6.254 328.821 11.933 327.686 10.337C326.553 8.749 327.686 7.614 326.553 8.749C325.42 9.884 325.643 15.112 325.643 15.112C327.004 16.024 329.959 19.2 332.01 17.84C334.044 16.474 335.185 17.159 335.867 17.378C336.54 17.609 332.692 20.563 330.41 20.563C328.139 20.563 320.863 23.289 320.863 23.289C320.863 23.289 317.679 20.335 316.997 20.11C316.315 19.885 312.462 19.657 311.78 19.657C311.098 19.657 310.189 18.979 309.963 21.02C309.737 23.061 310.189 26.237 307.921 25.784C305.644 25.328 304.968 26.234 303.827 25.562C302.692 24.878 305.425 21.471 302.227 21.246C299.047 21.021 297.232 18.751 295.415 22.378C293.598 26.005 292.474 26.007 294.286 26.7V26.697ZM212.025 40.767C211.335 41.913 217.921 42.363 218.372 41.46C218.848 40.542 222.93 41.223 223.834 39.869C224.741 38.503 229.28 35.775 229.961 36.228C230.643 36.687 228.601 38.954 227.919 39.184C227.237 39.409 230.204 39.632 227.237 41.915C224.291 44.182 224.972 46.231 224.972 46.231C224.972 46.231 222.474 47.363 224.291 47.819C226.108 48.275 229.514 49.86 229.514 49.86C229.514 49.86 229.739 51.448 229.739 51.904C229.739 52.36 230.883 53.72 233.37 52.132C235.886 50.541 240.878 48.731 241.56 49.409C242.242 50.087 243.836 49.181 246.115 48.953C248.377 48.731 250.203 48.046 250.203 48.046L253.152 48.502C254.519 49.18 255.66 47.595 257.942 48.952C260.201 50.315 263.376 50.315 263.376 50.315C263.376 50.315 266.565 47.82 267.241 47.595C267.926 47.367 269.286 47.142 268.605 45.551C267.924 43.96 265.427 41.463 266.109 40.995C266.787 40.545 268.376 40.088 268.151 35.778C267.926 31.468 268.605 32.154 267.469 32.377C266.337 32.605 263.604 33.968 263.604 33.968L262.703 33.74C262.252 35.1 260.201 36.009 259.733 37.372C259.283 38.732 257.942 39.413 257.942 38.279C257.942 37.145 256.344 36.913 256.102 36.007C255.891 35.097 253.834 35.329 252.702 35.554C251.564 35.779 248.377 33.51 247.239 34.419C246.115 35.329 244.966 33.968 244.059 31.924C243.16 29.883 242.016 28.283 240.653 28.503C239.289 28.74 230.883 28.503 230.883 28.503L225.882 28.956C225.882 28.956 223.161 29.649 223.161 31.017C223.161 32.38 222.705 33.289 221.344 33.74C219.972 34.193 209.977 37.825 209.977 37.825C209.977 37.825 212.707 39.627 212.025 40.764V40.767ZM283.378 35.324L280.879 34.868C280.879 34.868 280.654 33.052 279.975 33.052C279.27 33.052 277.242 35.55 277.242 35.55C277.242 35.55 280.203 36.685 280.656 37.594C281.109 38.503 282.242 39.632 282.242 40.322C282.242 40.992 289.739 38.047 289.739 38.047L293.841 36.003C293.841 36.003 294.052 36.456 294.294 35.325C294.522 34.19 293.841 33.284 294.294 33.053C294.742 32.828 296.562 29.88 294.742 30.333C292.922 30.778 289.054 30.333 287.24 31.012C285.426 31.691 283.158 30.111 283.383 31.919C283.603 33.735 283.378 35.326 283.378 35.326V35.324ZM247.014 24.872C247.014 24.872 247.921 28.735 249.747 27.603C251.561 26.457 256.781 30.334 256.781 30.776C256.781 31.244 258.595 31.013 258.595 31.013L266.559 28.279L271.003 27.603C271.003 27.603 275.197 27.366 275.873 27.831C276.546 28.279 279.972 26.699 279.972 26.699L281.33 24.415L278.372 23.508L279.062 21.239C279.062 21.239 278.146 19.876 276.109 21.464C274.05 23.055 268.376 26.228 268.827 25.555C269.283 24.871 266.562 25.777 265.424 24.412C264.28 23.055 262.697 22.824 262.697 22.824C262.697 22.824 259.502 21.692 258.378 22.146C257.237 22.599 260.421 19.877 260.421 19.877C260.421 19.877 261.102 17.377 259.727 17.608C258.378 17.839 247.236 20.334 247.236 20.334C247.236 20.334 242.464 23.057 241.56 22.372C240.653 21.694 237.247 22.825 237.247 22.825L239.517 24.188C240.196 23.507 247.014 24.872 247.014 24.872V24.872ZM297.692 15.564C298.371 15.784 303.83 17.374 304.512 17.605C305.194 17.836 307.245 18.286 308.138 18.061C309.045 17.836 312.684 16.023 311.33 15.338C309.963 14.66 305.644 13.733 304.734 13.274C303.827 12.824 300.413 12.61 300.413 12.61L298.368 13.052C297.92 13.733 297.013 15.341 297.692 15.564V15.564ZM275.873 19.424C276.797 18.973 279.972 17.608 279.972 17.608L282.685 15.341L283.603 14.192C283.603 14.192 281.561 12.387 280.651 13.055C279.744 13.736 274.957 15.786 274.957 15.786L274.732 17.377L271.003 18.973C271.003 18.973 274.957 19.877 275.873 19.424ZM316.786 18.745C317.682 18.973 320.412 18.973 320.64 18.289C320.868 17.605 320.415 12.826 320.415 12.826C320.415 12.826 319.496 11.475 318.367 11.7C317.231 11.925 313.6 13.733 313.6 13.733C313.369 14.423 315.868 18.517 316.786 18.745V18.745ZM259.391 260.793C259.234 260.288 256.67 259.453 255.309 259.453C253.948 259.453 248.999 254.669 248.668 253.645C248.315 252.622 237.247 249.905 237.247 249.905C237.247 249.905 225.144 249.221 225.144 248.887C225.144 248.531 219.344 253.483 219.344 253.483V253.99C219.344 253.99 219.844 256.371 220.038 256.884C220.197 257.392 223.951 254.153 224.291 252.796C224.631 251.439 227.354 251.088 228.033 250.746C228.726 250.415 229.054 252.123 229.739 252.123C230.424 252.123 233.496 253.138 233.496 253.138L239.632 255.182L242.016 257.392C242.016 257.392 243.035 262.831 243.035 263.524C243.035 264.211 247.639 263.855 247.639 263.855L256.67 263.022C256.667 263.019 259.573 261.306 259.391 260.793V260.793ZM259.063 272.211C259.904 272.55 261.265 272.043 261.955 272.043C262.645 272.043 264.859 271.532 264.859 271.532C264.859 271.532 265.538 273.066 265.538 273.579C265.538 274.081 269.112 273.403 269.112 272.889C269.112 272.375 269.965 271.019 269.965 271.019L274.218 270.17L280.531 270.341C281.044 270.341 281.387 269.32 280.354 267.447C279.341 265.568 276.432 265.217 275.75 263.852C275.068 262.5 271.836 263.364 270.981 263.852C270.131 264.368 265.367 262.677 263.995 262.677C262.643 262.677 263.995 264.208 263.995 264.208L263.481 269.146H257.862L257.688 269.654C257.688 269.654 256.15 270.167 256.15 271.19C256.156 272.211 258.201 271.872 259.063 272.211V272.211Z" fill="#F2F6FF"/>
</g>
<defs>
<clipPath id="clip0_21835_230903">
<rect width="1216" height="602" fill="white"/>
</clipPath>
</defs>
</svg>
