<svg id="SvgjsSvg1016" width="256" height="256" xmlns="http://www.w3.org/2000/svg" version="1.1" xmlns:xlink="http://www.w3.org/1999/xlink" xmlns:svgjs="http://svgjs.com/svgjs"><defs id="SvgjsDefs1017"></defs><g id="SvgjsG1018"><svg xmlns="http://www.w3.org/2000/svg" fill-rule="evenodd" clip-rule="evenodd" image-rendering="optimizeQuality" shape-rendering="geometricPrecision" text-rendering="geometricPrecision" viewBox="0 0 512 512" width="256" height="256"><rect width="512" height="512" fill="none"></rect><path fill="#451313" d="M442 295c11,46 -32,101 -100,126 -52,19 -126,22 -160,-38 80,30 231,-169 260,-88z" class="color451313 svgShape"></path><path fill="#451313" d="M172 356c-11,-46 32,-101 99,-126 52,-19 127,-22 161,38 -80,-30 -231,169 -260,88z" class="color451313 svgShape"></path><path fill="#451313" d="M161 325c-23,-13 -44,-33 -61,-59 -31,-45 -51,-117 -1,-164 -6,47 63,99 112,145 -30,22 -48,51 -50,78z" class="color451313 svgShape"></path><path fill="#451313" d="M123 86c42,-22 106,7 146,67 11,17 20,36 26,57 -12,2 -23,6 -34,9 -12,5 -24,11 -35,17 -59,-60 -152,-118 -103,-150z" class="color451313 svgShape"></path></svg></g></svg>