<svg xmlns="http://www.w3.org/2000/svg" data-name="Layer 1" viewBox="0 0 512 512" id="corn"><path fill="#fdd402" d="M341.99,297.1499c-.16,16.43006-.61,32.8501-1.2,49.2201-.85,23.89-4.05,49.5-19.53,68.69006-.55.67993-1.11,1.33984-1.68,2a62.66874,62.66874,0,0,1-15.02,12.5A75.30983,75.30983,0,0,1,289.03,436.6c-15.15,4.98-32,5.75-47.32,3.5a105.75492,105.75492,0,0,1-18.74-4.52,107.26146,107.26146,0,0,1-13.55-5.7l-.1-.06994a71.03257,71.03257,0,0,1-22.35-22.66016c-15.7-25.31994-15.72-59.0199-15.91-89.49q-.045-7.36487-.09-14.72c-.15-32.28,0-64.61,2.33-96.76.94-12.99,2.24-25.93994,4.02-38.85C182.9,126.89,203.06.32007,262.81,7.82007c45.96,5.7699,61.87,104.75,68.26,138.92993,3.67,19.63,6.22,39.3999,7.94,59.26C341.63,236.28,342.3,266.74,341.99,297.1499Z"></path><path fill="#fbbf13" d="M258.12771,448.81006a120.6099,120.6099,0,0,1-17.501-1.28516,112.9618,112.9618,0,0,1-34.584-10.95166,7.49876,7.49876,0,0,1-.67773-.38818v-.00049c-.03223-.02-.06445-.04053-.09668-.061-41.15234-26.45166-41.457-76.86622-41.70117-117.37549l-.00684-1.04541c-.30273-49.67334-.61523-101.03809,6.334-151.397,5.48144-39.72656,13.16015-73.13818,22.82324-99.30615C210.406,19.09912,234.30153-3.31006,263.74294.37744c21.77051,2.73486,39.77637,22.71289,53.51855,59.3794,10.709,28.57177,16.65333,60.95507,20.20508,80.30322.34961,1.90625.67578,3.68213.9795,5.31006,12.56835,67.25634,12.15917,136.47851,9.84375,201.26416-.90235,25.23877-4.34668,53.9292-23.05469,75.35547a70.57389,70.57389,0,0,1-16.80762,13.99755h0C294.50564,444.375,276.79567,448.81006,258.12771,448.81006Zm-44.97852-25.45313a97.98936,97.98936,0,0,0,29.65527,9.32715c21.48633,3.15235,42.58106-.32715,57.88282-9.54541h0a55.60952,55.60952,0,0,0,13.249-11.01465c15.623-17.89257,18.55566-43.417,19.36328-66.02588,2.28418-63.92382,2.70215-132.15039-9.59766-197.97216-.30761-1.64307-.63574-3.43457-.98925-5.35791-6.15918-33.55616-22.52149-122.69434-60.83789-127.50733C240.25368,12.54932,221.74,31.707,206.78884,72.1958c-9.28809,25.15234-16.70215,57.50537-22.03516,96.16016-6.80176,49.293-6.49316,100.11084-6.19336,149.25488l.00586,1.04687C178.8113,359.269,179.06716,401.26172,213.14919,423.35693Z"></path><path fill="#fbbf13" d="M256.5,448.20313c-10.53906,0-16.09277-12.5879-19.35254-22.05665-3.90234-11.33544-7.38281-27.38916-10.34277-47.71582-6-41.20068-9.30469-95.90283-9.30469-154.0288s3.30469-112.82813,9.30469-154.02881c2.96-20.32666,6.44043-36.38037,10.34277-47.71582C240.40723,13.18848,245.96094.60059,256.5.60059s16.09277,12.58789,19.35254,22.05664c3.90234,11.33545,7.38281,27.38916,10.34277,47.71582,6,41.20068,9.30469,95.90283,9.30469,154.02881s-3.30469,112.82812-9.30469,154.0288c-2.96,20.32666-6.44043,36.38038-10.34277,47.71582C272.59277,435.61523,267.03906,448.20313,256.5,448.20313Zm0-431.65577c-2.64551,3.55078-9.66406,16.86963-15.78223,62.65577C235.418,118.86279,232.5,170.42871,232.5,224.40186s2.918,105.53906,8.21777,145.19873c6.11817,45.78613,13.13672,59.105,15.78223,62.65576,2.64551-3.55078,9.66406-16.86963,15.78223-62.65576C277.582,329.94092,280.5,278.375,280.5,224.40186s-2.918-105.53907-8.21777-145.19873C266.16406,33.417,259.14551,20.09814,256.5,16.54736Z"></path><path fill="#fbbf13" d="M255.98145 155.43408a298.65512 298.65512 0 0 1-75.32227-9.66064 7.5 7.5 0 1 1 3.78516-14.51465 283.9714 283.9714 0 0 0 73.57519 9.168 283.72433 283.72433 0 0 0 69.48731-9.168 7.5 7.5 0 1 1 3.78515 14.51465 298.7557 298.7557 0 0 1-73.165 9.65332C257.41309 155.43164 256.69531 155.43408 255.98145 155.43408zM256.04785 95.437a299.11214 299.11214 0 0 1-62.24121-6.55176 7.50021 7.50021 0 0 1 3.127-14.67089 283.555 283.555 0 0 0 61.084 6.21582 283.78052 283.78052 0 0 0 56.76562-6.16651 7.49975 7.49975 0 1 1 3.11328 14.67285A298.79561 298.79561 0 0 1 258.124 95.43018Q257.08545 95.4375 256.04785 95.437zM255.47363 216.07568A525.2949 525.2949 0 0 1 174.044 209.708a7.49989 7.49989 0 1 1 2.332-14.81738 510.6249 510.6249 0 0 0 80.626 6.18261 510.15509 510.15509 0 0 0 77.52442-6.18261 7.49989 7.49989 0 1 1 2.332 14.81738 525.22242 525.22242 0 0 1-79.81152 6.36523C256.52344 216.07471 255.99805 216.07568 255.47363 216.07568zM257.00391 278.812c-.34766 0-.69239-.00049-1.04-.001a652.70014 652.70014 0 0 1-81.709-5.28907A7.5 7.5 0 1 1 176.165 258.644a637.56071 637.56071 0 0 0 79.82324 5.167q.50683.00072 1.01563.001a637.64206 637.64206 0 0 0 80.87988-5.168A7.5 7.5 0 1 1 339.794 273.522 652.70889 652.70889 0 0 1 257.00391 278.812zM258.05078 333.1875q-1.05322 0-2.10351-.00391a559.40451 559.40451 0 0 1-81.86719-6.35888 7.50015 7.50015 0 0 1 2.25976-14.8291 544.27236 544.27236 0 0 0 79.66407 6.188 545.807 545.807 0 0 0 83.80371-6.188 7.50015 7.50015 0 0 1 2.25976 14.8291A559.45265 559.45265 0 0 1 258.05078 333.1875zM255.44141 389.65137c-.53321 0-1.06348-.001-1.59766-.00342a354.69929 354.69929 0 0 1-80.36914-9.61426 7.49991 7.49991 0 0 1 3.4707-14.59277 339.69786 339.69786 0 0 0 76.9668 9.207 339.05727 339.05727 0 0 0 80.04492-9.207 7.49991 7.49991 0 1 1 3.4707 14.59277A354.66168 354.66168 0 0 1 255.44141 389.65137z"></path><path fill="#67bc46" d="M210.424,441.03539h92.152a0,0,0,0,1,0,0v36.52983a30,30,0,0,1-30,30H240.424a30,30,0,0,1-30-30V441.03539A0,0,0,0,1,210.424,441.03539Z"></path><path fill="#5dae47" d="M240.424,477.56519V441.0354h-30v36.52979a30,30,0,0,0,30,30h30A30,30,0,0,1,240.424,477.56519Z"></path><path fill="#fbbf13" d="M341.99,297.1499c-2.85,15.54-3.51,31.39014-4.58,47.12012-1.6,23.5-4.5,48.77-16.15,70.79q-1.53,2.90991-3.27,5.73A95.83857,95.83857,0,0,1,277.53,456.48a81.78015,81.78015,0,0,1-24.28,6.99c-.08.01-.17.02-.25.03-7.62.87988-15.99-.24-21.63-4.35986a17.24752,17.24752,0,0,1-2.9-2.66016A21.60323,21.60323,0,0,1,223.54,445a64.47675,64.47675,0,0,1-.57-9.42,151.584,151.584,0,0,1,1.91-20.19,432.74071,432.74071,0,0,1,9.2-46c5.01-19.53,11.01-39.53,18.92-58.97009A264.21888,264.21888,0,0,1,279.76,259.87c8.37-12.16,28.28-37.57,59.25-53.86C341.63,236.28,342.3,266.74,341.99,297.1499Z"></path><path fill="#67bc46" d="M496.81,233.99a181.5367,181.5367,0,0,0-28.21-6.03c-13.92-1.83-30.37-3.27-50.18,1.26-33.47,7.66-52.53,32.66-61.27,57.95-7.53,21.77-8.2,44.57007-9.74,67.1001-1.74,25.55994-5.02,53.23-19.42,76.52A95.83857,95.83857,0,0,1,287.53,466.48a81.78015,81.78015,0,0,1-24.28,6.99c-.08.01-.17.02-.25.03-7.62.87988-15.99-.24-21.63-4.35986a17.24752,17.24752,0,0,1-2.9-2.66016A21.60323,21.60323,0,0,1,233.54,455c-1.36005-9.81006-.06-19.8501,1.34-29.61a432.74071,432.74071,0,0,1,9.2-46c5.01-19.53,11.01-39.53,18.92-58.97009A264.21888,264.21888,0,0,1,289.76,269.87c12.25-17.79993,49.2-63.96009,109.38-68.4C448.65,197.82007,485.57,225,496.81,233.99Z"></path><path fill="#fbbf13" d="M289.03,436.6a63.84426,63.84426,0,0,1-.57,8.4c-.72,5.23-2.93,10.56006-7.83,14.14014-5.7,4.15991-14.19,5.25976-21.88,4.32983-28.88-3.53-52.54-22.93994-64.74-42.67993a102.407,102.407,0,0,1-7.04-13.64014C178.42,387.11,176,365,174.59,344.27c-.94-13.78-1.56-27.65-3.62-41.33008-.15-32.28,0-64.61,2.33-96.76C204.1,222.47,223.9,247.75,232.24,259.87c23.06,33.52,36.14,72.37,45.68,109.52a432.72546,432.72546,0,0,1,9.2,46A144.89032,144.89032,0,0,1,289.03,436.6Z"></path><path fill="#5dae47" d="M292.46,455a21.60369,21.60369,0,0,1-4.93,11.48,17.248,17.248,0,0,1-2.9,2.66016C278.99,473.26,270.62,474.37988,263,473.5c-.08-.01-.17-.02-.25-.03a81.77926,81.77926,0,0,1-24.28-6.99A21.60323,21.60323,0,0,1,233.54,455c-1.36005-9.81006-.06-19.8501,1.34-29.61a432.74071,432.74071,0,0,1,9.2-46c5.01-19.53,11.01-39.53,18.92-58.97009C270.91,339.86,276.91,359.86,281.92,379.39a432.72546,432.72546,0,0,1,9.2,46C292.52,435.1499,293.82,445.18994,292.46,455Z"></path><path fill="#67bc46" d="M15.1924,233.98628A181.57972,181.57972,0,0,1,43.398,227.95759c13.91959-1.82858,30.37253-3.26715,50.1798,1.26593,33.47588,7.66133,52.52843,32.65749,61.272,57.9485,7.52643,21.77025,8.20467,44.57176,9.73841,67.09636,1.74051,25.56106,5.01749,53.23344,19.41752,76.52635,12.20187,19.73714,35.86361,39.14819,64.741,42.67106,7.69272.93845,16.18127-.16193,21.87974-4.32306,4.89979-3.57793,7.11787-8.91742,7.837-14.13807,1.35237-9.81888.05966-19.85137-1.34254-29.61245A431.08892,431.08892,0,0,0,267.922,379.395c-9.547-37.15457-22.622-76.00032-45.68634-109.52714-12.24323-17.79709-49.19452-63.95514-109.37431-68.39641C63.34732,197.81725,26.42855,224.99637,15.1924,233.98628Z"></path><path fill="#5dae47" d="M214.00574,420.79468c-14.4-23.29285-17.677-50.96533-19.41754-76.52637-1.5337-22.52454-2.212-45.32605-9.73841-67.09631-8.74353-25.291-27.79608-50.28723-61.27191-57.94849-19.80731-4.53308-36.26025-3.09448-50.17981-1.266a181.58122,181.58122,0,0,0-28.20563,6.02881,158.968,158.968,0,0,1,32.559-20.12085c-31.51458,6.605-54.18023,23.417-62.559,30.12085a181.58122,181.58122,0,0,1,28.20563-6.02881c13.91956-1.82849,30.3725-3.26709,50.17981,1.266,33.47583,7.66126,52.52838,32.65747,61.27191,57.94849,7.52643,21.77026,8.20471,44.57177,9.73841,67.09631,1.74054,25.561,5.01751,53.23352,19.41754,76.52637,12.20184,19.73706,35.86358,39.14819,64.741,42.67114,7.69268.93848,16.18127-.16211,21.87969-4.32324a18.17974,18.17974,0,0,0,5.28083-6.0791C248.32166,458.65967,225.80511,439.88086,214.00574,420.79468Z"></path></svg>