<svg id="SvgjsSvg1001" width="256" height="256" xmlns="http://www.w3.org/2000/svg" version="1.1" xmlns:xlink="http://www.w3.org/1999/xlink" xmlns:svgjs="http://svgjs.com/svgjs"><defs id="SvgjsDefs1002"></defs><g id="SvgjsG1008"><svg xmlns="http://www.w3.org/2000/svg" viewBox="0 0 64 64" width="256" height="256"><linearGradient id="a" x1="19.573" x2="44.411" y1="44.421" y2="19.583" gradientUnits="userSpaceOnUse"><stop offset="0" stop-color="#ff8125" class="stopColorff8125 svgShape"></stop><stop offset="1" stop-color="#ffc025" class="stopColorffc025 svgShape"></stop></linearGradient><path fill="url(#a)" d="m51.812 35.11-3.914-11.742A2.001 2.001 0 0 0 46 22H17.98a2 2 0 0 0-1.897 1.368l-4 12A2.001 2.001 0 0 0 13.98 38H50c.007 0-.007 0 0 0 1.104 0 2.02-.896 2.02-2 0-.32-.075-.622-.208-.89z"></path><linearGradient id="b" x1="15.586" x2="32.415" y1="40.415" y2="23.586" gradientUnits="userSpaceOnUse"><stop offset="0" stop-color="#ffc025" class="stopColorffc025 svgShape"></stop><stop offset="1" stop-color="#ffff7f" class="stopColorffff7f svgShape"></stop></linearGradient><path fill="url(#b)" d="m35.897 35.368-4-12A2 2 0 0 0 30 22H18a2 2 0 0 0-1.897 1.368l-4 12A2.001 2.001 0 0 0 14 38h20a2 2 0 0 0 1.897-2.632z"></path><linearGradient id="c" x1="13.586" x2="50.414" y1="66.415" y2="29.587" gradientUnits="userSpaceOnUse"><stop offset="0" stop-color="#ff8125" class="stopColorff8125 svgShape"></stop><stop offset="1" stop-color="#ffc025" class="stopColorffc025 svgShape"></stop></linearGradient><path fill="url(#c)" d="m63.897 51.368-4-12A2 2 0 0 0 58 38H6a2 2 0 0 0-1.897 1.368l-4 12A2.001 2.001 0 0 0 2 54h60a2 2 0 0 0 1.897-2.632z"></path><linearGradient id="d" x1="24.586" x2="39.414" y1="19.414" y2="4.586" gradientUnits="userSpaceOnUse"><stop offset="0" stop-color="#ae4cff" class="stopColorae4cff svgShape"></stop><stop offset="1" stop-color="#ffadff" class="stopColorffadff svgShape"></stop></linearGradient><path fill="url(#d)" d="M32 14a2 2 0 0 1-2-2V8a2 2 0 0 1 4 0v4a2 2 0 0 1-2 2zm-8.586 1.414a2 2 0 0 0 0-2.828l-2-2a2 2 0 1 0-2.828 2.828l2 2c.39.391.902.586 1.414.586s1.024-.195 1.414-.586zm20 0 2-2a2 2 0 1 0-2.828-2.828l-2 2a2 2 0 1 0 2.828 2.828z"></path><linearGradient id="e" x1="3.591" x2="20.419" y1="56.42" y2="39.591" gradientUnits="userSpaceOnUse"><stop offset="0" stop-color="#ffc025" class="stopColorffc025 svgShape"></stop><stop offset="1" stop-color="#ffff7f" class="stopColorffff7f svgShape"></stop></linearGradient><path fill="url(#e)" d="m23.812 51.11-3.914-11.742A2.001 2.001 0 0 0 18 38H6a2 2 0 0 0-1.897 1.368l-4 12A2.001 2.001 0 0 0 2 54h20.02a2 2 0 0 0 1.792-2.89z"></path><linearGradient id="f" x1="27.586" x2="44.414" y1="56.414" y2="39.586" gradientUnits="userSpaceOnUse"><stop offset="0" stop-color="#ffc025" class="stopColorffc025 svgShape"></stop><stop offset="1" stop-color="#ffff7f" class="stopColorffff7f svgShape"></stop></linearGradient><path fill="url(#f)" d="m47.897 51.368-4-12A2 2 0 0 0 42 38H30a2 2 0 0 0-1.897 1.368l-4 12A2.001 2.001 0 0 0 26 54h20a2 2 0 0 0 1.897-2.632z"></path></svg></g></svg>