<svg id="SvgjsSvg1062" width="256" height="256" xmlns="http://www.w3.org/2000/svg" version="1.1" xmlns:xlink="http://www.w3.org/1999/xlink" xmlns:svgjs="http://svgjs.com/svgjs"><defs id="SvgjsDefs1063"></defs><g id="SvgjsG1064"><svg xmlns="http://www.w3.org/2000/svg" fill="none" viewBox="0 0 513 512" width="256" height="256"><g clip-path="url(#a)" fill="#000000" class="color000 svgShape"><path fill="#ffffff" d="M256.767 484.292C382.85 484.292 485.06 382.082 485.06 256C485.06 129.918 382.85 27.7075 256.767 27.7075C130.685 27.7075 28.4746 129.918 28.4746 256C28.4746 382.082 130.685 484.292 256.767 484.292Z" class="colorfff svgShape"></path><path fill="#345d9d" d="M256.768 0C206.136 0 156.641 15.0141 114.542 43.1438C72.4427 71.2734 39.6306 111.255 20.2545 158.033C0.878498 204.811 -4.19115 256.284 5.68666 305.943C15.5645 355.602 39.9461 401.217 75.7484 437.019C111.551 472.822 157.165 497.203 206.825 507.081C256.484 516.959 307.957 511.889 354.735 492.513C401.513 473.137 441.494 440.325 469.624 398.226C497.754 356.127 512.768 306.632 512.768 256C512.865 222.479 506.36 189.267 493.622 158.261C480.885 127.254 462.165 99.0603 438.531 75.2885C414.897 51.5166 386.813 32.6326 355.881 19.7146C324.949 6.79656 291.776 0.0975384 258.255 0H256.768ZM261.107 264.678L234.453 354.557H377.02C377.964 354.524 378.906 354.677 379.791 355.008C380.676 355.339 381.487 355.841 382.178 356.486C382.868 357.131 383.425 357.906 383.817 358.766C384.208 359.626 384.426 360.555 384.458 361.499V363.855L372.061 406.625C371.514 408.647 370.296 410.424 368.606 411.663C366.917 412.902 364.856 413.53 362.763 413.443H144.574L181.145 288.852L140.235 301.249L149.533 272.736L190.443 260.339L241.891 85.5399C242.458 83.5287 243.681 81.7648 245.366 80.5291C247.051 79.2935 249.101 78.6572 251.189 78.7215H306.356C307.3 78.6884 308.242 78.8418 309.127 79.1728C310.012 79.5039 310.823 80.0062 311.514 80.6509C312.205 81.2957 312.762 82.0703 313.153 82.9305C313.544 83.7906 313.762 84.7195 313.794 85.6639V88.0194L270.404 235.545L311.315 223.148L302.637 252.901L261.107 264.678Z" class="color345D9D svgShape"></path></g><defs><clipPath id="a"><rect width="512" height="512" fill="#ffffff" transform="translate(.768)" class="colorfff svgShape"></rect></clipPath></defs></svg></g></svg>