<svg id="SvgjsSvg1034" width="256" height="256" xmlns="http://www.w3.org/2000/svg" version="1.1" xmlns:xlink="http://www.w3.org/1999/xlink" xmlns:svgjs="http://svgjs.com/svgjs"><defs id="SvgjsDefs1035"></defs><g id="SvgjsG1036"><svg xmlns="http://www.w3.org/2000/svg" data-name="Layer 1" viewBox="0 0 128 128" width="256" height="256"><path fill="#ffdb80" d="M124 49.33V74.65a2.00722 2.00722 0 0 1-.41 1.21L90 120.06V94.67zM86 96v28H60a2.00591 2.00591 0 0 1-2-2V96zM32 93v28H6a2.00591 2.00591 0 0 1-2-2V93z" class="colorffdb80 svgShape"></path><path fill="#2d4356" d="M36,91.667l3.23981-4.31976a10.034,10.034,0,0,1-2.43463-3.42114L32.99976,89H6.03186L40.3916,43.79a1.99637,1.99637,0,0,1,.7713-.6048L44.34375,39H41.98389A6.0328,6.0328,0,0,0,37.207,41.36963L.40771,89.79c-.01093.01434-.01721.03058-.02765.04517A2.12345,2.12345,0,0,0,0,91v28a6.00656,6.00656,0,0,0,6,6H34a2.05542,2.05542,0,0,0,1.59229-.79L50,105.25281V98.64246l-14,18.4209ZM32,121H6a2.00229,2.00229,0,0,1-2-2V93H32Z" class="color2d4356 svgShape"></path><path fill="#ffdb80" d="M121.5 46L87 92H60.03l1.52-2H74a6.06988 6.06988 0 0 0 4.77-2.37L108.9 48l1.52-2zM41.17 43.19c-2.49 3.26-3.42 4.48-3.76 4.94l-.1.09-.19.3a5.95976 5.95976 0 0 0-1.1 3.02c-.01.15-.02.3-.02.46V80a9.74429 9.74429 0 0 0 .34 2.55 9.2217 9.2217 0 0 0 .47 1.37L33 89H6.03l1.52-2L40.39 43.79c.06-.07.12-.14.18-.2a1.81939 1.81939 0 0 1 .38-.29A2.25316 2.25316 0 0 1 41.17 43.19z" class="colorffdb80 svgShape"></path><path fill="#2d4356" d="M108,0H81.98a6.02528,6.02528,0,0,0-4.77,2.37S40.44,50.75,40.41,50.79c-.00995.01-.02.03-.03.04A1.99332,1.99332,0,0,0,40,52V80a6.00476,6.00476,0,0,0,6,6H74a2.05863,2.05863,0,0,0,1.59-.79l37.19-48.93A5.99033,5.99033,0,0,0,114,32.65V6A6.00476,6.00476,0,0,0,108,0ZM72,82H46a2.00591,2.00591,0,0,1-2-2V54H72Zm1-32H46.03L80.39,4.79A2.02805,2.02805,0,0,1,81.98,4H107.5Zm37-17.35a2.00722,2.00722,0,0,1-.41,1.21L76,78.06V52.67L110,7.33Z" class="color2d4356 svgShape"></path><path fill="#ffdb80" d="M110 7.33V32.65a2.00722 2.00722 0 0 1-.41 1.21L76 78.06V52.67zM72 54V82H46a2.00591 2.00591 0 0 1-2-2V54zM107.5 4L73 50H46.03L80.39 4.79A2.02805 2.02805 0 0 1 81.98 4z" class="colorffdb80 svgShape"></path><path fill="#2d4356" d="M122,42h-8.54352l-3.04,4h11.08325l-34.5,46H60.03186l1.52-2H56.52814l-2.12042,2.79A2.11278,2.11278,0,0,0,54,94v28a6.00656,6.00656,0,0,0,6,6H88a2.0572,2.0572,0,0,0,1.59229-.79L126.77734,78.2832A6.038,6.038,0,0,0,128,74.65234V48A6.00656,6.00656,0,0,0,122,42ZM86,124H60a2.00229,2.00229,0,0,1-2-2V96H86Zm38-49.34766a2.01651,2.01651,0,0,1-.40771,1.21094L90,120.06335V94.667l34-45.33331Z" class="color2d4356 svgShape"></path><path fill="#ffdb80" d="M51.51,90c-.11.15-.2.27-.28.38l-.01-.01A6.1676,6.1676,0,0,0,50,94v4.64L36,117.06V91.67l3.24-4.32a8.47278,8.47278,0,0,0,.93.75A9.82246,9.82246,0,0,0,46,90Z" class="colorffdb80 svgShape"></path><path fill="#f9edd2" d="M107.5,4,106,6H81.98a2.02808,2.02808,0,0,0-1.59.79L47.55,50H46.03L80.39,4.79A2.02808,2.02808,0,0,1,81.98,4Z" opacity=".5" class="colorf9edd2 svgShape"></path><polygon fill="#ad9359" points="107.5 4 73 50 46.03 50 47.55 48 73 48 106 4 107.5 4" opacity=".45" class="colorad9359 svgShape"></polygon><polygon fill="#f9edd2" points="110 7.33 110 9.33 76 54.67 76 52.67 110 7.33" opacity=".5" class="colorf9edd2 svgShape"></polygon><path fill="#ad9359" d="M110 30.65v2a2.00682 2.00682 0 0 1-.41 1.21L76 78.06v-2l33.59-44.2A2.00682 2.00682 0 0 0 110 30.65zM72 80v2H46a2.00591 2.00591 0 0 1-2-2V78a2.00591 2.00591 0 0 0 2 2z" opacity=".45" class="colorad9359 svgShape"></path><rect width="28" height="2" x="44" y="54" fill="#f9edd2" opacity=".5" class="colorf9edd2 svgShape"></rect><polygon fill="#f9edd2" points="61.55 90 63.07 90 61.55 92 60.03 92 61.55 90" opacity=".5" class="colorf9edd2 svgShape"></polygon><polygon fill="#f9edd2" points="121.5 46 120 48 108.9 48 110.42 46 121.5 46" opacity=".5" class="colorf9edd2 svgShape"></polygon><polygon fill="#ad9359" points="121.5 46 87 92 60.03 92 61.55 90 87 90 120 46 121.5 46" opacity=".45" class="colorad9359 svgShape"></polygon><polygon fill="#f9edd2" points="124 49.33 124 51.33 90 96.67 90 94.67 124 49.33" opacity=".5" class="colorf9edd2 svgShape"></polygon><path fill="#ad9359" d="M124 72.65v2a2.00682 2.00682 0 0 1-.41 1.21L90 120.06v-2l33.59-44.2A2.00682 2.00682 0 0 0 124 72.65zM86 122v2H60a2.00591 2.00591 0 0 1-2-2v-2a2.00591 2.00591 0 0 0 2 2z" opacity=".45" class="colorad9359 svgShape"></path><rect width="28" height="2" x="58" y="96" fill="#f9edd2" opacity=".5" class="colorf9edd2 svgShape"></rect><path fill="#f9edd2" d="M40.95,43.3a2.25316,2.25316,0,0,1,.22-.11c-2.49,3.26-3.42,4.48-3.76,4.94l-.1.09-.19.3a5.95976,5.95976,0,0,0-1.1,3.02L9.07,87,7.55,89H6.03l1.52-2L40.39,43.79c.06-.07.12-.14.18-.2A1.81939,1.81939,0,0,1,40.95,43.3Z" opacity=".5" class="colorf9edd2 svgShape"></path><path fill="#ad9359" d="M36.34,82.55a9.2217,9.2217,0,0,0,.47,1.37L33,89H6.03l1.52-2H33Z" opacity=".45" class="colorad9359 svgShape"></path><path fill="#f9edd2" d="M40.17,88.1,36,93.67v-2l3.24-4.32A8.47278,8.47278,0,0,0,40.17,88.1Z" opacity=".5" class="colorf9edd2 svgShape"></path><polygon fill="#ad9359" points="50 96.64 50 98.64 36 117.06 36 115.06 50 96.64" opacity=".45" class="colorad9359 svgShape"></polygon><path fill="#ad9359" d="M32,119v2H6a2.00591,2.00591,0,0,1-2-2v-2a2.00591,2.00591,0,0,0,2,2Z" opacity=".45" class="colorad9359 svgShape"></path><rect width="28" height="2" x="4" y="93" fill="#f9edd2" opacity=".5" class="colorf9edd2 svgShape"></rect></svg></g></svg>