<svg xmlns="http://www.w3.org/2000/svg" width="38" height="38"><g fill="none"><path d="M24.187 14.532V9.508c0-2.82-2.262-5.035-5.141-5.035-2.88 0-5.142 2.216-5.142 5.035v5.024h-3.26V9.596c0-4.607 3.697-8.227 8.402-8.227 4.704 0 8.401 3.62 8.401 8.227v4.936h-3.26z" fill="#2483FF"/><path d="M19.097 4.474V1.369c4.68.026 8.35 3.637 8.35 8.227v4.936h-3.26V9.508c0-2.802-2.235-5.008-5.09-5.034z" fill="#2EE0B5"/><path d="M18 26.83V31a1 1 0 001 1v5H5V14h14v7a3 3 0 00-1 5.83z" fill="#2483FF"/><path d="M20 26.83A3.001 3.001 0 0019 21v-7h14v23H19v-5a1 1 0 001-1v-4.17z" fill="#2EE0B5"/></g></svg>